<?xml version="1.0" standalone="no"?>
<!DOCTYPE svg PUBLIC "-//W3C//DTD SVG 1.1//EN" "http://www.w3.org/Graphics/SVG/1.1/DTD/svg11.dtd" >
<svg>
<metadata>
Created by FontForge 20090914 at Tue Nov 25 10:50:15 2014
 By www-data
Font data copyright Google 2013
</metadata>
<defs>
<font id="RobotoCondensed-Regular" horiz-adv-x="957" >
  <font-face 
    font-family="Roboto Condensed"
    font-weight="400"
    font-stretch="normal"
    units-per-em="2048"
    panose-1="0 0 0 0 0 0 0 0 0 0"
    ascent="1536"
    descent="-512"
    x-height="1082"
    cap-height="1456"
    bbox="-1185 -555.002 1999 2146"
    underline-thickness="100"
    underline-position="-100"
    unicode-range="U+0002-U+FFFD"
  />
<missing-glyph horiz-adv-x="433" 
 />
    <glyph glyph-name="fi" unicode="fi" horiz-adv-x="989" 
d="M164 0v937h-132v145h132v111c0 126 30.5 222.167 91.5 288.5s148.833 99.5 263.5 99.5c40.667 0 80.167 -5 118.5 -15s81.833 -25 130.5 -45l-31 -158c-31.333 14.667 -63.333 26.5 -96 35.5s-68.667 13.5 -108 13.5c-58.667 0 -101.5 -18 -128.5 -54
s-40.5 -91 -40.5 -165v-111h172v-145h-172v-937h-200zM862 0h-200v1082h200v-1082z" />
    <glyph glyph-name=".notdef" horiz-adv-x="433" 
 />
    <glyph glyph-name="NULL" horiz-adv-x="0" 
 />
    <glyph glyph-name="NULL" horiz-adv-x="0" 
 />
    <glyph glyph-name="uni0002" horiz-adv-x="25" 
 />
    <glyph glyph-name="uni0009" unicode="&#x9;" horiz-adv-x="25" 
 />
    <glyph glyph-name="nonmarkingreturn" unicode="&#xd;" horiz-adv-x="433" 
 />
    <glyph glyph-name="space" unicode=" " horiz-adv-x="433" 
 />
    <glyph glyph-name="exclam" unicode="!" horiz-adv-x="466" 
d="M334 485h-201v971h201v-971zM334 0h-201v204h201v-204z" />
    <glyph glyph-name="quotedbl" unicode="&#x22;" horiz-adv-x="575" 
d="M227 1416l-45 -369h-101v513h146v-144zM489 1416l-45 -369h-100v513h145v-144z" />
    <glyph glyph-name="numbersign" unicode="#" horiz-adv-x="1025" 
d="M557 410h-176l-61 -410h-136l61 410h-186v130h205l55 368h-199v132h218l62 416h136l-62 -416h177l62 416h136l-62 -416h169v-132h-188l-55 -368h182v-130h-201l-61 -410h-137zM400 540h176l55 368h-176z" />
    <glyph glyph-name="dollar" unicode="$" horiz-adv-x="961" 
d="M668 370c0 64.667 -14.1689 117.33 -42.502 157.997s-77.833 79.667 -148.5 117c-116 47.333 -201.667 102.833 -257 166.5s-83 153.834 -83 270.501c0 110.667 26.833 200.167 80.5 268.5s128.167 109.166 223.5 122.499v212h127v-214
c94 -16.667 166.833 -63.667 218.5 -141s77.5 -182.666 77.5 -315.999h-201c0 92.667 -14.667 166.334 -44 221.001s-69.666 82 -120.999 82c-54.667 0 -95.167 -21.167 -121.5 -63.5s-39.5 -98.833 -39.5 -169.5c0 -66 13.5 -118.667 40.5 -158s77.833 -78.333 152.5 -117
c116 -50 201.333 -106.333 256 -169s82 -152 82 -268c0 -114 -28 -204.167 -84 -270.5s-133.667 -105.833 -233 -118.5v-193h-126v193c-98 12 -178 53.667 -240 125s-93 179.333 -93 324h200c0 -107.333 18.167 -183.166 54.5 -227.499s82.5 -66.5 138.5 -66.5
c58.667 0 103.834 21 135.501 63s47.5 98.333 47.5 169z" />
    <glyph glyph-name="percent" unicode="%" horiz-adv-x="1289" 
d="M96 1176c0 86.667 22.832 158.5 68.499 215.5s108.834 85.5 189.501 85.5c82 0 145.667 -28.333 191 -85s68 -128.667 68 -216v-77c0 -87.333 -22.667 -159 -68 -215s-108.333 -84 -189 -84c-82 0 -145.833 28.167 -191.5 84.5s-68.5 127.833 -68.5 214.5v77z
M236.999 1099c0 -50.667 10.001 -93.167 30.001 -127.5s49.667 -51.5 89 -51.5c38 0 67 17 87 51s30 76.667 30 128v77c0 50.667 -10.167 93.5 -30.5 128.5s-49.833 52.5 -88.5 52.5s-67.834 -17.5 -87.501 -52.5s-29.5 -77.833 -29.5 -128.5v-77zM685 357
c0 86.667 22.833 158.334 68.5 215.001s109.167 85 190.5 85s144.833 -28.333 190.5 -85s68.5 -128.334 68.5 -215.001v-78c0 -87.333 -22.667 -159.166 -68 -215.499s-108.333 -84.5 -189 -84.5c-82 0 -146 28.167 -192 84.5s-69 128.166 -69 215.499v78zM827 279
c0 -50 10.334 -92.501 31.001 -127.501s50 -52.5 88 -52.5c40 0 69.333 16.833 88 50.5s28 76.834 28 129.501v78c0 51.333 -10 94.166 -30 128.499s-49.333 51.5 -88 51.5s-67.834 -17.167 -87.501 -51.5s-29.5 -77.166 -29.5 -128.499v-78zM396.001 112.999l-102 63
l572 1138l102 -63z" />
    <glyph glyph-name="ampersand" unicode="&#x26;" horiz-adv-x="1125" 
d="M67 383c0 82.667 19.333 153.831 58 213.498s98 122.167 178 187.5c-44.667 67.333 -77.334 126.833 -98.001 178.5s-31 105.834 -31 162.501c0 112.667 28 199.5 84 260.5s134 91.5 234 91.5c90 0 162 -29.333 216 -88s81 -132 81 -220
c0 -65.333 -13.667 -121.5 -41 -168.5s-67.333 -92.5 -120 -136.5l-97 -84l279 -395c19.333 42.667 34.333 87.834 45 135.501s16 99.167 16 154.5h162c0 -88.667 -9.83301 -168.5 -29.5 -239.5s-50.5 -135.5 -92.5 -193.5l171 -242h-234l-70 100
c-48 -40.667 -97.667 -71 -149 -91s-106.666 -30 -165.999 -30c-124 0 -221 36.5 -291 109.5s-105 171.167 -105 294.5zM470 132.997c40 0 78.5 7.50195 115.5 22.502s72.5 37.833 106.5 68.5l-302 433l-20 -18c-41.333 -48.667 -68.5 -93.334 -81.5 -134.001
s-19.5 -79.667 -19.5 -117c0 -74.667 17.5 -135.834 52.5 -183.501s84.5 -71.5 148.5 -71.5zM362 1127c0 -34 6.83203 -68.832 20.499 -104.499s34.834 -75.167 63.501 -118.5l94 79c32 27.333 53.5 55.166 64.5 83.499s16.5 60.833 16.5 97.5
c0 44 -11.5 81.167 -34.5 111.5s-54.5 45.5 -94.5 45.5c-42.667 0 -75 -18.333 -97 -55s-33 -83 -33 -139z" />
    <glyph glyph-name="quotesingle" unicode="'" horiz-adv-x="312" 
d="M234 1427l-53 -372h-101l1 359v146h153v-133z" />
    <glyph glyph-name="parenleft" unicode="(" horiz-adv-x="585" 
d="M115 590c0 256.667 41.333 477.5 124 662.5s174.667 311.167 276 378.5l39 -116c-71.333 -70 -132.5 -184.167 -183.5 -342.5s-76.5 -351.833 -76.5 -580.5v-20c0 -228.667 25.333 -422 76 -580s112 -273.667 184 -347l-39 -110c-102 67.333 -194.167 192.333 -276.5 375
s-123.5 404 -123.5 664v16z" />
    <glyph glyph-name="parenright" unicode=")" horiz-adv-x="588" 
d="M475 574c0 -257.333 -42.167 -478.001 -126.5 -662.001s-177.833 -309.667 -280.5 -377l-41 110c70.667 69.333 131.667 183.833 183 343.5s77 354.167 77 583.5v20c0 226.667 -26.333 420.334 -79 581.001s-113 276.667 -181 348l41 110
c102 -66.667 195.333 -193.167 280 -379.5s127 -406.833 127 -661.5v-16z" />
    <glyph glyph-name="asterisk" unicode="*" horiz-adv-x="776" 
d="M288 984l-253 96l43 140l252 -119l-11 355h143l-13 -361l247 121l43 -141l-257 -100l166 -278l-115 -87l-151 295l-149 -289l-117 84z" />
    <glyph glyph-name="plus" unicode="+" horiz-adv-x="979" 
d="M585 774h320v-174h-320v-454h-196v454h-322v174h322v432h196v-432z" />
    <glyph glyph-name="comma" unicode="," horiz-adv-x="393" 
d="M302 51c0 -64.667 -14 -130.167 -42 -196.5s-64.667 -122.833 -110 -169.5l-104 67c23.333 47.333 40.833 94 52.5 140s17.5 97 17.5 153v169h187z" />
    <glyph glyph-name="hyphen" unicode="-" horiz-adv-x="581" 
d="M501 552h-427v154h427v-154z" />
    <glyph glyph-name="period" unicode="." horiz-adv-x="487" 
d="M334 0h-200v200h200v-200z" />
    <glyph glyph-name="slash" unicode="/" horiz-adv-x="669" 
d="M168 -125h-156l456 1581h156z" />
    <glyph glyph-name="zero" unicode="0" horiz-adv-x="961" 
d="M866 563c0 -192 -34 -337.333 -102 -436s-162.333 -148 -283 -148s-215.167 49.333 -283.5 148s-102.5 244 -102.5 436v329c0 191.333 33.833 336.666 101.5 435.999s161.834 149 282.501 149c121.333 0 216.166 -49.667 284.499 -149s102.5 -244.666 102.5 -435.999
v-329zM665 921c0 134.667 -15.6689 235.002 -47.002 301.002s-77.666 99 -138.999 99c-60.667 0 -106.5 -33.167 -137.5 -99.5s-46.5 -166.5 -46.5 -300.5v-386c0 -134.667 15.833 -235.334 47.5 -302.001s77.834 -100 138.501 -100s106.5 33.167 137.5 99.5
s46.5 167.166 46.5 302.499v386z" />
    <glyph glyph-name="one" unicode="1" horiz-adv-x="961" 
d="M606 0h-199v1245l-234 -19v127l433 104v-1457z" />
    <glyph glyph-name="two" unicode="2" horiz-adv-x="961" 
d="M879 0l-780.002 0.00195312v135l380 526c62 92.667 104.667 168.167 128 226.5s35 116.166 35 173.499c0 78 -14.667 140.833 -44 188.5s-70.666 71.5 -123.999 71.5c-67.333 0 -117.166 -26.167 -149.499 -78.5s-48.5 -125.5 -48.5 -219.5h-200
c0 131.333 35 239.833 105 325.5s167.667 128.5 293 128.5c116 0 206.5 -36.833 271.5 -110.5s97.5 -173.5 97.5 -299.5c0 -85.333 -19.667 -167.833 -59 -247.5s-98.333 -169.834 -177 -270.501l-257 -395h529v-154z" />
    <glyph glyph-name="three" unicode="3" horiz-adv-x="961" 
d="M326 818l135.001 0.00195312c63.333 0 108.666 22 135.999 66s41 105.333 41 184c0 80.667 -14.5 143 -43.5 187s-72.833 66 -131.5 66c-52.667 0 -95.5 -22.167 -128.5 -66.5s-49.5 -103.833 -49.5 -178.5h-199c0 118 34.667 214.333 104 289s159.333 112 270 112
c117.333 0 209.833 -35.167 277.5 -105.5s101.5 -172.166 101.5 -305.499c0 -66 -15.833 -127.833 -47.5 -185.5s-77.834 -102.167 -138.501 -133.5c71.333 -28.667 123.166 -72.834 155.499 -132.501s48.5 -130.5 48.5 -212.5c0 -134.667 -36.667 -238.834 -110 -312.501
s-168.666 -110.5 -285.999 -110.5c-110.667 0 -202.834 35.5 -276.501 106.5s-110.5 173.167 -110.5 306.5h200c0 -78.667 17.167 -141.5 51.5 -188.5s80.5 -70.5 138.5 -70.5c60.667 0 107.834 22.667 141.501 68s50.5 111.666 50.5 198.999
c0 93.333 -15.667 160.833 -47 202.5s-80.666 62.5 -147.999 62.5h-135v153z" />
    <glyph glyph-name="four" unicode="4" horiz-adv-x="961" 
d="M762 497h146v-155h-146v-342h-201v342h-498l-6 114l499 1000h206v-959zM254 497h307v662l-3 1l-18 -39z" />
    <glyph glyph-name="five" unicode="5" horiz-adv-x="961" 
d="M136 654l66.999 802.001h623v-167h-457l-35 -427l3 -1c21.333 24 47 43.833 77 59.5s64.333 24.167 103 25.5c112 2 198.5 -39.667 259.5 -125s91.5 -204 91.5 -356c0 -147.333 -32.167 -265.166 -96.5 -353.499s-160.166 -132.5 -287.499 -132.5
c-106.667 0 -195.167 34.167 -265.5 102.5s-105.5 170.166 -105.5 305.499l195 4c0 -84 16 -148 48 -192s74.667 -66 128 -66c62 0 108.167 28.667 138.5 86s45.5 138.666 45.5 243.999c0 99.333 -15.667 178 -47 236s-77.666 87 -138.999 87
c-54.667 0 -94.334 -12.167 -119.001 -36.5s-42.667 -61.833 -54 -112.5z" />
    <glyph glyph-name="six" unicode="6" horiz-adv-x="961" 
d="M559 1477c43.333 0 83.666 -5.49902 120.999 -16.499s72.333 -26.5 105 -46.5l-38 -149c-28.667 18 -57.167 31.667 -85.5 41s-62.166 14 -101.499 14c-78.667 0 -141.167 -38.5 -187.5 -115.5s-69.5 -182.5 -69.5 -316.5v-36c32.667 36.667 70 65 112 85
s88.667 30 140 30c106.667 0 189.667 -44.5 249 -133.5s89 -206.167 89 -351.5c0 -149.333 -34.5 -270.5 -103.5 -363.5s-161.167 -139.5 -276.5 -139.5c-122 0 -220.667 50.167 -296 150.5s-113 243.166 -113 428.499v316c0 184 42.5 330.5 127.5 439.5
s194.167 163.5 327.5 163.5zM505 818.001c-49.333 0 -90.6689 -11.834 -124.002 -35.501s-59.333 -56.834 -78 -99.501v-137c0 -133.333 19.333 -235.666 58 -306.999s89.334 -107 152.001 -107c56.667 0 100.834 33.333 132.501 100s47.5 150 47.5 250
c0 100.667 -16.5 181.834 -49.5 243.501s-79.167 92.5 -138.5 92.5z" />
    <glyph glyph-name="seven" unicode="7" horiz-adv-x="961" 
d="M878 1300c-136 -188 -226.833 -363.668 -272.5 -527.001s-79.167 -374.666 -100.5 -633.999l-12 -139h-200l11 139c20.667 239.333 61.5 451 122.5 635s146.833 359.333 257.5 526h-618v156h812v-156z" />
    <glyph glyph-name="eight" unicode="8" horiz-adv-x="961" 
d="M842 1076c0 -78 -17 -145.168 -51 -201.501s-81.667 -99.166 -143 -128.499c69.333 -30.667 123.833 -76.5 163.5 -137.5s59.5 -133.167 59.5 -216.5c0 -136 -35.5 -238.833 -106.5 -308.5s-165.5 -104.5 -283.5 -104.5c-119.333 0 -214.333 34.833 -285 104.5
s-106 172.5 -106 308.5c0 84 19.5 156.333 58.5 217s93.5 106.334 163.5 137.001c-61.333 29.333 -108.833 72.166 -142.5 128.499s-50.5 123.5 -50.5 201.5c0 130 32.5 229.333 97.5 298s152.833 103 263.5 103c109.333 0 197 -34.333 263 -103s99 -168 99 -298z
M671 398.999c0 81.333 -17.833 146.833 -53.5 196.5s-81.5 74.5 -137.5 74.5c-58 0 -104.167 -24.667 -138.5 -74s-51.5 -115 -51.5 -197c0 -84.667 17 -150.167 51 -196.5s80.667 -69.5 140 -69.5c57.333 0 103.333 23.167 138 69.5s52 111.833 52 196.5zM642 1071
c0 74.667 -14.832 135 -44.499 181s-68.834 69 -117.501 69c-50.667 0 -90 -22.167 -118 -66.5s-42 -105.5 -42 -183.5c0 -76.667 14.333 -137 43 -181s68 -66 118 -66c49.333 0 88.5 22 117.5 66s43.5 104.333 43.5 181z" />
    <glyph glyph-name="nine" unicode="9" horiz-adv-x="961" 
d="M426 133c70 0 125.998 33.499 167.998 100.499s63 166.167 63 297.5v61l-3 1c-25.333 -44 -56.5 -77.5 -93.5 -100.5s-77.833 -34.5 -122.5 -34.5c-113.333 0 -201.666 44.167 -264.999 132.5s-95 210.5 -95 366.5c0 152 35.833 276.667 107.5 374s162.5 146 272.5 146
c123.333 0 220.833 -47.167 292.5 -141.5s107.5 -233.5 107.5 -417.5v-380c0 -180.667 -39.667 -319 -119 -415s-183.666 -144 -312.999 -144c-40.667 0 -82.167 5 -124.5 15s-81.833 25 -118.5 45l26 148c34 -19.333 67.667 -33.166 101 -41.499s72 -12.5 116 -12.5z
M458.998 609.999c48.667 0 89.333 14.332 122 42.999s58 66.334 76 113.001v172c0 128 -17 223.833 -51 287.5s-82.667 95.5 -146 95.5c-52.667 0 -96.167 -34.667 -130.5 -104s-51.5 -156 -51.5 -260c0 -104.667 15.667 -188.667 47 -252s76 -95 134 -95z" />
    <glyph glyph-name="colon" unicode=":" horiz-adv-x="470" 
d="M334 0h-200v200h200v-200zM334 881h-200v200h200v-200z" />
    <glyph glyph-name="semicolon" unicode=";" horiz-adv-x="464" 
d="M331 881h-200v200h200v-200zM334 51c0 -64.667 -14 -130.167 -42 -196.5s-64.667 -122.833 -110 -169.5l-104 67c23.333 47.333 40.833 94 52.5 140s17.5 97 17.5 153v169h187z" />
    <glyph glyph-name="less" unicode="&#x3c;" horiz-adv-x="862" 
d="M270 657l-48 -15v-3l48 -15l468 -240v-192l-677 375v152l677 374v-192z" />
    <glyph glyph-name="equal" unicode="=" horiz-adv-x="964" 
d="M825 801h-697v160h697v-160zM825 382h-697v161h697v-161z" />
    <glyph glyph-name="greater" unicode="&#x3e;" horiz-adv-x="880" 
d="M114 906v188l695 -375v-151l-695 -375v189l487 247l48 15v3l-48 16z" />
    <glyph glyph-name="question" unicode="?" horiz-adv-x="828" 
d="M283 408c0.666992 90 9.50293 153.499 26.5029 190.499s56.167 87.5 117.5 151.5c45.333 62 79.5 116.333 102.5 163s34.5 103.334 34.5 170.001c0 75.333 -13.833 133 -41.5 173s-67.834 60 -120.501 60c-44 0 -81.333 -18.5 -112 -55.5s-46 -89.5 -46 -157.5h-201
c1.33301 120.667 34.666 213.167 99.999 277.5s151.666 96.5 258.999 96.5c115.333 0 204.5 -34.333 267.5 -103s94.5 -164.667 94.5 -288c0 -88 -18.667 -166.667 -56 -236s-88.333 -139 -153 -209c-32 -34.667 -51.833 -67.167 -59.5 -97.5s-11.5 -75.5 -11.5 -135.5h-201
zM487.003 -0.000976562h-204v198h204v-198z" />
    <glyph glyph-name="at" unicode="@" horiz-adv-x="1558" 
d="M1466 509c-5.33301 -146.667 -39.3301 -271.667 -101.997 -375s-159.334 -155 -290.001 -155c-44 0 -81.333 14.5 -112 43.5s-52 70.167 -64 123.5h-3c-26.667 -56 -58.667 -97.667 -96 -125s-81.666 -41 -132.999 -41c-76.667 0 -134.834 39.333 -174.501 118
s-54.167 184.667 -43.5 318c13.333 174 52.166 311.5 116.499 412.5s144.5 151.5 240.5 151.5c62.667 0 112 -8.5 148 -25.5s77 -44.167 123 -81.5l-3 -3h5l-43 -577c-4.66699 -78.667 0.166016 -131.667 14.499 -159s34.166 -41 59.499 -41c68 0 121.833 38.5 161.5 115.5
s61.834 177.167 66.501 300.5c9.33301 256 -28.834 452.667 -114.501 590s-222.5 206 -410.5 206c-175.333 0 -314 -74.333 -416 -223s-157.333 -350 -166 -604c-10.667 -251.333 30 -449.333 122 -594s226.667 -217 404 -217c50 0 99.833 6.83301 149.5 20.5
s92.5 32.167 128.5 55.5l32 -107c-38.667 -28.667 -86.5 -50.667 -143.5 -66s-113.5 -23 -169.5 -23c-222 0 -391 81.667 -507 245s-169 392 -159 686c10.667 288.667 80.334 518.167 209.001 688.5s301.667 255.5 519 255.5c219.333 0 385 -80.333 497 -241
s163.333 -384.667 154 -672zM614.003 416c-7.33301 -96.667 -2.33398 -171 14.999 -223s46.333 -78 87 -78c34.667 0 65.834 9.83301 93.501 29.5s53.167 56.167 76.5 109.5v21.5c0 5.66699 0.333008 11.5 1 17.5l39 538c-14.667 6.66699 -29.5 12 -44.5 16s-30.5 6 -46.5 6
c-68 0 -119.333 -35.333 -154 -106s-57 -181 -67 -331z" />
    <glyph glyph-name="A" unicode="A" horiz-adv-x="1103" 
d="M769 374h-435l-99 -374h-204l426 1456h194l420 -1456h-203zM376 529h352l-174 657h-4z" />
    <glyph glyph-name="B" unicode="B" horiz-adv-x="1079" 
d="M137 0v1456h394c132.667 0 234.5 -32 305.5 -96s106.5 -162.667 106.5 -296c0 -70.667 -16.167 -132 -48.5 -184s-77.833 -90 -136.5 -114v-3c75.333 -16.667 132.5 -57 171.5 -121s58.5 -140.667 58.5 -230c0 -137.333 -34.833 -240.333 -104.5 -309
s-169.5 -103 -299.5 -103h-447zM338 679l-0.000976562 -525h246c66.667 0 117.334 22 152.001 66s52 107.667 52 191c0 84 -15 149.667 -45 197s-77 71 -141 71h-264zM337.999 825h220c59.333 2 105 22.833 137 62.5s48 97.167 48 172.5c0 82 -17.5 142.5 -52.5 181.5
s-88.167 58.5 -159.5 58.5h-193v-475z" />
    <glyph glyph-name="C" unicode="C" horiz-adv-x="1053" 
d="M986 435c-2.66699 -149.333 -41.3369 -262.668 -116.004 -340.001s-180.667 -116 -318 -116c-139.333 0 -247.666 46.833 -324.999 140.5s-116 228.834 -116 405.501v404c0 176 39 311.333 117 406s186 142 324 142c140 0 246.333 -38.167 319 -114.5
s111.334 -191.833 116.001 -346.5h-201c-1.33301 106.667 -20.166 184.167 -56.499 232.5s-95.5 72.5 -177.5 72.5c-79.333 0 -139.333 -32.667 -180 -98s-61 -162.333 -61 -291v-407c0 -130.667 19.833 -228.667 59.5 -294s100.167 -98 181.5 -98
c80.667 0 139.334 23.167 176.001 69.5s56 123.833 58 232.5h200z" />
    <glyph glyph-name="D" unicode="D" horiz-adv-x="1130" 
d="M137 0v1456h347c173.333 0 305 -49.333 395 -148s135 -249 135 -451v-260c0 -203.333 -45.333 -353.666 -136 -450.999s-225 -146 -403 -146h-338zM338 1300l-0.000976562 -1146h130c126.667 0 216 35.167 268 105.5s78 182.833 78 337.5v262
c0 155.333 -25.667 267.666 -77 336.999s-137.666 104 -258.999 104h-140z" />
    <glyph glyph-name="E" unicode="E" horiz-adv-x="977" 
d="M846 676h-508v-522h590v-154h-791v1456h786v-156h-585v-469h508v-155z" />
    <glyph glyph-name="F" unicode="F" horiz-adv-x="975" 
d="M845 647h-507v-647h-201v1456h789v-156h-588v-498h507v-155z" />
    <glyph glyph-name="G" unicode="G" horiz-adv-x="1125" 
d="M1004 203c-33.333 -59.333 -84.167 -111.502 -152.5 -156.502s-159.166 -67.5 -272.499 -67.5c-148 0 -265 45.5 -351 136.5s-129 223.833 -129 398.5v432c0 172.667 41 304.334 123 395.001s194 136 336 136c144 0 252 -36.833 324 -110.5s112.333 -181.5 121 -323.5
h-197c-3.33301 92.667 -24.333 162.167 -63 208.5s-99.334 69.5 -182.001 69.5c-84 0 -148.667 -31.167 -194 -93.5s-68 -155.5 -68 -279.5v-434c0 -127.333 24.333 -222.666 73 -285.999s117.667 -95 207 -95c65.333 0 114.5 11.5 147.5 34.5s58.5 53.5 76.5 91.5v331h-225
v147h426v-534z" />
    <glyph glyph-name="H" unicode="H" horiz-adv-x="1194" 
d="M1056 0h-201v642h-517v-642h-201v1456h201v-659h517v659h201v-1456z" />
    <glyph glyph-name="I" unicode="I" horiz-adv-x="499" 
d="M350 0h-201v1456h201v-1456z" />
    <glyph glyph-name="J" unicode="J" horiz-adv-x="950" 
d="M619 1456l199.999 0.000976562v-1039c0 -136.667 -34.667 -243.834 -104 -321.501s-159.666 -116.5 -270.999 -116.5c-120.667 0 -215 35.5 -283 106.5s-102 178.5 -102 322.5h200c0 -94.667 15.5 -164.167 46.5 -208.5s77.167 -66.5 138.5 -66.5
c54 0 96.667 24.833 128 74.5s47 119.5 47 209.5v1039z" />
    <glyph glyph-name="K" unicode="K" horiz-adv-x="1086" 
d="M466 653h-128v-653h-201v1456h201v-640h111l359 640h239l-430 -693l462 -763h-245z" />
    <glyph glyph-name="L" unicode="L" horiz-adv-x="928" 
d="M338 154h535v-154h-736v1456h201v-1302z" />
    <glyph glyph-name="M" unicode="M" horiz-adv-x="1421" 
d="M390 1456l318 -1192h3l318 1192h259v-1456h-199v559l19 555l-3 1l-329 -1115h-133l-328 1115l-3 -1l19 -555v-559h-199v1456h258z" />
    <glyph glyph-name="N" unicode="N" horiz-adv-x="1195" 
d="M1056 0h-200l-515 1074l-3 -1v-1073h-201v1456h201l515 -1072l3 1v1071h200v-1456z" />
    <glyph glyph-name="O" unicode="O" horiz-adv-x="1164" 
d="M1048 527c0 -176 -42 -311.333 -126 -406s-199 -142 -345 -142c-144 0 -256.833 47.333 -338.5 142s-122.5 230 -122.5 406v400c0 175.333 40.833 310.833 122.5 406.5s194.167 143.5 337.5 143.5c146 0 261.167 -47.833 345.5 -143.5s126.5 -231.167 126.5 -406.5v-400z
M847 930c0 128.667 -23.001 225.334 -69.001 290.001s-113.333 97 -202 97c-85.333 0 -149.833 -32.333 -193.5 -97s-65.5 -161.334 -65.5 -290.001v-403c0 -130.667 21.833 -228.334 65.5 -293.001s108.5 -97 194.5 -97c88.667 0 155.834 32.333 201.501 97
s68.5 162.334 68.5 293.001v403z" />
    <glyph glyph-name="P" unicode="P" horiz-adv-x="1089" 
d="M338 574v-574h-201v1456h459c132 0 234.333 -39.833 307 -119.5s109 -186.834 109 -321.501c0 -135.333 -36.167 -242.666 -108.5 -321.999s-174.833 -119 -307.5 -119h-258zM338 730h258c72.667 0 126.667 26.333 162 79s53 120.667 53 204
c0 84 -17.667 152.833 -53 206.5s-89.333 80.5 -162 80.5h-258v-570z" />
    <glyph glyph-name="Q" unicode="Q" horiz-adv-x="1168" 
d="M1048 527c0 -101.333 -14.5 -189 -43.5 -263s-71.167 -134.667 -126.5 -182l197 -214l-131 -114l-221 245c-23.333 -6.66699 -47 -11.667 -71 -15s-49 -5 -75 -5c-144 0 -256.833 47.333 -338.5 142s-122.5 230 -122.5 406v400c0 175.333 40.833 310.833 122.5 406.5
s194.167 143.5 337.5 143.5c146 0 261.167 -47.833 345.5 -143.5s126.5 -231.167 126.5 -406.5v-400zM847 930c0 128.667 -23.001 225.334 -69.001 290.001s-113.333 97 -202 97c-85.333 0 -149.833 -32.333 -193.5 -97s-65.5 -161.334 -65.5 -290.001v-403
c0 -130.667 21.833 -228.334 65.5 -293.001s108.5 -97 194.5 -97c88.667 0 155.834 32.333 201.501 97s68.5 162.334 68.5 293.001v403z" />
    <glyph glyph-name="R" unicode="R" horiz-adv-x="1107" 
d="M338 627l-0.000976562 -627.001h-201v1455h443c133.333 0 234 -34.667 302 -104s102 -172.333 102 -309c0 -78.667 -17.667 -145.834 -53 -201.501s-86.333 -99.5 -153 -131.5c70.667 -25.333 120.834 -66.666 150.501 -123.999s44.5 -130.666 44.5 -219.999v-127
c0 -45.333 4.16699 -86.5 12.5 -123.5s22.833 -66.833 43.5 -89.5v-25h-206c-22 22.667 -36 55.834 -42 99.501s-9 90.5 -9 140.5v123c0 83.333 -16.167 148.166 -48.5 194.499s-78.833 69.5 -139.5 69.5h-246zM337.999 781.999l223.001 -0.000976562
c77.333 0 133.666 21.833 168.999 65.5s53 106.834 53 189.501c0 85.333 -16.667 150.5 -50 195.5s-86.333 67.5 -159 67.5h-236v-518z" />
    <glyph glyph-name="S" unicode="S" horiz-adv-x="1044" 
d="M766 366c0 70 -17.5029 126.503 -52.5029 169.503s-98.167 81.5 -189.5 115.5c-134.667 42.667 -236.667 97.167 -306 163.5s-104 156.166 -104 269.499c0 117.333 38.667 212.166 116 284.499s179.333 108.5 306 108.5c130.667 0 235 -42 313 -126s117 -189 117 -315
h-201c0 86.667 -19.667 156 -59 208s-96.666 78 -171.999 78c-71.333 0 -125.666 -21.833 -162.999 -65.5s-56 -100.5 -56 -170.5c0 -63.333 20.167 -115.666 60.5 -156.999s108.5 -79.666 204.5 -114.999c129.333 -42 226 -97.833 290 -167.5s96 -162.5 96 -278.5
c0 -122 -38.333 -217.333 -115 -286s-180 -103 -310 -103c-126.667 0 -235.667 38.167 -327 114.5s-137 187.166 -137 332.499h201c0 -102.667 23.667 -177.334 71 -224.001s111.333 -70 192 -70c72.667 0 128.334 20.667 167.001 62s58 98.666 58 171.999z" />
    <glyph glyph-name="T" unicode="T" horiz-adv-x="1010" 
d="M958 1300h-354v-1300h-199v1300h-353v156h906v-156z" />
    <glyph glyph-name="U" unicode="U" horiz-adv-x="1113" 
d="M1002 1456v-1009c0 -154 -40.667 -270.5 -122 -349.5s-190 -118.5 -326 -118.5c-134 0 -240.833 39.5 -320.5 118.5s-119.5 195.5 -119.5 349.5v1009h198v-1009c0 -106 21.5 -184.833 64.5 -236.5s102.167 -77.5 177.5 -77.5c78.667 0 139.667 24.833 183 74.5
s65 129.5 65 239.5v1009h200z" />
    <glyph glyph-name="V" unicode="V" horiz-adv-x="1086" 
d="M521 322l21 -88h3l20 87l276 1135h213l-415 -1456h-193l-415 1456h214z" />
    <glyph glyph-name="W" unicode="W" horiz-adv-x="1419" 
d="M1000 433h3l155 1023h194l-248 -1456h-180l-214 1021h-3l-214 -1021h-180l-248 1456h194l157 -1026h3l212 1026h155z" />
    <glyph glyph-name="X" unicode="X" horiz-adv-x="1069" 
d="M531 881l244 575h236l-359 -721l374 -735h-241l-251 588l-251 -588h-237l367 735l-358 721h235z" />
    <glyph glyph-name="Y" unicode="Y" horiz-adv-x="1026" 
d="M513 761l266 695h222l-392 -931v-525h-198v540l-386 916h222z" />
    <glyph glyph-name="Z" unicode="Z" horiz-adv-x="970" 
d="M290 154h608v-154h-819v125l587 1176h-583v155h796v-121z" />
    <glyph glyph-name="bracketleft" unicode="[" horiz-adv-x="492" 
d="M463 1519h-138v-1686h138v-152h-340v1991h340v-153z" />
    <glyph glyph-name="backslash" unicode="\" horiz-adv-x="713" 
d="M27 1456h195l489 -1581h-195z" />
    <glyph glyph-name="bracketright" unicode="]" horiz-adv-x="492" 
d="M21 1672h342v-1991h-342v152h139v1686h-139v153z" />
    <glyph glyph-name="asciicircum" unicode="^" horiz-adv-x="731" 
d="M222 729h-168l240 727h142l240 -727h-167l-134 444l-10 50h-3l-10 -50z" />
    <glyph glyph-name="underscore" unicode="_" horiz-adv-x="765" 
d="M750 -152h-736v152h736v-152z" />
    <glyph glyph-name="grave" unicode="`" horiz-adv-x="575" 
d="M463 1211h-165l-224 266h230z" />
    <glyph glyph-name="a" unicode="a" horiz-adv-x="918" 
d="M635 0c-6.66699 24.667 -12.334 48.167 -17.001 70.5s-8 44.166 -10 65.499l-2 1c-28 -46 -62.667 -83.667 -104 -113s-87.666 -44 -138.999 -44c-89.333 0 -158.166 28.167 -206.499 84.5s-72.5 133.833 -72.5 232.5c0 105.333 32.833 187 98.5 245s160.167 87 283.5 87
h139v111c0 67.333 -13.167 119.166 -39.5 155.499s-64.5 54.5 -114.5 54.5c-46 0 -82 -16.167 -108 -48.5s-39 -74.5 -39 -126.5l-201 1c0 88.667 33 165.167 99 229.5s153.333 96.5 262 96.5c103.333 0 186.166 -30.833 248.499 -92.5s93.5 -152.167 93.5 -271.5v-502
c0 -41.333 2.5 -81.166 7.5 -119.499s12.833 -77.166 23.5 -116.499h-202zM409 136c44 0 83.333 13.167 118 39.5s60.667 60.166 78 101.499v226h-142c-58 0 -102.333 -19.667 -133 -59s-46 -88 -46 -146c0 -49.333 10.667 -88.666 32 -117.999s52.333 -44 93 -44z" />
    <glyph glyph-name="b" unicode="b" 
d="M879 451c0 -146 -28.8311 -261 -86.498 -345s-141.5 -126 -251.5 -126c-54.667 0 -101.334 11.833 -140.001 35.5s-71.334 58.5 -98.001 104.5l-3 -1l-13 -119h-174v1560h200v-583h3c25.333 40.667 56.333 71.667 93 93s80 32 130 32c111.333 0 195.833 -45 253.5 -135
s86.5 -213 86.5 -369v-147zM679.002 598c0 106 -14.8359 190.167 -44.5029 252.5s-78.5 93.5 -146.5 93.5c-42.667 0 -78.167 -13 -106.5 -39s-51.166 -62 -68.499 -108v-524c16.667 -43.333 39.334 -76.833 68.001 -100.5s65 -35.5 109 -35.5
c68.667 0 117.334 27.5 146.001 82.5s43 132.167 43 231.5v147z" />
    <glyph glyph-name="c" unicode="c" horiz-adv-x="891" 
d="M471 133c48 0 89 19.3311 123 57.998s49.667 91.667 47 159h188c2.66699 -106.667 -31.333 -195 -102 -265s-155 -105 -253 -105c-131.333 0 -230.333 44.833 -297 134.5s-100 206.5 -100 350.5v149c0 144 33.5 261.333 100.5 352s165.5 136 295.5 136
c108.667 0 195.667 -36.167 261 -108.5s97 -170.166 95 -293.499h-188c2 74.667 -12.5 134.334 -43.5 179.001s-73.167 67 -126.5 67c-73.333 0 -123.833 -30.5 -151.5 -91.5s-41.5 -141.167 -41.5 -240.5v-149c0 -101.333 13.667 -182 41 -242s78 -90 152 -90z" />
    <glyph glyph-name="d" unicode="d" 
d="M77 528c0 176.667 29.3311 316.5 87.998 419.5s143 154.5 253 154.5c47.333 0 88.833 -10.333 124.5 -31s66.834 -50.667 93.501 -90l3 1v578h201v-1560h-175l-14 115l-3 1c-27.333 -44.667 -60 -78.5 -98 -101.5s-82.667 -34.5 -134 -34.5
c-109.333 0 -193.166 47.167 -251.499 141.5s-87.5 222.833 -87.5 385.5v21zM276.998 507c0 -116 14.832 -206.667 44.499 -272s77.834 -98 144.501 -98c40.667 0 75 11.167 103 33.5s51.333 54.5 70 96.5v538c-18.667 44 -42 78.167 -70 102.5s-61.667 36.5 -101 36.5
c-66.667 0 -115.167 -37.667 -145.5 -113s-45.5 -176.333 -45.5 -303v-21z" />
    <glyph glyph-name="e" unicode="e" horiz-adv-x="894" 
d="M477 -20c-122 0 -218.667 43.833 -290 131.5s-107 202.5 -107 344.5v158c0 144 35.333 261.333 106 352s162.667 136 276 136c120 0 211 -41.167 273 -123.5s93 -195.5 93 -339.5v-140h-547v-43c0 -96 17.333 -173.833 52 -233.5s87 -89.5 157 -89.5
c64 0 115.167 9 153.5 27s71.5 43.667 99.5 77l57 -130c-32.667 -39.333 -76.167 -70.333 -130.5 -93s-118.5 -34 -192.5 -34zM462 946c-54.667 0 -97.667 -28 -129 -84s-48.666 -128.667 -51.999 -218h349v41c0 78 -13.833 141 -41.5 189s-69.834 72 -126.501 72z" />
    <glyph glyph-name="f" unicode="f" horiz-adv-x="604" 
d="M181 0l0.000976562 937.002h-131v145h131v139c0 117.333 26 206.666 78 267.999s126.667 92 224 92c19.333 0 38.5 -1.83301 57.5 -5.5s40.5 -8.83398 64.5 -15.501l-20 -149c-10.667 3.33301 -22.334 6 -35.001 8s-27 3 -43 3c-42.667 0 -74.167 -17 -94.5 -51
s-30.5 -84 -30.5 -150v-139h176v-145h-176v-937h-201z" />
    <glyph glyph-name="g" unicode="g" horiz-adv-x="956" 
d="M78 584c0 158.667 29.502 284.664 88.502 377.997s143.833 140 254.5 140c52 0 97 -12.167 135 -36.5s70.333 -59.166 97 -104.499l3 1l14 120h173v-1077c0 -141.333 -34.333 -250.166 -103 -326.499s-166.667 -114.5 -294 -114.5c-46 0 -93.5 7.16699 -142.5 21.5
s-94.833 34.5 -137.5 60.5l42 141c36 -21.333 73 -38.333 111 -51s77.333 -19 118 -19c70.667 0 122.5 24.5 155.5 73.5s49.5 120.833 49.5 215.5v88l-3 1c-26.667 -38 -57.834 -66.667 -93.501 -86s-77.834 -29 -126.501 -29c-109.333 0 -193.5 42.333 -252.5 127
s-88.5 199.334 -88.5 344.001v133zM279.002 450.997c0 -97.333 15 -174.001 45 -230.001s78.667 -84 146 -84c41.333 0 75.833 10.667 103.5 32s50.5 52.666 68.5 93.999v546c-18 42.667 -41 75.834 -69 99.501s-61.667 35.5 -101 35.5c-67.333 0 -116.333 -32.667 -147 -98
s-46 -152.666 -46 -261.999v-133z" />
    <glyph glyph-name="h" unicode="h" 
d="M311 954l2.99902 -1c28 46.667 62.167 83.167 102.5 109.5s85.833 39.5 136.5 39.5c94 0 166.333 -35.167 217 -105.5s76 -181.833 76 -334.5v-662h-200v664c0 102 -13.167 174.167 -39.5 216.5s-67.166 63.5 -122.499 63.5c-37.333 0 -70.5 -11.167 -99.5 -33.5
s-53.5 -53.5 -73.5 -93.5v-817h-201v1560h201v-606z" />
    <glyph glyph-name="i" unicode="i" horiz-adv-x="453" 
d="M326 0h-200v1082h200v-1082zM326 1366h-200v194h200v-194z" />
    <glyph glyph-name="j" unicode="j" horiz-adv-x="456" 
d="M334 1082l-0.00292969 -1156c0 -118 -24.667 -208 -74 -270s-119.666 -93 -210.999 -93c-20 0 -37.5 1.5 -52.5 4.5s-31.833 7.5 -50.5 13.5l11 155c10.667 -4 22.334 -7.33301 35.001 -10s25 -4 37 -4c32.667 0 58.334 16.5 77.001 49.5s28 84.5 28 154.5v1156h200z
M328.997 1369h-200v191h200v-191z" />
    <glyph glyph-name="k" unicode="k" horiz-adv-x="889" 
d="M396 496h-82v-496h-200v1560h200v-909h81l215 431h234l-291 -488l328 -594h-233z" />
    <glyph glyph-name="l" unicode="l" horiz-adv-x="453" 
d="M326 0h-200v1560h200v-1560z" />
    <glyph glyph-name="m" unicode="m" horiz-adv-x="1455" 
d="M296 1082l11 -133l3 -1c27.333 49.333 61.833 87.333 103.5 114s91.5 40 149.5 40c56 0 103.833 -15.167 143.5 -45.5s70.167 -77.5 91.5 -141.5c27.333 59.333 62.666 105.333 105.999 138s95.333 49 156 49c88.667 0 157.834 -36.333 207.501 -109s74.5 -186 74.5 -340
v-653h-201v654c0 109.333 -12.333 185 -37 227s-62 63 -112 63c-42 -0.666992 -76.833 -16.667 -104.5 -48s-48.5 -73 -62.5 -125l2 -38c0.666992 -12.667 1 -25.667 1 -39v-694h-201v659c0 104 -12.333 177.5 -37 220.5s-62.334 64.5 -113.001 64.5
c-38.667 0 -71.167 -11 -97.5 -33s-48.166 -53 -65.499 -93v-818h-201v1082h183z" />
    <glyph glyph-name="n" unicode="n" 
d="M295 1082l11.001 -146h3c27.333 52.667 62.166 93.5 104.499 122.5s90.833 43.5 145.5 43.5c92 0 162.833 -33.833 212.5 -101.5s74.5 -175.834 74.5 -324.501v-676h-201v674c0 100.667 -12.833 170.834 -38.5 210.501s-66.5 59.5 -122.5 59.5
c-38 0 -71.333 -12 -100 -36s-52.667 -57.333 -72 -100v-808h-201v1082h184z" />
    <glyph glyph-name="o" unicode="o" 
d="M77 609c0 146.667 35.001 265.5 105.001 356.5s168.333 136.5 295 136.5c127.333 0 226 -45.5 296 -136.5s105 -209.833 105 -356.5v-138c0 -148 -34.833 -266.833 -104.5 -356.5s-167.834 -134.5 -294.501 -134.5c-128 0 -227 45 -297 135s-105 208.667 -105 356v138z
M278.001 471c0 -101.333 16.001 -183 48.001 -245s83 -93 153 -93c68 0 118.167 31.167 150.5 93.5s48.5 143.833 48.5 244.5v138c0 100 -16.333 181.167 -49 243.5s-83.334 93.5 -152.001 93.5c-69.333 0 -119.833 -31.167 -151.5 -93.5s-47.5 -143.5 -47.5 -243.5v-138z
" />
    <glyph glyph-name="p" unicode="p" 
d="M878 451c0 -145.333 -29.166 -260.167 -87.499 -344.5s-141.833 -126.5 -250.5 -126.5c-50 0 -93.333 9.83301 -130 29.5s-68 48.5 -94 86.5l-3 -1v-511h-200v1498h180l11 -115l2 -1c26.667 44 59 77.667 97 101s83.333 35 136 35
c109.333 0 193.166 -46.5 251.499 -139.5s87.5 -219.167 87.5 -378.5v-133zM678.001 583.999c0 108.667 -15.8359 195.834 -47.5029 261.501s-80.834 98.5 -147.501 98.5c-41.333 0 -75.666 -12 -102.999 -36s-49.666 -57.667 -66.999 -101v-549
c16.667 -40.667 38.834 -71.667 66.501 -93s62.834 -32 105.501 -32c66.667 0 115.5 28.667 146.5 86s46.5 134.666 46.5 231.999v133z" />
    <glyph glyph-name="q" unicode="q" 
d="M77 584c0 158.667 29.3311 284.668 87.998 378.001s143 140 253 140c50 0 93.333 -11.167 130 -33.5s68.334 -54.5 95.001 -96.5h3l14 110h174v-1498h-201v503l-3 1c-26 -36 -56.5 -63 -91.5 -81s-75.833 -27 -122.5 -27c-109.333 0 -193.166 42.167 -251.499 126.5
s-87.5 199.166 -87.5 344.499v133zM276.998 451.001c0 -98 14.833 -175.5 44.5 -232.5s77.834 -85.5 144.501 -85.5c40 0 73.333 10 100 30s49 49.333 67 88v570c-18 40 -40.333 70.833 -67 92.5s-59.334 32.5 -98.001 32.5c-66.667 0 -115.167 -33 -145.5 -99
s-45.5 -153.667 -45.5 -263v-133z" />
    <glyph glyph-name="r" unicode="r" horiz-adv-x="613" 
d="M559 911l-93 5c-38 0 -69.333 -11.833 -94 -35.5s-44 -57.834 -58 -102.501v-778h-201v1082h184l13 -151h3c21.333 54 48.5 96 81.5 126s72.167 45 117.5 45c12.667 0 25.5 -1.16699 38.5 -3.5s23.833 -5.16602 32.5 -8.49902z" />
    <glyph glyph-name="s" unicode="s" horiz-adv-x="859" 
d="M590 271c0 42.667 -12.5 78.1641 -37.5 106.497s-73.833 60.166 -146.5 95.499c-108 44 -187.167 89.833 -237.5 137.5s-75.5 111.5 -75.5 191.5c0 84.667 31 155.834 93 213.501s145 86.5 249 86.5c108 0 193.333 -31.333 256 -94s94 -143.334 94 -242.001h-200
c0 52.667 -13 97.167 -39 133.5s-63 54.5 -111 54.5c-47.333 0 -83.666 -14.167 -108.999 -42.5s-38 -62.166 -38 -101.499c0 -42 10.833 -74.667 32.5 -98s70.5 -54.666 146.5 -93.999c110 -41.333 190.667 -87.166 242 -137.499s77 -116.833 77 -199.5
c0 -91.333 -31.833 -164.333 -95.5 -219s-149.5 -82 -257.5 -82c-116.667 0 -207.334 33.5 -272.001 100.5s-97 148.167 -97 243.5h194c2 -71.333 19.5 -122.166 52.5 -152.499s74.833 -45.5 125.5 -45.5c49.333 0 87.333 13.333 114 40s40 61.667 40 105z" />
    <glyph glyph-name="t" unicode="t" horiz-adv-x="564" 
d="M352 1351l0.00292969 -269h156v-145h-156v-644c0 -57.333 6.66699 -97.333 20 -120s31.333 -34 54 -34c13.333 0 25.666 1 36.999 3s22.666 4.66699 33.999 8l21 -139c-18 -9.33301 -39.5 -16.833 -64.5 -22.5s-50.833 -8.5 -77.5 -8.5
c-72.667 0 -128.334 24.5 -167.001 73.5s-58 128.833 -58 239.5v644h-119v145h119v269h201z" />
    <glyph glyph-name="u" unicode="u" 
d="M654 138h-2.00293c-27.333 -51.333 -61.666 -90.5 -102.999 -117.5s-89.333 -40.5 -144 -40.5c-94.667 0 -167.667 36.833 -219 110.5s-77 191.167 -77 352.5v639h200v-641c0 -113.333 11.667 -192.333 35 -237s60 -67 110 -67c46.667 0 85.334 11.167 116.001 33.5
s55.334 54.833 74.001 97.5v814h200v-1082h-177z" />
    <glyph glyph-name="v" unicode="v" horiz-adv-x="860" 
d="M416 325l16 -86h3l17 86l169 757h207l-306 -1082h-178l-308 1082h208z" />
    <glyph glyph-name="w" unicode="w" horiz-adv-x="1252" 
d="M364 363l6 -52h3l7 51l172 720h143l172 -719l9 -69h3l10 73l125 715h192l-234 -1082h-166l-167 699l-14 79h-4l-14 -79l-165 -699h-166l-235 1082h191z" />
    <glyph glyph-name="x" unicode="x" horiz-adv-x="860" 
d="M427 680l158 402h229l-271 -534l281 -548h-228l-166 415l-165 -415h-228l280 548l-272 534h227z" />
    <glyph glyph-name="y" unicode="y" horiz-adv-x="860" 
d="M405 373l14 -65h3l193 774h220l-360 -1250c-22.667 -74 -54.5 -137.333 -95.5 -190s-101.5 -79 -181.5 -79c-17.333 0 -34.5 1.66699 -51.5 5s-35.5 7.66602 -55.5 12.999l22 150c7.33301 -1.33301 16.833 -2.66602 28.5 -3.99902s20.834 -2 27.501 -2
c38 0 65.667 12.5 83 37.5s35.666 69.167 54.999 132.5l33 110l-316 1077h218z" />
    <glyph glyph-name="z" unicode="z" horiz-adv-x="835" 
d="M294 154h470v-154h-686v128l448 797h-440v157h660v-126z" />
    <glyph glyph-name="braceleft" unicode="{" horiz-adv-x="575" 
d="M498 -379c-106 37.333 -180.499 95.1719 -223.499 173.505s-64.5 175.166 -64.5 290.499v212c0 76 -12.5 134.667 -37.5 176s-63.833 62 -116.5 62v146c53.333 0 92.333 20.167 117 60.5s37 98.833 37 175.5v215c0 116 21.5 213.167 64.5 291.5
s117.5 136.166 223.5 173.499l40 -114c-52.667 -24.667 -89.334 -66.5 -110.001 -125.5s-31 -134.167 -31 -225.5v-215c0 -72 -12.5 -134.333 -37.5 -187s-63.833 -93.334 -116.5 -122.001c52.667 -30 91.5 -71.5 116.5 -124.5s37.5 -115.167 37.5 -186.5v-212
c0 -90.667 10.5 -165.334 31.5 -224.001s57.833 -100.334 110.5 -125.001z" />
    <glyph glyph-name="bar" unicode="|" horiz-adv-x="438" 
d="M287 -270h-136v1726h136v-1726z" />
    <glyph glyph-name="braceright" unicode="}" horiz-adv-x="575" 
d="M34 -264c52.667 24.667 89.5 66.3301 110.5 124.997s31.5 133.334 31.5 224.001v212c0 73.333 13 136.333 39 189s67 93 123 121c-56 27.333 -97 67.333 -123 120s-39 116 -39 190v215c0 91.333 -10.5 166.5 -31.5 225.5s-57.5 100.833 -109.5 125.5l39 114
c106 -37.333 180.667 -95 224 -173s65 -175.333 65 -292v-215c0 -76.667 12.167 -135.167 36.5 -175.5s63.5 -60.5 117.5 -60.5v-146c-53.333 0 -92.333 -20.667 -117 -62s-37 -100 -37 -176v-212c0 -115.333 -21.667 -212.166 -65 -290.499s-118 -136.166 -224 -173.499z
" />
    <glyph glyph-name="asciitilde" unicode="~" horiz-adv-x="1114" 
d="M1009 745c0 -96 -23.332 -177.167 -69.999 -243.5s-106 -99.5 -178 -99.5c-47.333 0 -89.833 11 -127.5 33s-79.167 58.333 -124.5 109c-30 34 -56.333 58.833 -79 74.5s-46.667 23.5 -72 23.5c-32.667 0 -59.667 -18.333 -81 -55s-32 -83.667 -32 -141l-140 20
c0 96 22.833 176.167 68.5 240.5s105.167 96.5 178.5 96.5c46 0 88.667 -11.667 128 -35s81.333 -58.666 126 -105.999c28.667 -36 54 -61.333 76 -76s46 -22 72 -22c31.333 0 58.166 19.167 80.499 57.5s33.5 86.166 33.5 143.499z" />
    <glyph glyph-name="nonbreakingspace" unicode="&#xa0;" horiz-adv-x="433" 
 />
    <glyph glyph-name="exclamdown" unicode="&#xa1;" horiz-adv-x="465" 
d="M328 -374h-201v970h201v-970zM328 869h-201v213h201v-213z" />
    <glyph glyph-name="cent" unicode="&#xa2;" horiz-adv-x="953" 
d="M490 133c48 0 89 19.3301 123 57.9971s49.667 91.667 47 159h188c2 -92 -23.833 -171 -77.5 -237s-121.5 -107.667 -203.5 -125v-233h-161v234c-103.333 20 -180.833 72.833 -232.5 158.5s-77.5 191.5 -77.5 317.5v149c0 126 26 232.167 78 318.5
s129.333 139.833 232 160.5v225h161v-223c88 -17.333 157.333 -60.666 208 -129.999s75 -157.666 73 -264.999h-188c2 74.667 -12.5 134.334 -43.5 179.001s-73.167 67 -126.5 67c-73.333 0 -123.833 -30.5 -151.5 -91.5s-41.5 -141.167 -41.5 -240.5v-149
c0 -101.333 13.667 -182 41 -242s78 -90 152 -90z" />
    <glyph glyph-name="sterling" unicode="&#xa3;" horiz-adv-x="994" 
d="M410 618l5 -141.002c0 -63.333 -7.5 -122.666 -22.5 -177.999s-36.833 -103.666 -65.5 -144.999h597l-1 -154h-794v154h8c26 8.66699 45.333 46 58 112s19 135 19 207l-5 145h-130v154h125l-8 264c0 140 30.833 248.5 92.5 325.5s146.167 115.5 253.5 115.5
c114 0 201.333 -35.333 262 -106s91 -167 91 -289h-201c0 83.333 -14 144 -42 182s-64.667 57 -110 57c-46 0 -81.667 -24.5 -107 -73.5s-38 -119.5 -38 -211.5l8 -264h308v-154h-303z" />
    <glyph glyph-name="currency" unicode="&#xa4;" horiz-adv-x="1231" 
d="M924 110c-44.667 -42.667 -92.498 -74.999 -143.498 -96.999s-105.167 -33 -162.5 -33c-58 0 -112.333 10.667 -163 32s-98 53 -142 95l-109 -133l-115 118l122 148c-30.667 52.667 -53.834 109.667 -69.501 171s-23.5 127 -23.5 197c0 72 8.33301 139.667 25 203
s41.667 122 75 176l-129 157l115 120l120 -147c42.667 38 88.5 67 137.5 87s101.167 30 156.5 30s107.666 -10.167 156.999 -30.5s95.333 -49.833 138 -88.5l124 150l114 -121l-132 -160c32 -54 56.333 -112.333 73 -175s25 -129.667 25 -201
c0 -69.333 -7.83301 -134.333 -23.5 -195s-38.167 -117.334 -67.5 -170.001l125 -151l-114 -119zM268.002 608.001c0 -134.667 33.667 -247.5 101 -338.5s150.333 -136.5 249 -136.5c98 0 180.667 45.5 248 136.5s101 203.833 101 338.5c0 133.333 -33.667 245.333 -101 336
s-150 136 -248 136c-98.667 0 -181.667 -45.333 -249 -136s-101 -202.667 -101 -336z" />
    <glyph glyph-name="yen" unicode="&#xa5;" horiz-adv-x="1028" 
d="M511 828l256 628h223l-331 -730h232v-122h-282v-170h282v-120h-282v-314h-201v314h-286v120h286v170h-286v122h242l-331 730h223z" />
    <glyph glyph-name="brokenbar" unicode="&#xa6;" horiz-adv-x="433" 
d="M121 -270v784h187v-784h-187zM308 698h-187v758h187v-758z" />
    <glyph glyph-name="section" unicode="&#xa7;" horiz-adv-x="1049" 
d="M950 444c0 -63.333 -13.668 -117.331 -41.001 -161.998s-66.666 -80.667 -117.999 -108c44.667 -34.667 77.667 -74.667 99 -120s32 -102.666 32 -171.999c0 -116.667 -36.167 -206.834 -108.5 -270.501s-171.833 -95.5 -298.5 -95.5c-124 0 -226.667 33.333 -308 100
s-122 176 -122 328l200 2c0 -98 22 -168.333 66 -211s98.667 -64 164 -64c66 0 117 19.167 153 57.5s54 88.833 54 151.5c0 60.667 -17.333 107.5 -52 140.5s-102.334 69.167 -203.001 108.5c-132.667 43.333 -229.167 94.5 -289.5 153.5s-90.5 146.833 -90.5 263.5
c0 62 13.167 115.667 39.5 161s65.166 82 116.499 110c-43.333 34 -75.333 74 -96 120s-31 103.333 -31 172c0 113.333 36.167 203 108.5 269s171.833 99 298.5 99c130.667 0 231.5 -36.667 302.5 -110s106.5 -180 106.5 -320h-199c0 80 -18.167 145.667 -54.5 197
s-88.166 77 -155.499 77c-70 0 -122 -19.333 -156 -58s-51 -89.334 -51 -152.001c0 -66 16 -115.167 48 -147.5s100.333 -67.833 205 -106.5c134.667 -44.667 231.834 -95.834 291.501 -153.501s89.5 -144.167 89.5 -259.5zM494.999 697.002
c-21.333 6 -41.335 12.498 -60.002 19.498s-37 14.5 -55 22.5c-32 -15.333 -55.333 -38.666 -70 -69.999s-22 -69 -22 -113c0 -68.667 15.833 -119.667 47.5 -153s99.834 -70.333 204.501 -111l57 -20.5l52 -19.5c32.667 14.667 57.834 37.834 75.501 69.501
s26.5 69.167 26.5 112.5c0 62.667 -17.5 111.667 -52.5 147s-102.833 74 -203.5 116z" />
    <glyph glyph-name="dieresis" unicode="&#xa8;" horiz-adv-x="907" 
d="M757 1271h-202v185h202v-185zM349 1271h-201v185h201v-185z" />
    <glyph glyph-name="copyright" unicode="&#xa9;" horiz-adv-x="1374" 
d="M951 596c0 -105.333 -24.333 -184 -73 -236s-117.667 -78 -207 -78c-91.333 0 -162.833 34.833 -214.5 104.5s-77.5 163.834 -77.5 282.501v119c0 117.333 25.833 211.166 77.5 281.499s123.167 105.5 214.5 105.5c89.333 0 158.5 -26.333 207.5 -79s73.5 -131 73.5 -235
h-127c0 69.333 -12.667 119.666 -38 150.999s-64 47 -116 47c-54.667 0 -96.167 -24.667 -124.5 -74s-42.5 -114.666 -42.5 -195.999v-120c0 -84 14.167 -150.333 42.5 -199s69.833 -73 124.5 -73c52 0 90.5 15.333 115.5 46s37.5 81.667 37.5 153h127zM186 729
c0 -184 47.5 -337.167 142.5 -459.5s212.833 -183.5 353.5 -183.5c140 0 257.667 61.167 353 183.5s143 275.5 143 459.5c0 182.667 -47.667 334.667 -143 456s-213 182 -353 182c-140.667 0 -258.5 -60.667 -353.5 -182s-142.5 -273.333 -142.5 -456zM87 729
c0 214 56.833 392.002 170.5 534.002s255.167 213 424.5 213c168 0 309.333 -71 424 -213s172 -320 172 -534c0 -214.667 -57.333 -393.334 -172 -536.001s-256 -214 -424 -214c-168.667 0 -310 71.167 -424 213.5s-171 321.166 -171 536.499z" />
    <glyph glyph-name="ordfeminine" unicode="&#xaa;" horiz-adv-x="758" 
d="M501 706c-4.66699 14.667 -8.50293 30.167 -11.5029 46.5s-5.16699 32.5 -6.5 48.5h-2c-17.333 -32 -40.5 -58.167 -69.5 -78.5s-64.5 -30.5 -106.5 -30.5c-64.667 0 -114.167 20 -148.5 60s-51.5 96 -51.5 168c0 73.333 22.333 129.333 67 168s111.334 58 200.001 58
h109v56c0 48.667 -7.66699 85.667 -23 111s-38.666 38 -69.999 38c-36.667 0 -64.5 -10.167 -83.5 -30.5s-28.5 -50.166 -28.5 -89.499l-138 13c0 69.333 22.5 125.5 67.5 168.5s105.833 64.5 182.5 64.5c72.667 0 129.834 -23.333 171.501 -70s62.5 -115.334 62.5 -206.001
v-314c0 -35.333 1.33301 -67.333 4 -96s8 -57 16 -85h-141zM339.997 814c27.333 0 55.168 10.668 83.501 32.001s47.5 45.666 57.5 72.999v124h-109c-41.333 0 -73 -11.333 -95 -34s-33 -51 -33 -85c0 -36 7.66699 -63.333 23 -82s39.666 -28 72.999 -28z" />
    <glyph glyph-name="guillemotleft" unicode="&#xab;" horiz-adv-x="827" 
d="M247 517l198 -394h-137l-230 385v19l230 384h137zM542 517l198 -394h-137l-230 385v19l230 384h137z" />
    <glyph glyph-name="logicalnot" unicode="&#xac;" horiz-adv-x="934" 
d="M785 378h-160v271h-511v143h671v-414z" />
    <glyph glyph-name="uni00AD" unicode="&#xad;" horiz-adv-x="581" 
d="M501 552h-427v154h427v-154z" />
    <glyph glyph-name="registered" unicode="&#xae;" horiz-adv-x="1374" 
d="M86 729c0 214 57 392.002 171 534.002s255.667 213 425 213c168 0 309.333 -71 424 -213s172 -320 172 -534c0 -214.667 -57.333 -393.334 -172 -536.001s-256 -214 -424 -214c-168.667 0 -310.167 71.167 -424.5 213.5s-171.5 321.166 -171.5 536.499zM186 729.002
c0 -184 47.5 -337.167 142.5 -459.5s212.833 -183.5 353.5 -183.5c139.333 0 256.666 61.167 351.999 183.5s143 275.5 143 459.5c0 182 -47.667 333.833 -143 455.5s-212.666 182.5 -351.999 182.5c-140.667 0 -258.5 -60.667 -353.5 -182s-142.5 -273.333 -142.5 -456z
M560 660.002v-343.998h-123v850h234c86 0 152.833 -21.5 200.5 -64.5s71.5 -106.5 71.5 -190.5c0 -42.667 -9.16699 -79.334 -27.5 -110.001s-45.833 -56.334 -82.5 -77.001c37.333 -18 64.333 -44.667 81 -80s25 -78.333 25 -129v-56c0 -28.667 1 -53.5 3 -74.5
s6 -38.5 12 -52.5v-16h-127c-5.33301 14.667 -8.5 35.167 -9.5 61.5s-1.5 53.833 -1.5 82.5v54c0 52 -9.16699 89.333 -27.5 112s-49.5 34 -93.5 34h-135zM560 776.004l121 -0.000976562c40 0 73.167 11.333 99.5 34s39.5 55.334 39.5 98.001
c0 52.667 -10.833 89.667 -32.5 111s-60.5 32 -116.5 32h-111v-275z" />
    <glyph glyph-name="macron" unicode="&#xaf;" horiz-adv-x="851" 
d="M732 1324h-607v132h607v-132z" />
    <glyph glyph-name="macron" unicode="&#x2c9;" horiz-adv-x="851" 
d="M732 1324h-607v132h607v-132z" />
    <glyph glyph-name="degree" unicode="&#xb0;" horiz-adv-x="680" 
d="M119 1216c0 72 21.499 133.5 64.499 184.5s95.5 76.5 157.5 76.5c60.667 0 112.334 -25.5 155.001 -76.5s64 -112.5 64 -184.5c0 -73.333 -21.167 -134.5 -63.5 -183.5s-94.166 -73.5 -155.499 -73.5c-62.667 0 -115.334 24.5 -158.001 73.5s-64 110.167 -64 183.5z
M233.999 1216c0 -40 10.333 -73.001 31 -99.001s46 -39 76 -39s55 12.833 75 38.5s30 58.834 30 99.501s-10 74.334 -30 101.001s-45 40 -75 40s-55.333 -13.333 -76 -40s-31 -60.334 -31 -101.001z" />
    <glyph glyph-name="plusminus" unicode="&#xb1;" horiz-adv-x="946" 
d="M570 873h289v-157h-289v-414h-179v414h-301v157h301v407h179v-407zM789 21h-672v155h672v-155z" />
    <glyph glyph-name="twosuperior" unicode="&#xb2;" horiz-adv-x="720" 
d="M598 667l-489 0.000976562v121l246 267c34.667 40.667 57.167 73.667 67.5 99s15.5 53.333 15.5 84c0 36 -6.83301 64.667 -20.5 86s-35.167 32 -64.5 32c-32.667 0 -57.334 -11.5 -74.001 -34.5s-25 -53.5 -25 -91.5h-155c0 71.333 23 130.666 69 177.999
s108.333 71 187 71c76.667 0 135.5 -20.667 176.5 -62s61.5 -101.333 61.5 -180c0 -53.333 -13.667 -100.333 -41 -141s-72.666 -93.667 -135.999 -159l-116 -149h298v-121z" />
    <glyph glyph-name="threesuperior" unicode="&#xb3;" horiz-adv-x="721" 
d="M347 1130c35.333 0 61.001 9.83301 77.001 29.5s24 48.167 24 85.5c0 32.667 -8.33301 59.167 -25 79.5s-41.667 30.5 -75 30.5c-29.333 0 -52.166 -9 -68.499 -27s-24.5 -42.333 -24.5 -73h-155c0 68.667 23 123 69 163s105 60 177 60
c81.333 0 144.666 -19.333 189.999 -58s68 -95.334 68 -170.001c0 -38 -9.5 -72.167 -28.5 -102.5s-45.833 -54.166 -80.5 -71.499c39.333 -16 69.166 -39.5 89.499 -70.5s30.5 -70.167 30.5 -117.5c0 -75.333 -23.667 -133 -71 -173s-112 -60 -194 -60
c-75.333 0 -137.666 19.5 -186.999 58.5s-74 98.167 -74 177.5h155c0 -35.333 9.16699 -63.333 27.5 -84s44.166 -31 77.499 -31c34.667 0 61.667 10.167 81 30.5s29 48.833 29 85.5c0 43.333 -9.16699 75 -27.5 95s-46.5 30 -84.5 30h-97v113h97z" />
    <glyph glyph-name="acute" unicode="&#xb4;" horiz-adv-x="600" 
d="M273 1478h230l-234 -266h-158z" />
    <glyph glyph-name="mu" unicode="&#xb5;" horiz-adv-x="1004" 
d="M329 1082l-0.000976562 -626c0 -126 13 -211.167 39 -255.5s65 -66.5 117 -66.5c46.667 0 84.5 11.5 113.5 34.5s51.5 57.167 67.5 102.5v811h200v-1082h-184l-6 79l-3 1c-22.667 -33.333 -49.667 -58.5 -81 -75.5s-67 -25.5 -107 -25.5
c-33.333 0 -62.666 4.66699 -87.999 14s-48 25 -68 47v-456h-200v1498h200z" />
    <glyph glyph-name="paragraph" unicode="&#xb6;" horiz-adv-x="865" 
d="M525 0v519.999h-67c-127.333 0 -225.166 42.5 -293.499 127.5s-102.5 198.5 -102.5 340.5c0 140.667 34.167 253.834 102.5 339.501s166.166 128.5 293.499 128.5h267v-1456h-200z" />
    <glyph glyph-name="periodcentered" unicode="&#xb7;" horiz-adv-x="493" 
d="M341 606h-200v214h200v-214z" />
    <glyph glyph-name="cedilla" unicode="&#xb8;" horiz-adv-x="451" 
d="M271 2l-9 -57.999c34.667 -6.66699 63.5 -23.334 86.5 -50.001s34.5 -67.334 34.5 -122.001c0 -66.667 -22.667 -119 -68 -157s-111.333 -57 -198 -57l-6 113c32.667 0 58.834 8.16699 78.501 24.5s29.5 41.833 29.5 76.5c0 34 -8.83301 57.333 -26.5 70
s-48.834 21.334 -93.501 26.001l25 134h147z" />
    <glyph glyph-name="onesuperior" unicode="&#xb9;" horiz-adv-x="480" 
d="M351 665h-155v666l-103 -3v126l258 23v-812z" />
    <glyph glyph-name="ordmasculine" unicode="&#xba;" horiz-adv-x="777" 
d="M108 1142c0 100.667 24.667 181.667 74 243s117 92 203 92c86.667 0 154.834 -30.667 204.501 -92s74.5 -142.333 74.5 -243v-117c0 -101.333 -24.667 -182.333 -74 -243s-117 -91 -203 -91c-86.667 0 -154.834 30.333 -204.501 91s-74.5 141.667 -74.5 243v117z
M247 1025c0 -64 11.667 -115.167 35 -153.5s58.333 -57.5 105 -57.5c44.667 0 78.667 19.167 102 57.5s35 89.5 35 153.5v117c0 62.667 -11.667 113.167 -35 151.5s-58 57.5 -104 57.5s-80.5 -19.167 -103.5 -57.5s-34.5 -88.833 -34.5 -151.5v-117z" />
    <glyph glyph-name="guillemotright" unicode="&#xbb;" horiz-adv-x="827" 
d="M221 946l230 -386v-19l-230 -386h-137l197 395l-197 396h137zM525 946l230 -386v-19l-230 -386h-137l197 395l-197 396h137z" />
    <glyph glyph-name="onequarter" unicode="&#xbc;" horiz-adv-x="1262" 
d="M390 664h-155v666l-103 -3v126l258 23v-812zM346 121l-102 63l572 1138l102 -63zM1106 277h90v-122h-90v-155h-155v155h-332l-9 95l340 551h156v-524zM772 277h179v323l-3 1l-12 -21z" />
    <glyph glyph-name="onehalf" unicode="&#xbd;" horiz-adv-x="1330" 
d="M350 121l-102 63l572 1138l102 -63zM383 664h-155v666l-103 -3v126l258 23v-812zM1211 0l-489 0.000976562v121l246 267c34.667 40.667 57.167 73.667 67.5 99s15.5 53.333 15.5 84c0 36 -6.83301 64.667 -20.5 86s-35.167 32 -64.5 32
c-32.667 0 -57.334 -11.5 -74.001 -34.5s-25 -53.5 -25 -91.5h-155c0 71.333 23 130.666 69 177.999s108.333 71 187 71c76.667 0 135.5 -20.667 176.5 -62s61.5 -101.333 61.5 -180c0 -53.333 -13.667 -100.333 -41 -141s-72.666 -93.667 -135.999 -159l-116 -149h298v-121
z" />
    <glyph glyph-name="threequarters" unicode="&#xbe;" horiz-adv-x="1424" 
d="M508 121l-102 63l572 1138l102 -63zM1257 277h90v-122h-90v-155h-155v155h-332l-9 95l340 551h156v-524zM923 277h179v323l-3 1l-12 -21zM349 1131c35.333 0 61.001 9.83301 77.001 29.5s24 48.167 24 85.5c0 32.667 -8.33301 59.167 -25 79.5s-41.667 30.5 -75 30.5
c-29.333 0 -52.166 -9 -68.499 -27s-24.5 -42.333 -24.5 -73h-155c0 68.667 23 123 69 163s105 60 177 60c81.333 0 144.666 -19.333 189.999 -58s68 -95.334 68 -170.001c0 -38 -9.5 -72.167 -28.5 -102.5s-45.833 -54.166 -80.5 -71.499
c39.333 -16 69.166 -39.5 89.499 -70.5s30.5 -70.167 30.5 -117.5c0 -75.333 -23.667 -133 -71 -173s-112 -60 -194 -60c-75.333 0 -137.666 19.5 -186.999 58.5s-74 98.167 -74 177.5h155c0 -35.333 9.16699 -63.333 27.5 -84s44.166 -31 77.499 -31
c34.667 0 61.667 10.167 81 30.5s29 48.833 29 85.5c0 43.333 -9.16699 75 -27.5 95s-46.5 30 -84.5 30h-97v113h97z" />
    <glyph glyph-name="questiondown" unicode="&#xbf;" horiz-adv-x="849" 
d="M567 673c-1.33301 -90.667 -10.4971 -154.5 -27.4971 -191.5s-55.833 -87.167 -116.5 -150.5c-46 -62 -80.167 -116.333 -102.5 -163s-33.5 -102.667 -33.5 -168c0 -75.333 13.667 -133 41 -173s67.666 -60 120.999 -60c43.333 0 80.166 18.5 110.499 55.5
s46.166 89.5 47.499 157.5h200c-2 -120 -35.833 -212.333 -101.5 -277s-151.167 -97 -256.5 -97c-116.667 0 -206.167 34.167 -268.5 102.5s-93.5 164.5 -93.5 288.5c0 86.667 18.5 164.5 55.5 233.5s87.833 138.833 152.5 209.5c31.333 34 51 66.167 59 96.5
s12 75.833 12 136.5h201zM363.003 1082h204v-199h-204v199z" />
    <glyph glyph-name="Agrave" unicode="&#xc0;" horiz-adv-x="1103" 
d="M769 374h-435l-99 -374h-204l426 1456h194l420 -1456h-203zM376 529h352l-174 657h-4zM648 1561h-165l-224 266h230z" />
    <glyph glyph-name="Aacute" unicode="&#xc1;" horiz-adv-x="1103" 
d="M769 374h-435l-99 -374h-204l426 1456h194l420 -1456h-203zM376 529h352l-174 657h-4zM612 1824h230l-234 -266h-158z" />
    <glyph glyph-name="Acircumflex" unicode="&#xc2;" horiz-adv-x="1103" 
d="M769 374h-435l-99 -374h-204l426 1456h194l420 -1456h-203zM376 529h352l-174 657h-4zM826 1621v-22h-154l-122 155l-120 -155h-153v23l214 232h118z" />
    <glyph glyph-name="Atilde" unicode="&#xc3;" horiz-adv-x="1103" 
d="M769 374h-435l-99 -374h-204l426 1456h194l420 -1456h-203zM376 529h352l-174 657h-4zM841 1838c0 -62.667 -15.666 -114.667 -46.999 -156s-72 -62 -122 -62c-38.667 0 -79.834 16.333 -123.501 49s-79.5 49 -107.5 49c-21.333 0 -39 -11 -53 -33s-21 -49.667 -21 -83
l-108 28c0 62 15.5 114.167 46.5 156.5s71.5 63.5 121.5 63.5c30.667 0 69.834 -16.5 117.501 -49.5s85.5 -49.5 113.5 -49.5c21.333 0 39.166 11.167 53.499 33.5s21.5 50.5 21.5 84.5z" />
    <glyph glyph-name="Adieresis" unicode="&#xc4;" horiz-adv-x="1103" 
d="M769 374h-435l-99 -374h-204l426 1456h194l420 -1456h-203zM376 529h352l-174 657h-4zM855 1617h-202v185h202v-185zM447 1617h-201v185h201v-185z" />
    <glyph glyph-name="Aring" unicode="&#xc5;" horiz-adv-x="1103" 
d="M769 374h-435l-99 -374h-204l426 1456h194l420 -1456h-203zM376 529h352l-174 657h-4zM376 1734c0 52.667 16.667 96.5 50 131.5s75 52.5 125 52.5c48.667 0 89.334 -17.5 122.001 -52.5s49 -78.833 49 -131.5c0 -54 -16.333 -97.667 -49 -131s-73.334 -50 -122.001 -50
c-50 0 -91.667 16.667 -125 50s-50 77 -50 131zM467 1734c0 -28 8 -50.999 24 -68.999s36 -27 60 -27s43.5 8.83301 58.5 26.5s22.5 40.834 22.5 69.501c0 29.333 -7.5 53.166 -22.5 71.499s-34.5 27.5 -58.5 27.5s-44 -9.33301 -60 -28s-24 -42.334 -24 -71.001z" />
    <glyph glyph-name="AE" unicode="&#xc6;" horiz-adv-x="1571" 
d="M1520 0h-720l-12 361h-389l-155 -361h-239l666 1456h800v-157h-516l16 -467h434v-155h-429l17 -522h527v-155zM472 531h310l-23 661l-3 1z" />
    <glyph glyph-name="Ccedilla" unicode="&#xc7;" horiz-adv-x="1053" 
d="M986 435c-2.66699 -149.333 -41.3369 -262.668 -116.004 -340.001s-180.667 -116 -318 -116c-139.333 0 -247.666 46.833 -324.999 140.5s-116 228.834 -116 405.501v404c0 176 39 311.333 117 406s186 142 324 142c140 0 246.333 -38.167 319 -114.5
s111.334 -191.833 116.001 -346.5h-201c-1.33301 106.667 -20.166 184.167 -56.499 232.5s-95.5 72.5 -177.5 72.5c-79.333 0 -139.333 -32.667 -180 -98s-61 -162.333 -61 -291v-407c0 -130.667 19.833 -228.667 59.5 -294s100.167 -98 181.5 -98
c80.667 0 139.334 23.167 176.001 69.5s56 123.833 58 232.5h200zM634.997 -4.00195l-9 -57.999c34.667 -6.66699 63.5 -23.334 86.5 -50.001s34.5 -67.334 34.5 -122.001c0 -66.667 -22.667 -119 -68 -157s-111.333 -57 -198 -57l-6 113
c32.667 0 58.834 8.16699 78.501 24.5s29.5 41.833 29.5 76.5c0 34 -8.83301 57.333 -26.5 70s-48.834 21.334 -93.501 26.001l25 134h147z" />
    <glyph glyph-name="Egrave" unicode="&#xc8;" horiz-adv-x="977" 
d="M846 676h-508v-522h590v-154h-791v1456h786v-156h-585v-469h508v-155zM604 1561h-165l-224 266h230z" />
    <glyph glyph-name="Eacute" unicode="&#xc9;" horiz-adv-x="977" 
d="M846 676h-508v-522h590v-154h-791v1456h786v-156h-585v-469h508v-155zM568 1824h230l-234 -266h-158z" />
    <glyph glyph-name="Ecircumflex" unicode="&#xca;" horiz-adv-x="977" 
d="M846 676h-508v-522h590v-154h-791v1456h786v-156h-585v-469h508v-155zM782 1621v-22h-154l-122 155l-120 -155h-153v23l214 232h118z" />
    <glyph glyph-name="Edieresis" unicode="&#xcb;" horiz-adv-x="977" 
d="M846 676h-508v-522h590v-154h-791v1456h786v-156h-585v-469h508v-155zM811 1617h-202v185h202v-185zM403 1617h-201v185h201v-185z" />
    <glyph glyph-name="Igrave" unicode="&#xcc;" horiz-adv-x="499" 
d="M350 0h-201v1456h201v-1456zM347 1561h-165l-224 266h230z" />
    <glyph glyph-name="Iacute" unicode="&#xcd;" horiz-adv-x="499" 
d="M350 0h-201v1456h201v-1456zM310 1824h230l-234 -266h-158z" />
    <glyph glyph-name="Icircumflex" unicode="&#xce;" horiz-adv-x="499" 
d="M350 0h-201v1456h201v-1456zM525 1621v-22h-154l-122 155l-120 -155h-153v23l214 232h118z" />
    <glyph glyph-name="Idieresis" unicode="&#xcf;" horiz-adv-x="499" 
d="M350 0h-201v1456h201v-1456zM554 1617h-202v185h202v-185zM146 1617h-201v185h201v-185z" />
    <glyph glyph-name="Eth" unicode="&#xd0;" horiz-adv-x="1160" 
d="M167 0v669.999h-122v141h122v645h347c173.333 0 305 -49.333 395 -148s135 -249 135 -451v-260c0 -203.333 -45.333 -353.666 -136 -450.999s-225 -146 -403 -146h-338zM574 669.999l-206.001 0.000976562v-516h130c126.667 0 216 35.167 268 105.5s78 182.833 78 337.5
v262c0 155.333 -25.667 267.666 -77 336.999s-137.666 104 -258.999 104h-140v-489h206v-141z" />
    <glyph glyph-name="Ntilde" unicode="&#xd1;" horiz-adv-x="1195" 
d="M1056 0h-200l-515 1074l-3 -1v-1073h-201v1456h201l515 -1072l3 1v1071h200v-1456zM886 1838c0 -62.667 -15.666 -114.667 -46.999 -156s-72 -62 -122 -62c-38.667 0 -79.834 16.333 -123.501 49s-79.5 49 -107.5 49c-21.333 0 -39 -11 -53 -33s-21 -49.667 -21 -83
l-108 28c0 62 15.5 114.167 46.5 156.5s71.5 63.5 121.5 63.5c30.667 0 69.834 -16.5 117.501 -49.5s85.5 -49.5 113.5 -49.5c21.333 0 39.166 11.167 53.499 33.5s21.5 50.5 21.5 84.5z" />
    <glyph glyph-name="Ograve" unicode="&#xd2;" horiz-adv-x="1164" 
d="M1048 527c0 -176 -42 -311.333 -126 -406s-199 -142 -345 -142c-144 0 -256.833 47.333 -338.5 142s-122.5 230 -122.5 406v400c0 175.333 40.833 310.833 122.5 406.5s194.167 143.5 337.5 143.5c146 0 261.167 -47.833 345.5 -143.5s126.5 -231.167 126.5 -406.5v-400z
M847 930c0 128.667 -23.001 225.334 -69.001 290.001s-113.333 97 -202 97c-85.333 0 -149.833 -32.333 -193.5 -97s-65.5 -161.334 -65.5 -290.001v-403c0 -130.667 21.833 -228.334 65.5 -293.001s108.5 -97 194.5 -97c88.667 0 155.834 32.333 201.501 97
s68.5 162.334 68.5 293.001v403zM680.999 1582h-165l-224 266h230z" />
    <glyph glyph-name="Oacute" unicode="&#xd3;" horiz-adv-x="1164" 
d="M1048 527c0 -176 -42 -311.333 -126 -406s-199 -142 -345 -142c-144 0 -256.833 47.333 -338.5 142s-122.5 230 -122.5 406v400c0 175.333 40.833 310.833 122.5 406.5s194.167 143.5 337.5 143.5c146 0 261.167 -47.833 345.5 -143.5s126.5 -231.167 126.5 -406.5v-400z
M847 930c0 128.667 -23.001 225.334 -69.001 290.001s-113.333 97 -202 97c-85.333 0 -149.833 -32.333 -193.5 -97s-65.5 -161.334 -65.5 -290.001v-403c0 -130.667 21.833 -228.334 65.5 -293.001s108.5 -97 194.5 -97c88.667 0 155.834 32.333 201.501 97
s68.5 162.334 68.5 293.001v403zM644.999 1845h230l-234 -266h-158z" />
    <glyph glyph-name="Ocircumflex" unicode="&#xd4;" horiz-adv-x="1164" 
d="M1048 527c0 -176 -42 -311.333 -126 -406s-199 -142 -345 -142c-144 0 -256.833 47.333 -338.5 142s-122.5 230 -122.5 406v400c0 175.333 40.833 310.833 122.5 406.5s194.167 143.5 337.5 143.5c146 0 261.167 -47.833 345.5 -143.5s126.5 -231.167 126.5 -406.5v-400z
M847 930c0 128.667 -23.001 225.334 -69.001 290.001s-113.333 97 -202 97c-85.333 0 -149.833 -32.333 -193.5 -97s-65.5 -161.334 -65.5 -290.001v-403c0 -130.667 21.833 -228.334 65.5 -293.001s108.5 -97 194.5 -97c88.667 0 155.834 32.333 201.501 97
s68.5 162.334 68.5 293.001v403zM858.999 1642v-22h-154l-122 155l-120 -155h-153v23l214 232h118z" />
    <glyph glyph-name="Otilde" unicode="&#xd5;" horiz-adv-x="1164" 
d="M1048 527c0 -176 -42 -311.333 -126 -406s-199 -142 -345 -142c-144 0 -256.833 47.333 -338.5 142s-122.5 230 -122.5 406v400c0 175.333 40.833 310.833 122.5 406.5s194.167 143.5 337.5 143.5c146 0 261.167 -47.833 345.5 -143.5s126.5 -231.167 126.5 -406.5v-400z
M847 930c0 128.667 -23.001 225.334 -69.001 290.001s-113.333 97 -202 97c-85.333 0 -149.833 -32.333 -193.5 -97s-65.5 -161.334 -65.5 -290.001v-403c0 -130.667 21.833 -228.334 65.5 -293.001s108.5 -97 194.5 -97c88.667 0 155.834 32.333 201.501 97
s68.5 162.334 68.5 293.001v403zM873.999 1859c0 -62.667 -15.666 -114.667 -46.999 -156s-72 -62 -122 -62c-38.667 0 -79.834 16.333 -123.501 49s-79.5 49 -107.5 49c-21.333 0 -39 -11 -53 -33s-21 -49.667 -21 -83l-108 28c0 62 15.5 114.167 46.5 156.5
s71.5 63.5 121.5 63.5c30.667 0 69.834 -16.5 117.501 -49.5s85.5 -49.5 113.5 -49.5c21.333 0 39.166 11.167 53.499 33.5s21.5 50.5 21.5 84.5z" />
    <glyph glyph-name="Odieresis" unicode="&#xd6;" horiz-adv-x="1164" 
d="M1048 527c0 -176 -42 -311.333 -126 -406s-199 -142 -345 -142c-144 0 -256.833 47.333 -338.5 142s-122.5 230 -122.5 406v400c0 175.333 40.833 310.833 122.5 406.5s194.167 143.5 337.5 143.5c146 0 261.167 -47.833 345.5 -143.5s126.5 -231.167 126.5 -406.5v-400z
M847 930c0 128.667 -23.001 225.334 -69.001 290.001s-113.333 97 -202 97c-85.333 0 -149.833 -32.333 -193.5 -97s-65.5 -161.334 -65.5 -290.001v-403c0 -130.667 21.833 -228.334 65.5 -293.001s108.5 -97 194.5 -97c88.667 0 155.834 32.333 201.501 97
s68.5 162.334 68.5 293.001v403zM887.999 1638h-202v185h202v-185zM479.999 1638h-201v185h201v-185z" />
    <glyph glyph-name="multiply" unicode="&#xd7;" horiz-adv-x="939" 
d="M75 344l279 338l-277 337l123 119l264 -322l265 322l123 -119l-277 -337l278 -338l-122 -119l-266 323l-266 -323z" />
    <glyph glyph-name="Oslash" unicode="&#xd8;" horiz-adv-x="1152" 
d="M1040 527c0 -176 -41.999 -311.333 -125.999 -406s-199 -142 -345 -142c-47.333 0 -90.833 5.16699 -130.5 15.5s-77.167 26.5 -112.5 48.5l-63 -133h-118l97 204c-44.667 48 -78.167 106.167 -100.5 174.5s-33.5 147.833 -33.5 238.5v400
c0 175.333 40.833 310.833 122.5 406.5s194.167 143.5 337.5 143.5c55.333 0 106.166 -7.33301 152.499 -22s89.166 -36.667 128.499 -66l58 123h118l-96 -202c36.667 -48.667 64.334 -104.5 83.001 -167.5s28 -134.833 28 -215.5v-400zM309.001 527
c0 -42.667 2.33301 -81.499 7 -116.499s12 -66.833 22 -95.5l430 904c-24 32.667 -52.5 57.167 -85.5 73.5s-71.167 24.5 -114.5 24.5c-85.333 0 -149.833 -32.333 -193.5 -97s-65.5 -161.334 -65.5 -290.001v-403zM839.001 930.001c0 30 -1.33105 57.833 -3.99805 83.5
s-6.33398 49.167 -11.001 70.5h-3l-419 -881c21.333 -22.667 45.666 -39.334 72.999 -50.001s58.666 -16 93.999 -16c88.667 0 155.834 32.333 201.501 97s68.5 162.334 68.5 293.001v403z" />
    <glyph glyph-name="Ugrave" unicode="&#xd9;" horiz-adv-x="1113" 
d="M1002 1456v-1009c0 -154 -40.667 -270.5 -122 -349.5s-190 -118.5 -326 -118.5c-134 0 -240.833 39.5 -320.5 118.5s-119.5 195.5 -119.5 349.5v1009h198v-1009c0 -106 21.5 -184.833 64.5 -236.5s102.167 -77.5 177.5 -77.5c78.667 0 139.667 24.833 183 74.5
s65 129.5 65 239.5v1009h200zM655 1561h-165l-224 266h230z" />
    <glyph glyph-name="Uacute" unicode="&#xda;" horiz-adv-x="1113" 
d="M1002 1456v-1009c0 -154 -40.667 -270.5 -122 -349.5s-190 -118.5 -326 -118.5c-134 0 -240.833 39.5 -320.5 118.5s-119.5 195.5 -119.5 349.5v1009h198v-1009c0 -106 21.5 -184.833 64.5 -236.5s102.167 -77.5 177.5 -77.5c78.667 0 139.667 24.833 183 74.5
s65 129.5 65 239.5v1009h200zM619 1824h230l-234 -266h-158z" />
    <glyph glyph-name="Ucircumflex" unicode="&#xdb;" horiz-adv-x="1113" 
d="M1002 1456v-1009c0 -154 -40.667 -270.5 -122 -349.5s-190 -118.5 -326 -118.5c-134 0 -240.833 39.5 -320.5 118.5s-119.5 195.5 -119.5 349.5v1009h198v-1009c0 -106 21.5 -184.833 64.5 -236.5s102.167 -77.5 177.5 -77.5c78.667 0 139.667 24.833 183 74.5
s65 129.5 65 239.5v1009h200zM833 1621v-22h-154l-122 155l-120 -155h-153v23l214 232h118z" />
    <glyph glyph-name="Udieresis" unicode="&#xdc;" horiz-adv-x="1113" 
d="M1002 1456v-1009c0 -154 -40.667 -270.5 -122 -349.5s-190 -118.5 -326 -118.5c-134 0 -240.833 39.5 -320.5 118.5s-119.5 195.5 -119.5 349.5v1009h198v-1009c0 -106 21.5 -184.833 64.5 -236.5s102.167 -77.5 177.5 -77.5c78.667 0 139.667 24.833 183 74.5
s65 129.5 65 239.5v1009h200zM862 1617h-202v185h202v-185zM454 1617h-201v185h201v-185z" />
    <glyph glyph-name="Yacute" unicode="&#xdd;" horiz-adv-x="1026" 
d="M513 761l266 695h222l-392 -931v-525h-198v540l-386 916h222zM577 1820h230l-234 -266h-158z" />
    <glyph glyph-name="Thorn" unicode="&#xde;" horiz-adv-x="1012" 
d="M330 1456v-289.999h195c133.333 0 235.833 -39 307.5 -117s107.5 -181.667 107.5 -311c0 -130.667 -35.833 -234.834 -107.5 -312.501s-174.167 -116.5 -307.5 -116.5h-195v-309h-201v1456h201zM330 1011v-547h195c72.667 0 126.667 26 162 78s53 116.667 53 194
s-17.667 142.5 -53 195.5s-89.333 79.5 -162 79.5h-195z" />
    <glyph glyph-name="germandbls" unicode="&#xdf;" horiz-adv-x="1038" 
d="M321 0l-199.999 0.000976562v1088c0 146.667 32.667 259.167 98 337.5s154 117.5 266 117.5c93.333 0 169.333 -28.333 228 -85s88 -139.334 88 -248.001c0 -76 -15.5 -148.167 -46.5 -216.5s-46.5 -125.833 -46.5 -172.5c0 -52 42.833 -124.5 128.5 -217.5
s128.5 -187.5 128.5 -283.5c0 -115.333 -29 -200.833 -87 -256.5s-141.333 -83.5 -250 -83.5c-44 0 -88.167 6.66699 -132.5 20s-77.166 30 -98.499 50l40 154c21.333 -18.667 48.166 -35.167 80.499 -49.5s65.833 -21.5 100.5 -21.5c50 0 87.167 16 111.5 48
s36.5 76 36.5 132c0 58 -43.167 133 -129.5 225s-129.5 185.667 -129.5 281c0 60 16.667 124.833 50 194.5s50 131.167 50 184.5c0 58 -12.667 104.333 -38 139s-55 52 -89 52c-48.667 0 -87.334 -26 -116.001 -78s-43 -127 -43 -225v-1086z" />
    <glyph glyph-name="agrave" unicode="&#xe0;" horiz-adv-x="918" 
d="M635 0c-6.66699 24.667 -12.334 48.167 -17.001 70.5s-8 44.166 -10 65.499l-2 1c-28 -46 -62.667 -83.667 -104 -113s-87.666 -44 -138.999 -44c-89.333 0 -158.166 28.167 -206.499 84.5s-72.5 133.833 -72.5 232.5c0 105.333 32.833 187 98.5 245s160.167 87 283.5 87
h139v111c0 67.333 -13.167 119.166 -39.5 155.499s-64.5 54.5 -114.5 54.5c-46 0 -82 -16.167 -108 -48.5s-39 -74.5 -39 -126.5l-201 1c0 88.667 33 165.167 99 229.5s153.333 96.5 262 96.5c103.333 0 186.166 -30.833 248.499 -92.5s93.5 -152.167 93.5 -271.5v-502
c0 -41.333 2.5 -81.166 7.5 -119.499s12.833 -77.166 23.5 -116.499h-202zM409 136c44 0 83.333 13.167 118 39.5s60.667 60.166 78 101.499v226h-142c-58 0 -102.333 -19.667 -133 -59s-46 -88 -46 -146c0 -49.333 10.667 -88.666 32 -117.999s52.333 -44 93 -44zM551 1239
h-165l-224 266h230z" />
    <glyph glyph-name="aacute" unicode="&#xe1;" horiz-adv-x="918" 
d="M635 0c-6.66699 24.667 -12.334 48.167 -17.001 70.5s-8 44.166 -10 65.499l-2 1c-28 -46 -62.667 -83.667 -104 -113s-87.666 -44 -138.999 -44c-89.333 0 -158.166 28.167 -206.499 84.5s-72.5 133.833 -72.5 232.5c0 105.333 32.833 187 98.5 245s160.167 87 283.5 87
h139v111c0 67.333 -13.167 119.166 -39.5 155.499s-64.5 54.5 -114.5 54.5c-46 0 -82 -16.167 -108 -48.5s-39 -74.5 -39 -126.5l-201 1c0 88.667 33 165.167 99 229.5s153.333 96.5 262 96.5c103.333 0 186.166 -30.833 248.499 -92.5s93.5 -152.167 93.5 -271.5v-502
c0 -41.333 2.5 -81.166 7.5 -119.499s12.833 -77.166 23.5 -116.499h-202zM409 136c44 0 83.333 13.167 118 39.5s60.667 60.166 78 101.499v226h-142c-58 0 -102.333 -19.667 -133 -59s-46 -88 -46 -146c0 -49.333 10.667 -88.666 32 -117.999s52.333 -44 93 -44zM515 1502
h230l-234 -266h-158z" />
    <glyph glyph-name="acircumflex" unicode="&#xe2;" horiz-adv-x="918" 
d="M635 0c-6.66699 24.667 -12.334 48.167 -17.001 70.5s-8 44.166 -10 65.499l-2 1c-28 -46 -62.667 -83.667 -104 -113s-87.666 -44 -138.999 -44c-89.333 0 -158.166 28.167 -206.499 84.5s-72.5 133.833 -72.5 232.5c0 105.333 32.833 187 98.5 245s160.167 87 283.5 87
h139v111c0 67.333 -13.167 119.166 -39.5 155.499s-64.5 54.5 -114.5 54.5c-46 0 -82 -16.167 -108 -48.5s-39 -74.5 -39 -126.5l-201 1c0 88.667 33 165.167 99 229.5s153.333 96.5 262 96.5c103.333 0 186.166 -30.833 248.499 -92.5s93.5 -152.167 93.5 -271.5v-502
c0 -41.333 2.5 -81.166 7.5 -119.499s12.833 -77.166 23.5 -116.499h-202zM409 136c44 0 83.333 13.167 118 39.5s60.667 60.166 78 101.499v226h-142c-58 0 -102.333 -19.667 -133 -59s-46 -88 -46 -146c0 -49.333 10.667 -88.666 32 -117.999s52.333 -44 93 -44zM729 1299
v-22h-154l-122 155l-120 -155h-153v23l214 232h118z" />
    <glyph glyph-name="atilde" unicode="&#xe3;" horiz-adv-x="918" 
d="M635 0c-6.66699 24.667 -12.334 48.167 -17.001 70.5s-8 44.166 -10 65.499l-2 1c-28 -46 -62.667 -83.667 -104 -113s-87.666 -44 -138.999 -44c-89.333 0 -158.166 28.167 -206.499 84.5s-72.5 133.833 -72.5 232.5c0 105.333 32.833 187 98.5 245s160.167 87 283.5 87
h139v111c0 67.333 -13.167 119.166 -39.5 155.499s-64.5 54.5 -114.5 54.5c-46 0 -82 -16.167 -108 -48.5s-39 -74.5 -39 -126.5l-201 1c0 88.667 33 165.167 99 229.5s153.333 96.5 262 96.5c103.333 0 186.166 -30.833 248.499 -92.5s93.5 -152.167 93.5 -271.5v-502
c0 -41.333 2.5 -81.166 7.5 -119.499s12.833 -77.166 23.5 -116.499h-202zM409 136c44 0 83.333 13.167 118 39.5s60.667 60.166 78 101.499v226h-142c-58 0 -102.333 -19.667 -133 -59s-46 -88 -46 -146c0 -49.333 10.667 -88.666 32 -117.999s52.333 -44 93 -44zM744 1516
c0 -62.667 -15.666 -114.667 -46.999 -156s-72 -62 -122 -62c-38.667 0 -79.834 16.333 -123.501 49s-79.5 49 -107.5 49c-21.333 0 -39 -11 -53 -33s-21 -49.667 -21 -83l-108 28c0 62 15.5 114.167 46.5 156.5s71.5 63.5 121.5 63.5c30.667 0 69.834 -16.5 117.501 -49.5
s85.5 -49.5 113.5 -49.5c21.333 0 39.166 11.167 53.499 33.5s21.5 50.5 21.5 84.5z" />
    <glyph glyph-name="adieresis" unicode="&#xe4;" horiz-adv-x="918" 
d="M635 0c-6.66699 24.667 -12.334 48.167 -17.001 70.5s-8 44.166 -10 65.499l-2 1c-28 -46 -62.667 -83.667 -104 -113s-87.666 -44 -138.999 -44c-89.333 0 -158.166 28.167 -206.499 84.5s-72.5 133.833 -72.5 232.5c0 105.333 32.833 187 98.5 245s160.167 87 283.5 87
h139v111c0 67.333 -13.167 119.166 -39.5 155.499s-64.5 54.5 -114.5 54.5c-46 0 -82 -16.167 -108 -48.5s-39 -74.5 -39 -126.5l-201 1c0 88.667 33 165.167 99 229.5s153.333 96.5 262 96.5c103.333 0 186.166 -30.833 248.499 -92.5s93.5 -152.167 93.5 -271.5v-502
c0 -41.333 2.5 -81.166 7.5 -119.499s12.833 -77.166 23.5 -116.499h-202zM409 136c44 0 83.333 13.167 118 39.5s60.667 60.166 78 101.499v226h-142c-58 0 -102.333 -19.667 -133 -59s-46 -88 -46 -146c0 -49.333 10.667 -88.666 32 -117.999s52.333 -44 93 -44zM758 1295
h-202v185h202v-185zM350 1295h-201v185h201v-185z" />
    <glyph glyph-name="aring" unicode="&#xe5;" horiz-adv-x="918" 
d="M635 0c-6.66699 24.667 -12.334 48.167 -17.001 70.5s-8 44.166 -10 65.499l-2 1c-28 -46 -62.667 -83.667 -104 -113s-87.666 -44 -138.999 -44c-89.333 0 -158.166 28.167 -206.499 84.5s-72.5 133.833 -72.5 232.5c0 105.333 32.833 187 98.5 245s160.167 87 283.5 87
h139v111c0 67.333 -13.167 119.166 -39.5 155.499s-64.5 54.5 -114.5 54.5c-46 0 -82 -16.167 -108 -48.5s-39 -74.5 -39 -126.5l-201 1c0 88.667 33 165.167 99 229.5s153.333 96.5 262 96.5c103.333 0 186.166 -30.833 248.499 -92.5s93.5 -152.167 93.5 -271.5v-502
c0 -41.333 2.5 -81.166 7.5 -119.499s12.833 -77.166 23.5 -116.499h-202zM409 136c44 0 83.333 13.167 118 39.5s60.667 60.166 78 101.499v226h-142c-58 0 -102.333 -19.667 -133 -59s-46 -88 -46 -146c0 -49.333 10.667 -88.666 32 -117.999s52.333 -44 93 -44zM279 1412
c0 52.667 16.667 96.5 50 131.5s75 52.5 125 52.5c48.667 0 89.334 -17.5 122.001 -52.5s49 -78.833 49 -131.5c0 -54 -16.333 -97.667 -49 -131s-73.334 -50 -122.001 -50c-50 0 -91.667 16.667 -125 50s-50 77 -50 131zM370 1412c0 -28 8 -50.999 24 -68.999
s36 -27 60 -27s43.5 8.83301 58.5 26.5s22.5 40.834 22.5 69.501c0 29.333 -7.5 53.166 -22.5 71.499s-34.5 27.5 -58.5 27.5s-44 -9.33301 -60 -28s-24 -42.334 -24 -71.001z" />
    <glyph glyph-name="ae" unicode="&#xe6;" horiz-adv-x="1415" 
d="M1019 -21c-72.667 0 -135.835 14.5029 -189.502 43.5029s-98.834 71.833 -135.501 128.5c-32.667 -50.667 -76.667 -92 -132 -124s-123 -48 -203 -48c-99.333 0 -175.166 28.5 -227.499 85.5s-78.5 136.833 -78.5 239.5c0 107.333 32.167 189.833 96.5 247.5
s159.833 86.5 286.5 86.5h163v78c0 74 -12 130.833 -36 170.5s-59.333 59.5 -106 59.5c-50 0 -88.833 -17.833 -116.5 -53.5s-41.5 -80.834 -41.5 -135.501l-200 17c0 97.333 32.333 176.333 97 237s152 91 262 91c58.667 0 110.5 -10.5 155.5 -31.5
s82.833 -52.5 113.5 -94.5c34.667 41.333 73.834 72.666 117.501 93.999s92.834 32 147.501 32c116.667 0 206.167 -42 268.5 -126s93.5 -201.667 93.5 -353v-124h-551c0.666992 -112.667 19.334 -201.834 56.001 -267.501s94.667 -98.5 174 -98.5
c54 0 98.167 8.66699 132.5 26s71.5 43 111.5 77l59 -132c-31.333 -32.667 -73.833 -61.667 -127.5 -87s-116.834 -38 -189.501 -38zM397.999 127.003c36 0 73.002 12.666 111.002 37.999s68 55.333 90 90v246h-162c-58.667 0 -103.834 -19.167 -135.501 -57.5
s-47.5 -86.166 -47.5 -143.499c0 -54 11.667 -96.333 35 -127s59.666 -46 108.999 -46zM992.001 946.002c-57.333 0 -101.333 -27.5 -132 -82.5s-49 -129.833 -55 -224.5h351v30c0 84 -13.167 151.167 -39.5 201.5s-67.833 75.5 -124.5 75.5z" />
    <glyph glyph-name="ccedilla" unicode="&#xe7;" horiz-adv-x="891" 
d="M471 133c48 0 89 19.3311 123 57.998s49.667 91.667 47 159h188c2.66699 -106.667 -31.333 -195 -102 -265s-155 -105 -253 -105c-131.333 0 -230.333 44.833 -297 134.5s-100 206.5 -100 350.5v149c0 144 33.5 261.333 100.5 352s165.5 136 295.5 136
c108.667 0 195.667 -36.167 261 -108.5s97 -170.166 95 -293.499h-188c2 74.667 -12.5 134.334 -43.5 179.001s-73.167 67 -126.5 67c-73.333 0 -123.833 -30.5 -151.5 -91.5s-41.5 -141.167 -41.5 -240.5v-149c0 -101.333 13.667 -182 41 -242s78 -90 152 -90z
M529 -4.00195l-9 -57.999c34.667 -6.66699 63.5 -23.334 86.5 -50.001s34.5 -67.334 34.5 -122.001c0 -66.667 -22.667 -119 -68 -157s-111.333 -57 -198 -57l-6 113c32.667 0 58.834 8.16699 78.501 24.5s29.5 41.833 29.5 76.5c0 34 -8.83301 57.333 -26.5 70
s-48.834 21.334 -93.501 26.001l25 134h147z" />
    <glyph glyph-name="egrave" unicode="&#xe8;" horiz-adv-x="894" 
d="M477 -20c-122 0 -218.667 43.833 -290 131.5s-107 202.5 -107 344.5v158c0 144 35.333 261.333 106 352s162.667 136 276 136c120 0 211 -41.167 273 -123.5s93 -195.5 93 -339.5v-140h-547v-43c0 -96 17.333 -173.833 52 -233.5s87 -89.5 157 -89.5
c64 0 115.167 9 153.5 27s71.5 43.667 99.5 77l57 -130c-32.667 -39.333 -76.167 -70.333 -130.5 -93s-118.5 -34 -192.5 -34zM462 946c-54.667 0 -97.667 -28 -129 -84s-48.666 -128.667 -51.999 -218h349v41c0 78 -13.833 141 -41.5 189s-69.834 72 -126.501 72zM552 1240
h-165l-224 266h230z" />
    <glyph glyph-name="eacute" unicode="&#xe9;" horiz-adv-x="894" 
d="M477 -20c-122 0 -218.667 43.833 -290 131.5s-107 202.5 -107 344.5v158c0 144 35.333 261.333 106 352s162.667 136 276 136c120 0 211 -41.167 273 -123.5s93 -195.5 93 -339.5v-140h-547v-43c0 -96 17.333 -173.833 52 -233.5s87 -89.5 157 -89.5
c64 0 115.167 9 153.5 27s71.5 43.667 99.5 77l57 -130c-32.667 -39.333 -76.167 -70.333 -130.5 -93s-118.5 -34 -192.5 -34zM462 946c-54.667 0 -97.667 -28 -129 -84s-48.666 -128.667 -51.999 -218h349v41c0 78 -13.833 141 -41.5 189s-69.834 72 -126.501 72zM516 1503
h230l-234 -266h-158z" />
    <glyph glyph-name="ecircumflex" unicode="&#xea;" horiz-adv-x="894" 
d="M477 -20c-122 0 -218.667 43.833 -290 131.5s-107 202.5 -107 344.5v158c0 144 35.333 261.333 106 352s162.667 136 276 136c120 0 211 -41.167 273 -123.5s93 -195.5 93 -339.5v-140h-547v-43c0 -96 17.333 -173.833 52 -233.5s87 -89.5 157 -89.5
c64 0 115.167 9 153.5 27s71.5 43.667 99.5 77l57 -130c-32.667 -39.333 -76.167 -70.333 -130.5 -93s-118.5 -34 -192.5 -34zM462 946c-54.667 0 -97.667 -28 -129 -84s-48.666 -128.667 -51.999 -218h349v41c0 78 -13.833 141 -41.5 189s-69.834 72 -126.501 72zM730 1300
v-22h-154l-122 155l-120 -155h-153v23l214 232h118z" />
    <glyph glyph-name="edieresis" unicode="&#xeb;" horiz-adv-x="894" 
d="M477 -20c-122 0 -218.667 43.833 -290 131.5s-107 202.5 -107 344.5v158c0 144 35.333 261.333 106 352s162.667 136 276 136c120 0 211 -41.167 273 -123.5s93 -195.5 93 -339.5v-140h-547v-43c0 -96 17.333 -173.833 52 -233.5s87 -89.5 157 -89.5
c64 0 115.167 9 153.5 27s71.5 43.667 99.5 77l57 -130c-32.667 -39.333 -76.167 -70.333 -130.5 -93s-118.5 -34 -192.5 -34zM462 946c-54.667 0 -97.667 -28 -129 -84s-48.666 -128.667 -51.999 -218h349v41c0 78 -13.833 141 -41.5 189s-69.834 72 -126.501 72zM759 1296
h-202v185h202v-185zM351 1296h-201v185h201v-185z" />
    <glyph glyph-name="igrave" unicode="&#xec;" horiz-adv-x="459" 
d="M326 0h-200v1082h200v-1082zM326 1218h-165l-224 266h230z" />
    <glyph glyph-name="iacute" unicode="&#xed;" horiz-adv-x="459" 
d="M326 0h-200v1082h200v-1082zM289 1481h230l-234 -266h-158z" />
    <glyph glyph-name="icircumflex" unicode="&#xee;" horiz-adv-x="459" 
d="M326 0h-200v1082h200v-1082zM504 1278v-22h-154l-122 155l-120 -155h-153v23l214 232h118z" />
    <glyph glyph-name="idieresis" unicode="&#xef;" horiz-adv-x="459" 
d="M326 0h-200v1082h200v-1082zM533 1274h-202v185h202v-185zM125 1274h-201v185h201v-185z" />
    <glyph glyph-name="eth" unicode="&#xf0;" horiz-adv-x="997" 
d="M708 1292c63.333 -82 111.665 -177.003 144.998 -285.003s50 -231.333 50 -370v-87c0 -170.667 -40 -308.5 -120 -413.5s-182 -157.5 -306 -157.5c-125.333 0 -226.333 45.5 -303 136.5s-115 206.5 -115 346.5c0 156.667 35.833 280.167 107.5 370.5
s168.834 135.5 291.501 135.5c43.333 0 83.666 -8.5 120.999 -25.5s70.666 -40.5 99.999 -70.5l3 1c-11.333 63.333 -27.666 120.5 -48.999 171.5s-47 97.833 -77 140.5l-205 -144l-62 94l190 134c-21.333 18.667 -43.166 35.334 -65.499 50.001
s-46.166 28.334 -71.499 41.001l63 157c42 -16 81.667 -35.667 119 -59s73 -50.666 107 -81.999l184 129l62 -94zM701.999 638.997c0 4.66699 -0.166016 11.833 -0.499023 21.5s-0.5 17.167 -0.5 22.5c-19.333 38.667 -47.833 70.667 -85.5 96s-83.5 38 -137.5 38
c-68.667 0 -122.334 -33.167 -161.001 -99.5s-58 -151.5 -58 -255.5c0 -90 19.667 -167.167 59 -231.5s93.333 -96.5 162 -96.5c68 0 122 38.333 162 115s60 177 60 301v89z" />
    <glyph glyph-name="ntilde" unicode="&#xf1;" 
d="M295 1082l11.001 -146h3c27.333 52.667 62.166 93.5 104.499 122.5s90.833 43.5 145.5 43.5c92 0 162.833 -33.833 212.5 -101.5s74.5 -175.834 74.5 -324.501v-676h-201v674c0 100.667 -12.833 170.834 -38.5 210.501s-66.5 59.5 -122.5 59.5
c-38 0 -71.333 -12 -100 -36s-52.667 -57.333 -72 -100v-808h-201v1082h184zM767.001 1516c0 -62.667 -15.666 -114.667 -46.999 -156s-72 -62 -122 -62c-38.667 0 -79.834 16.333 -123.501 49s-79.5 49 -107.5 49c-21.333 0 -39 -11 -53 -33s-21 -49.667 -21 -83l-108 28
c0 62 15.5 114.167 46.5 156.5s71.5 63.5 121.5 63.5c30.667 0 69.834 -16.5 117.501 -49.5s85.5 -49.5 113.5 -49.5c21.333 0 39.166 11.167 53.499 33.5s21.5 50.5 21.5 84.5z" />
    <glyph glyph-name="ograve" unicode="&#xf2;" 
d="M77 609c0 146.667 35.001 265.5 105.001 356.5s168.333 136.5 295 136.5c127.333 0 226 -45.5 296 -136.5s105 -209.833 105 -356.5v-138c0 -148 -34.833 -266.833 -104.5 -356.5s-167.834 -134.5 -294.501 -134.5c-128 0 -227 45 -297 135s-105 208.667 -105 356v138z
M278.001 471c0 -101.333 16.001 -183 48.001 -245s83 -93 153 -93c68 0 118.167 31.167 150.5 93.5s48.5 143.833 48.5 244.5v138c0 100 -16.333 181.167 -49 243.5s-83.334 93.5 -152.001 93.5c-69.333 0 -119.833 -31.167 -151.5 -93.5s-47.5 -143.5 -47.5 -243.5v-138z
M576.002 1239h-165l-224 266h230z" />
    <glyph glyph-name="oacute" unicode="&#xf3;" 
d="M77 609c0 146.667 35.001 265.5 105.001 356.5s168.333 136.5 295 136.5c127.333 0 226 -45.5 296 -136.5s105 -209.833 105 -356.5v-138c0 -148 -34.833 -266.833 -104.5 -356.5s-167.834 -134.5 -294.501 -134.5c-128 0 -227 45 -297 135s-105 208.667 -105 356v138z
M278.001 471c0 -101.333 16.001 -183 48.001 -245s83 -93 153 -93c68 0 118.167 31.167 150.5 93.5s48.5 143.833 48.5 244.5v138c0 100 -16.333 181.167 -49 243.5s-83.334 93.5 -152.001 93.5c-69.333 0 -119.833 -31.167 -151.5 -93.5s-47.5 -143.5 -47.5 -243.5v-138z
M540.002 1502h230l-234 -266h-158z" />
    <glyph glyph-name="ocircumflex" unicode="&#xf4;" 
d="M77 609c0 146.667 35.001 265.5 105.001 356.5s168.333 136.5 295 136.5c127.333 0 226 -45.5 296 -136.5s105 -209.833 105 -356.5v-138c0 -148 -34.833 -266.833 -104.5 -356.5s-167.834 -134.5 -294.501 -134.5c-128 0 -227 45 -297 135s-105 208.667 -105 356v138z
M278.001 471c0 -101.333 16.001 -183 48.001 -245s83 -93 153 -93c68 0 118.167 31.167 150.5 93.5s48.5 143.833 48.5 244.5v138c0 100 -16.333 181.167 -49 243.5s-83.334 93.5 -152.001 93.5c-69.333 0 -119.833 -31.167 -151.5 -93.5s-47.5 -143.5 -47.5 -243.5v-138z
M754.002 1299v-22h-154l-122 155l-120 -155h-153v23l214 232h118z" />
    <glyph glyph-name="otilde" unicode="&#xf5;" 
d="M77 609c0 146.667 35.001 265.5 105.001 356.5s168.333 136.5 295 136.5c127.333 0 226 -45.5 296 -136.5s105 -209.833 105 -356.5v-138c0 -148 -34.833 -266.833 -104.5 -356.5s-167.834 -134.5 -294.501 -134.5c-128 0 -227 45 -297 135s-105 208.667 -105 356v138z
M278.001 471c0 -101.333 16.001 -183 48.001 -245s83 -93 153 -93c68 0 118.167 31.167 150.5 93.5s48.5 143.833 48.5 244.5v138c0 100 -16.333 181.167 -49 243.5s-83.334 93.5 -152.001 93.5c-69.333 0 -119.833 -31.167 -151.5 -93.5s-47.5 -143.5 -47.5 -243.5v-138z
M769.002 1516c0 -62.667 -15.666 -114.667 -46.999 -156s-72 -62 -122 -62c-38.667 0 -79.834 16.333 -123.501 49s-79.5 49 -107.5 49c-21.333 0 -39 -11 -53 -33s-21 -49.667 -21 -83l-108 28c0 62 15.5 114.167 46.5 156.5s71.5 63.5 121.5 63.5
c30.667 0 69.834 -16.5 117.501 -49.5s85.5 -49.5 113.5 -49.5c21.333 0 39.166 11.167 53.499 33.5s21.5 50.5 21.5 84.5z" />
    <glyph glyph-name="odieresis" unicode="&#xf6;" 
d="M77 609c0 146.667 35.001 265.5 105.001 356.5s168.333 136.5 295 136.5c127.333 0 226 -45.5 296 -136.5s105 -209.833 105 -356.5v-138c0 -148 -34.833 -266.833 -104.5 -356.5s-167.834 -134.5 -294.501 -134.5c-128 0 -227 45 -297 135s-105 208.667 -105 356v138z
M278.001 471c0 -101.333 16.001 -183 48.001 -245s83 -93 153 -93c68 0 118.167 31.167 150.5 93.5s48.5 143.833 48.5 244.5v138c0 100 -16.333 181.167 -49 243.5s-83.334 93.5 -152.001 93.5c-69.333 0 -119.833 -31.167 -151.5 -93.5s-47.5 -143.5 -47.5 -243.5v-138z
M783.002 1295h-202v185h202v-185zM375.002 1295h-201v185h201v-185z" />
    <glyph glyph-name="divide" unicode="&#xf7;" horiz-adv-x="964" 
d="M881 608h-815v171h815v-171zM574 995h-201v195h201v-195zM574 188h-201v195h201v-195z" />
    <glyph glyph-name="oslash" unicode="&#xf8;" horiz-adv-x="958" 
d="M77 609c0 146.667 35.001 265.5 105.001 356.5s168.333 136.5 295 136.5c28.667 0 56 -2.83301 82 -8.5s51.333 -13.5 76 -23.5l57 143h118l-81 -205c48.667 -44.667 85.667 -101 111 -169s38 -144.667 38 -230v-138c0 -148 -34.833 -266.833 -104.5 -356.5
s-167.834 -134.5 -294.501 -134.5c-27.333 0 -52.833 2.16699 -76.5 6.5s-46.5 10.833 -68.5 19.5l-57 -145h-118l79 201c-53.333 44 -93.5 100.667 -120.5 170s-40.5 149 -40.5 239v138zM278.001 471c0 -42.667 2.83203 -82.167 8.49902 -118.5
s14.834 -68.833 27.501 -97.5l260 660c-14 10 -29 17.667 -45 23s-33.333 8 -52 8c-69.333 0 -119.833 -31.167 -151.5 -93.5s-47.5 -143.5 -47.5 -243.5v-138zM678 609c0 37.333 -2.5 72.333 -7.5 105s-12.167 63 -21.5 91l-256 -649c12 -8 25 -13.833 39 -17.5
s29.667 -5.5 47 -5.5c68 0 118.167 31.167 150.5 93.5s48.5 143.833 48.5 244.5v138z" />
    <glyph glyph-name="ugrave" unicode="&#xf9;" 
d="M654 138h-2.00293c-27.333 -51.333 -61.666 -90.5 -102.999 -117.5s-89.333 -40.5 -144 -40.5c-94.667 0 -167.667 36.833 -219 110.5s-77 191.167 -77 352.5v639h200v-641c0 -113.333 11.667 -192.333 35 -237s60 -67 110 -67c46.667 0 85.334 11.167 116.001 33.5
s55.334 54.833 74.001 97.5v814h200v-1082h-177zM573.997 1218h-165l-224 266h230z" />
    <glyph glyph-name="uacute" unicode="&#xfa;" 
d="M654 138h-2.00293c-27.333 -51.333 -61.666 -90.5 -102.999 -117.5s-89.333 -40.5 -144 -40.5c-94.667 0 -167.667 36.833 -219 110.5s-77 191.167 -77 352.5v639h200v-641c0 -113.333 11.667 -192.333 35 -237s60 -67 110 -67c46.667 0 85.334 11.167 116.001 33.5
s55.334 54.833 74.001 97.5v814h200v-1082h-177zM537.997 1481h230l-234 -266h-158z" />
    <glyph glyph-name="ucircumflex" unicode="&#xfb;" 
d="M654 138h-2.00293c-27.333 -51.333 -61.666 -90.5 -102.999 -117.5s-89.333 -40.5 -144 -40.5c-94.667 0 -167.667 36.833 -219 110.5s-77 191.167 -77 352.5v639h200v-641c0 -113.333 11.667 -192.333 35 -237s60 -67 110 -67c46.667 0 85.334 11.167 116.001 33.5
s55.334 54.833 74.001 97.5v814h200v-1082h-177zM751.997 1278v-22h-154l-122 155l-120 -155h-153v23l214 232h118z" />
    <glyph glyph-name="udieresis" unicode="&#xfc;" 
d="M654 138h-2.00293c-27.333 -51.333 -61.666 -90.5 -102.999 -117.5s-89.333 -40.5 -144 -40.5c-94.667 0 -167.667 36.833 -219 110.5s-77 191.167 -77 352.5v639h200v-641c0 -113.333 11.667 -192.333 35 -237s60 -67 110 -67c46.667 0 85.334 11.167 116.001 33.5
s55.334 54.833 74.001 97.5v814h200v-1082h-177zM780.997 1274h-202v185h202v-185zM372.997 1274h-201v185h201v-185z" />
    <glyph glyph-name="yacute" unicode="&#xfd;" horiz-adv-x="860" 
d="M405 373l14 -65h3l193 774h220l-360 -1250c-22.667 -74 -54.5 -137.333 -95.5 -190s-101.5 -79 -181.5 -79c-17.333 0 -34.5 1.66699 -51.5 5s-35.5 7.66602 -55.5 12.999l22 150c7.33301 -1.33301 16.833 -2.66602 28.5 -3.99902s20.834 -2 27.501 -2
c38 0 65.667 12.5 83 37.5s35.666 69.167 54.999 132.5l33 110l-316 1077h218zM490 1481h230l-234 -266h-158z" />
    <glyph glyph-name="thorn" unicode="&#xfe;" horiz-adv-x="968" 
d="M883 451c0 -145.333 -29.166 -260.167 -87.499 -344.5s-141.833 -126.5 -250.5 -126.5c-50 0 -93.333 9.83301 -130 29.5s-68 48.5 -94 86.5l-3 -1v-511h-200v1976h200v-580l3 -1c25.333 40 56.333 70.5 93 91.5s80 31.5 130 31.5
c109.333 0 193.166 -46.5 251.499 -139.5s87.5 -219.167 87.5 -378.5v-133zM683.001 583.999c0 108.667 -15.8359 195.834 -47.5029 261.501s-80.834 98.5 -147.501 98.5c-41.333 0 -75.666 -12 -102.999 -36s-49.666 -57.667 -66.999 -101v-549
c16.667 -40.667 38.834 -71.667 66.501 -93s62.834 -32 105.501 -32c66.667 0 115.5 28.667 146.5 86s46.5 134.666 46.5 231.999v133z" />
    <glyph glyph-name="ydieresis" unicode="&#xff;" horiz-adv-x="860" 
d="M405 373l14 -65h3l193 774h220l-360 -1250c-22.667 -74 -54.5 -137.333 -95.5 -190s-101.5 -79 -181.5 -79c-17.333 0 -34.5 1.66699 -51.5 5s-35.5 7.66602 -55.5 12.999l22 150c7.33301 -1.33301 16.833 -2.66602 28.5 -3.99902s20.834 -2 27.501 -2
c38 0 65.667 12.5 83 37.5s35.666 69.167 54.999 132.5l33 110l-316 1077h218zM734 1274h-202v185h202v-185zM326 1274h-201v185h201v-185z" />
    <glyph glyph-name="Amacron" unicode="&#x100;" horiz-adv-x="1103" 
d="M769 374h-435l-99 -374h-204l426 1456h194l420 -1456h-203zM376 529h352l-174 657h-4zM856 1652h-607v132h607v-132z" />
    <glyph glyph-name="amacron" unicode="&#x101;" horiz-adv-x="918" 
d="M635 0c-6.66699 24.667 -12.334 48.167 -17.001 70.5s-8 44.166 -10 65.499l-2 1c-28 -46 -62.667 -83.667 -104 -113s-87.666 -44 -138.999 -44c-89.333 0 -158.166 28.167 -206.499 84.5s-72.5 133.833 -72.5 232.5c0 105.333 32.833 187 98.5 245s160.167 87 283.5 87
h139v111c0 67.333 -13.167 119.166 -39.5 155.499s-64.5 54.5 -114.5 54.5c-46 0 -82 -16.167 -108 -48.5s-39 -74.5 -39 -126.5l-201 1c0 88.667 33 165.167 99 229.5s153.333 96.5 262 96.5c103.333 0 186.166 -30.833 248.499 -92.5s93.5 -152.167 93.5 -271.5v-502
c0 -41.333 2.5 -81.166 7.5 -119.499s12.833 -77.166 23.5 -116.499h-202zM409 136c44 0 83.333 13.167 118 39.5s60.667 60.166 78 101.499v226h-142c-58 0 -102.333 -19.667 -133 -59s-46 -88 -46 -146c0 -49.333 10.667 -88.666 32 -117.999s52.333 -44 93 -44zM759 1330
h-607v132h607v-132z" />
    <glyph glyph-name="Abreve" unicode="&#x102;" horiz-adv-x="1103" 
d="M769 374h-435l-99 -374h-204l426 1456h194l420 -1456h-203zM376 529h352l-174 657h-4zM824 1872c0 -83.333 -24.332 -149.5 -72.999 -198.5s-115.334 -73.5 -200.001 -73.5s-151.167 24.5 -199.5 73.5s-72.5 115.167 -72.5 198.5h151c0 -46.667 9.5 -84 28.5 -112
s49.833 -42 92.5 -42c42 0 72.667 14.167 92 42.5s29 65.5 29 111.5h152z" />
    <glyph glyph-name="abreve" unicode="&#x103;" horiz-adv-x="918" 
d="M635 0c-6.66699 24.667 -12.334 48.167 -17.001 70.5s-8 44.166 -10 65.499l-2 1c-28 -46 -62.667 -83.667 -104 -113s-87.666 -44 -138.999 -44c-89.333 0 -158.166 28.167 -206.499 84.5s-72.5 133.833 -72.5 232.5c0 105.333 32.833 187 98.5 245s160.167 87 283.5 87
h139v111c0 67.333 -13.167 119.166 -39.5 155.499s-64.5 54.5 -114.5 54.5c-46 0 -82 -16.167 -108 -48.5s-39 -74.5 -39 -126.5l-201 1c0 88.667 33 165.167 99 229.5s153.333 96.5 262 96.5c103.333 0 186.166 -30.833 248.499 -92.5s93.5 -152.167 93.5 -271.5v-502
c0 -41.333 2.5 -81.166 7.5 -119.499s12.833 -77.166 23.5 -116.499h-202zM409 136c44 0 83.333 13.167 118 39.5s60.667 60.166 78 101.499v226h-142c-58 0 -102.333 -19.667 -133 -59s-46 -88 -46 -146c0 -49.333 10.667 -88.666 32 -117.999s52.333 -44 93 -44zM727 1550
c0 -83.333 -24.332 -149.5 -72.999 -198.5s-115.334 -73.5 -200.001 -73.5s-151.167 24.5 -199.5 73.5s-72.5 115.167 -72.5 198.5h151c0 -46.667 9.5 -84 28.5 -112s49.833 -42 92.5 -42c42 0 72.667 14.167 92 42.5s29 65.5 29 111.5h152z" />
    <glyph glyph-name="Aogonek" unicode="&#x104;" horiz-adv-x="1103" 
d="M651 1456l419.999 -1456h-58c-42.667 -34.667 -74.667 -68.667 -96 -102s-32 -70.333 -32 -111c0 -24 4.16699 -42.667 12.5 -56s22.833 -20 43.5 -20c14 0 26.5 2.66699 37.5 8s21.833 12 32.5 20l19 -117c-17.333 -12.667 -36.5 -23.167 -57.5 -31.5
s-46.167 -12.5 -75.5 -12.5c-51.333 0 -92.666 16.167 -123.999 48.5s-47 78.833 -47 139.5c0 45.333 11.167 88.5 33.5 129.5s57.5 78.833 105.5 113.5l-96 365h-435l-99 -374h-204l426 1456h194zM375.999 529h352l-174 657h-4z" />
    <glyph glyph-name="aogonek" unicode="&#x105;" horiz-adv-x="918" 
d="M635 0c-6.66699 24.667 -12.335 48.168 -17.002 70.501s-8 44.166 -10 65.499l-2 1c-28 -46 -62.667 -83.667 -104 -113s-87.666 -44 -138.999 -44c-89.333 0 -158.166 28.167 -206.499 84.5s-72.5 133.833 -72.5 232.5c0 105.333 32.833 187 98.5 245
s160.167 87 283.5 87h139v111c0 67.333 -13.167 119.166 -39.5 155.499s-64.5 54.5 -114.5 54.5c-46 0 -82 -16.167 -108 -48.5s-39 -74.5 -39 -126.5l-201 1c0 88.667 33 165.167 99 229.5s153.333 96.5 262 96.5c103.333 0 186.166 -30.833 248.499 -92.5
s93.5 -152.167 93.5 -271.5v-502c0 -41.333 2.5 -81.166 7.5 -119.499s12.833 -77.166 23.5 -116.499h-30c-42.667 -34.667 -74.667 -68.667 -96 -102s-32 -70.333 -32 -111c0 -24 4.16699 -42.667 12.5 -56s22.833 -20 43.5 -20c14 0 26.5 2.66699 37.5 8
s21.833 12 32.5 20l19 -117c-17.333 -12.667 -36.5 -23.167 -57.5 -31.5s-46.167 -12.5 -75.5 -12.5c-51.333 0 -92.666 16.167 -123.999 48.5s-47 78.833 -47 139.5c0 43.333 10 84.666 30 123.999s51 75 93 107l-1 3h-7zM408.999 136.001c44 0 83.333 13.167 118 39.5
s60.667 60.166 78 101.499v226h-142c-58 0 -102.333 -19.667 -133 -59s-46 -88 -46 -146c0 -49.333 10.667 -88.666 32 -117.999s52.333 -44 93 -44z" />
    <glyph glyph-name="Cacute" unicode="&#x106;" horiz-adv-x="1053" 
d="M986 435c-2.66699 -149.333 -41.3369 -262.668 -116.004 -340.001s-180.667 -116 -318 -116c-139.333 0 -247.666 46.833 -324.999 140.5s-116 228.834 -116 405.501v404c0 176 39 311.333 117 406s186 142 324 142c140 0 246.333 -38.167 319 -114.5
s111.334 -191.833 116.001 -346.5h-201c-1.33301 106.667 -20.166 184.167 -56.499 232.5s-95.5 72.5 -177.5 72.5c-79.333 0 -139.333 -32.667 -180 -98s-61 -162.333 -61 -291v-407c0 -130.667 19.833 -228.667 59.5 -294s100.167 -98 181.5 -98
c80.667 0 139.334 23.167 176.001 69.5s56 123.833 58 232.5h200zM623.997 1845h230l-234 -266h-158z" />
    <glyph glyph-name="cacute" unicode="&#x107;" horiz-adv-x="891" 
d="M471 133c48 0 89 19.3311 123 57.998s49.667 91.667 47 159h188c2.66699 -106.667 -31.333 -195 -102 -265s-155 -105 -253 -105c-131.333 0 -230.333 44.833 -297 134.5s-100 206.5 -100 350.5v149c0 144 33.5 261.333 100.5 352s165.5 136 295.5 136
c108.667 0 195.667 -36.167 261 -108.5s97 -170.166 95 -293.499h-188c2 74.667 -12.5 134.334 -43.5 179.001s-73.167 67 -126.5 67c-73.333 0 -123.833 -30.5 -151.5 -91.5s-41.5 -141.167 -41.5 -240.5v-149c0 -101.333 13.667 -182 41 -242s78 -90 152 -90zM504 1502
h230l-234 -266h-158z" />
    <glyph glyph-name="Ccircumflex" unicode="&#x108;" horiz-adv-x="1053" 
d="M986 435c-2.66699 -149.333 -41.3369 -262.668 -116.004 -340.001s-180.667 -116 -318 -116c-139.333 0 -247.666 46.833 -324.999 140.5s-116 228.834 -116 405.501v404c0 176 39 311.333 117 406s186 142 324 142c140 0 246.333 -38.167 319 -114.5
s111.334 -191.833 116.001 -346.5h-201c-1.33301 106.667 -20.166 184.167 -56.499 232.5s-95.5 72.5 -177.5 72.5c-79.333 0 -139.333 -32.667 -180 -98s-61 -162.333 -61 -291v-407c0 -130.667 19.833 -228.667 59.5 -294s100.167 -98 181.5 -98
c80.667 0 139.334 23.167 176.001 69.5s56 123.833 58 232.5h200zM837.997 1642v-22h-154l-122 155l-120 -155h-153v23l214 232h118z" />
    <glyph glyph-name="ccircumflex" unicode="&#x109;" horiz-adv-x="891" 
d="M471 133c48 0 89 19.3311 123 57.998s49.667 91.667 47 159h188c2.66699 -106.667 -31.333 -195 -102 -265s-155 -105 -253 -105c-131.333 0 -230.333 44.833 -297 134.5s-100 206.5 -100 350.5v149c0 144 33.5 261.333 100.5 352s165.5 136 295.5 136
c108.667 0 195.667 -36.167 261 -108.5s97 -170.166 95 -293.499h-188c2 74.667 -12.5 134.334 -43.5 179.001s-73.167 67 -126.5 67c-73.333 0 -123.833 -30.5 -151.5 -91.5s-41.5 -141.167 -41.5 -240.5v-149c0 -101.333 13.667 -182 41 -242s78 -90 152 -90zM718 1299
v-22h-154l-122 155l-120 -155h-153v23l214 232h118z" />
    <glyph glyph-name="uni010A" unicode="&#x10a;" horiz-adv-x="1053" 
d="M986 435c-2.66699 -149.333 -41.3369 -262.668 -116.004 -340.001s-180.667 -116 -318 -116c-139.333 0 -247.666 46.833 -324.999 140.5s-116 228.834 -116 405.501v404c0 176 39 311.333 117 406s186 142 324 142c140 0 246.333 -38.167 319 -114.5
s111.334 -191.833 116.001 -346.5h-201c-1.33301 106.667 -20.166 184.167 -56.499 232.5s-95.5 72.5 -177.5 72.5c-79.333 0 -139.333 -32.667 -180 -98s-61 -162.333 -61 -291v-407c0 -130.667 19.833 -228.667 59.5 -294s100.167 -98 181.5 -98
c80.667 0 139.334 23.167 176.001 69.5s56 123.833 58 232.5h200zM667.997 1637h-213v200h213v-200z" />
    <glyph glyph-name="uni010B" unicode="&#x10b;" horiz-adv-x="891" 
d="M471 133c48 0 89 19.3311 123 57.998s49.667 91.667 47 159h188c2.66699 -106.667 -31.333 -195 -102 -265s-155 -105 -253 -105c-131.333 0 -230.333 44.833 -297 134.5s-100 206.5 -100 350.5v149c0 144 33.5 261.333 100.5 352s165.5 136 295.5 136
c108.667 0 195.667 -36.167 261 -108.5s97 -170.166 95 -293.499h-188c2 74.667 -12.5 134.334 -43.5 179.001s-73.167 67 -126.5 67c-73.333 0 -123.833 -30.5 -151.5 -91.5s-41.5 -141.167 -41.5 -240.5v-149c0 -101.333 13.667 -182 41 -242s78 -90 152 -90zM548 1294
h-213v200h213v-200z" />
    <glyph glyph-name="Ccaron" unicode="&#x10c;" horiz-adv-x="1053" 
d="M986 435c-2.66699 -149.333 -41.3369 -262.668 -116.004 -340.001s-180.667 -116 -318 -116c-139.333 0 -247.666 46.833 -324.999 140.5s-116 228.834 -116 405.501v404c0 176 39 311.333 117 406s186 142 324 142c140 0 246.333 -38.167 319 -114.5
s111.334 -191.833 116.001 -346.5h-201c-1.33301 106.667 -20.166 184.167 -56.499 232.5s-95.5 72.5 -177.5 72.5c-79.333 0 -139.333 -32.667 -180 -98s-61 -162.333 -61 -291v-407c0 -130.667 19.833 -228.667 59.5 -294s100.167 -98 181.5 -98
c80.667 0 139.334 23.167 176.001 69.5s56 123.833 58 232.5h200zM561.997 1726l111 154h172v-17l-217 -240h-131l-216 239v18h169z" />
    <glyph glyph-name="ccaron" unicode="&#x10d;" horiz-adv-x="891" 
d="M471 133c48 0 89 19.3311 123 57.998s49.667 91.667 47 159h188c2.66699 -106.667 -31.333 -195 -102 -265s-155 -105 -253 -105c-131.333 0 -230.333 44.833 -297 134.5s-100 206.5 -100 350.5v149c0 144 33.5 261.333 100.5 352s165.5 136 295.5 136
c108.667 0 195.667 -36.167 261 -108.5s97 -170.166 95 -293.499h-188c2 74.667 -12.5 134.334 -43.5 179.001s-73.167 67 -126.5 67c-73.333 0 -123.833 -30.5 -151.5 -91.5s-41.5 -141.167 -41.5 -240.5v-149c0 -101.333 13.667 -182 41 -242s78 -90 152 -90zM442 1383
l111 154h172v-17l-217 -240h-131l-216 239v18h169z" />
    <glyph glyph-name="Dcaron" unicode="&#x10e;" horiz-adv-x="1130" 
d="M137 0v1456h347c173.333 0 305 -49.333 395 -148s135 -249 135 -451v-260c0 -203.333 -45.333 -353.666 -136 -450.999s-225 -146 -403 -146h-338zM338 1300l-0.000976562 -1146h130c126.667 0 216 35.167 268 105.5s78 182.833 78 337.5v262
c0 155.333 -25.667 267.666 -77 336.999s-137.666 104 -258.999 104h-140zM497.999 1705l111 154h172v-17l-217 -240h-131l-216 239v18h169z" />
    <glyph glyph-name="dcaron" unicode="&#x10f;" horiz-adv-x="1107" 
d="M77 528c0 176.667 29.3311 316.5 87.998 419.5s143 154.5 253 154.5c47.333 0 88.833 -10.333 124.5 -31s66.834 -50.667 93.501 -90l3 1v578h201v-1560h-175l-14 115l-3 1c-27.333 -44.667 -60 -78.5 -98 -101.5s-82.667 -34.5 -134 -34.5
c-109.333 0 -193.166 47.167 -251.499 141.5s-87.5 222.833 -87.5 385.5v21zM276.998 507c0 -116 14.832 -206.667 44.499 -272s77.834 -98 144.501 -98c40.667 0 75 11.167 103 33.5s51.333 54.5 70 96.5v538c-18.667 44 -42 78.167 -70 102.5s-61.667 36.5 -101 36.5
c-66.667 0 -115.167 -37.667 -145.5 -113s-45.5 -176.333 -45.5 -303v-21zM1113 1454c0 -59.333 -10.5 -118.332 -31.5 -176.999s-49.833 -108.334 -86.5 -149.001l-104 67c20 41.333 35 81.333 45 120s15 83 15 133v111h162v-105z" />
    <glyph glyph-name="Dcroat" unicode="&#x110;" horiz-adv-x="1160" 
d="M167 0v669.999h-122v141h122v645h347c173.333 0 305 -49.333 395 -148s135 -249 135 -451v-260c0 -203.333 -45.333 -353.666 -136 -450.999s-225 -146 -403 -146h-338zM574 669.999l-206.001 0.000976562v-516h130c126.667 0 216 35.167 268 105.5s78 182.833 78 337.5
v262c0 155.333 -25.667 267.666 -77 336.999s-137.666 104 -258.999 104h-140v-489h206v-141z" />
    <glyph glyph-name="dcroat" unicode="&#x111;" horiz-adv-x="987" 
d="M973 1238h-133.002v-1238h-175l-14 115l-3 1c-27.333 -44.667 -60 -78.5 -98 -101.5s-82.667 -34.5 -134 -34.5c-109.333 0 -193.166 47.167 -251.499 141.5s-87.5 222.833 -87.5 385.5v21c0 176.667 29.333 316.5 88 419.5s143 154.5 253 154.5
c47.333 0 88.833 -10.333 124.5 -31s66.834 -50.667 93.501 -90l3 1v256h-195v141h195v181h201v-181h133v-141zM276.998 507c0 -116 14.832 -206.667 44.499 -272s77.834 -98 144.501 -98c40.667 0 75 11.167 103 33.5s51.333 54.5 70 96.5v538
c-18.667 44 -42 78.167 -70 102.5s-61.667 36.5 -101 36.5c-66.667 0 -115.167 -37.667 -145.5 -113s-45.5 -176.333 -45.5 -303v-21z" />
    <glyph glyph-name="Emacron" unicode="&#x112;" horiz-adv-x="977" 
d="M846 676h-508v-522h590v-154h-791v1456h786v-156h-585v-469h508v-155zM812 1652h-607v132h607v-132z" />
    <glyph glyph-name="emacron" unicode="&#x113;" horiz-adv-x="894" 
d="M477 -20c-122 0 -218.667 43.833 -290 131.5s-107 202.5 -107 344.5v158c0 144 35.333 261.333 106 352s162.667 136 276 136c120 0 211 -41.167 273 -123.5s93 -195.5 93 -339.5v-140h-547v-43c0 -96 17.333 -173.833 52 -233.5s87 -89.5 157 -89.5
c64 0 115.167 9 153.5 27s71.5 43.667 99.5 77l57 -130c-32.667 -39.333 -76.167 -70.333 -130.5 -93s-118.5 -34 -192.5 -34zM462 946c-54.667 0 -97.667 -28 -129 -84s-48.666 -128.667 -51.999 -218h349v41c0 78 -13.833 141 -41.5 189s-69.834 72 -126.501 72zM760 1331
h-607v132h607v-132z" />
    <glyph glyph-name="Ebreve" unicode="&#x114;" horiz-adv-x="977" 
d="M846 676h-508v-522h590v-154h-791v1456h786v-156h-585v-469h508v-155zM780 1872c0 -83.333 -24.332 -149.5 -72.999 -198.5s-115.334 -73.5 -200.001 -73.5s-151.167 24.5 -199.5 73.5s-72.5 115.167 -72.5 198.5h151c0 -46.667 9.5 -84 28.5 -112s49.833 -42 92.5 -42
c42 0 72.667 14.167 92 42.5s29 65.5 29 111.5h152z" />
    <glyph glyph-name="ebreve" unicode="&#x115;" horiz-adv-x="894" 
d="M477 -20c-122 0 -218.667 43.833 -290 131.5s-107 202.5 -107 344.5v158c0 144 35.333 261.333 106 352s162.667 136 276 136c120 0 211 -41.167 273 -123.5s93 -195.5 93 -339.5v-140h-547v-43c0 -96 17.333 -173.833 52 -233.5s87 -89.5 157 -89.5
c64 0 115.167 9 153.5 27s71.5 43.667 99.5 77l57 -130c-32.667 -39.333 -76.167 -70.333 -130.5 -93s-118.5 -34 -192.5 -34zM462 946c-54.667 0 -97.667 -28 -129 -84s-48.666 -128.667 -51.999 -218h349v41c0 78 -13.833 141 -41.5 189s-69.834 72 -126.501 72zM728 1551
c0 -83.333 -24.332 -149.5 -72.999 -198.5s-115.334 -73.5 -200.001 -73.5s-151.167 24.5 -199.5 73.5s-72.5 115.167 -72.5 198.5h151c0 -46.667 9.5 -84 28.5 -112s49.833 -42 92.5 -42c42 0 72.667 14.167 92 42.5s29 65.5 29 111.5h152z" />
    <glyph glyph-name="Edotaccent" unicode="&#x116;" horiz-adv-x="977" 
d="M846 676h-508v-522h590v-154h-791v1456h786v-156h-585v-469h508v-155zM612 1616h-213v200h213v-200z" />
    <glyph glyph-name="edotaccent" unicode="&#x117;" horiz-adv-x="894" 
d="M477 -20c-122 0 -218.667 43.833 -290 131.5s-107 202.5 -107 344.5v158c0 144 35.333 261.333 106 352s162.667 136 276 136c120 0 211 -41.167 273 -123.5s93 -195.5 93 -339.5v-140h-547v-43c0 -96 17.333 -173.833 52 -233.5s87 -89.5 157 -89.5
c64 0 115.167 9 153.5 27s71.5 43.667 99.5 77l57 -130c-32.667 -39.333 -76.167 -70.333 -130.5 -93s-118.5 -34 -192.5 -34zM462 946c-54.667 0 -97.667 -28 -129 -84s-48.666 -128.667 -51.999 -218h349v41c0 78 -13.833 141 -41.5 189s-69.834 72 -126.501 72zM560 1295
h-213v200h213v-200z" />
    <glyph glyph-name="Eogonek" unicode="&#x118;" horiz-adv-x="977" 
d="M846 676l-508.001 0.000976562v-522h590v-154h-52c-42.667 -34.667 -74.667 -68.667 -96 -102s-32 -70.333 -32 -111c0 -24 4.16699 -42.667 12.5 -56s22.833 -20 43.5 -20c14 0 26.5 2.66699 37.5 8s21.833 12 32.5 20l19 -117
c-17.333 -12.667 -36.5 -23.167 -57.5 -31.5s-46.167 -12.5 -75.5 -12.5c-51.333 0 -92.666 16.167 -123.999 48.5s-47 78.833 -47 139.5c0 43.333 10 84.666 30 123.999s51 75 93 107l-1 3h-574v1456h786v-156h-585v-469h508v-155z" />
    <glyph glyph-name="eogonek" unicode="&#x119;" horiz-adv-x="894" 
d="M800 107c-17.333 -21.333 -37.834 -40.001 -61.501 -56.001s-50.5 -29.667 -80.5 -41c-37.333 -31.333 -65.333 -62.833 -84 -94.5s-28 -66.5 -28 -104.5c0 -24 4.16699 -42.667 12.5 -56s22.833 -20 43.5 -20c14 0 26.5 2.66699 37.5 8s21.833 12 32.5 20l19 -117
c-17.333 -12.667 -36.5 -23.167 -57.5 -31.5s-46.167 -12.5 -75.5 -12.5c-51.333 0 -92.666 16.167 -123.999 48.5s-47 78.833 -47 139.5c0 34.667 6.33301 67.834 19 99.501s32.667 62.167 60 91.5c-118.667 3.33301 -212.667 48.5 -282 135.5s-104 200.167 -104 339.5v158
c0 144 35.333 261.333 106 352s162.667 136 276 136c120 0 211 -41.167 273 -123.5s93 -195.5 93 -339.5v-140h-547v-43c0 -96 17.333 -173.833 52 -233.5s87 -89.5 157 -89.5c64 0 115.167 9 153.5 27s71.5 43.667 99.5 77zM461.999 945.999
c-54.667 0 -97.667 -28 -129 -84s-48.666 -128.667 -51.999 -218h349v41c0 78 -13.833 141 -41.5 189s-69.834 72 -126.501 72z" />
    <glyph glyph-name="Ecaron" unicode="&#x11a;" horiz-adv-x="977" 
d="M846 676h-508v-522h590v-154h-791v1456h786v-156h-585v-469h508v-155zM506 1705l111 154h172v-17l-217 -240h-131l-216 239v18h169z" />
    <glyph glyph-name="ecaron" unicode="&#x11b;" horiz-adv-x="894" 
d="M477 -20c-122 0 -218.667 43.833 -290 131.5s-107 202.5 -107 344.5v158c0 144 35.333 261.333 106 352s162.667 136 276 136c120 0 211 -41.167 273 -123.5s93 -195.5 93 -339.5v-140h-547v-43c0 -96 17.333 -173.833 52 -233.5s87 -89.5 157 -89.5
c64 0 115.167 9 153.5 27s71.5 43.667 99.5 77l57 -130c-32.667 -39.333 -76.167 -70.333 -130.5 -93s-118.5 -34 -192.5 -34zM462 946c-54.667 0 -97.667 -28 -129 -84s-48.666 -128.667 -51.999 -218h349v41c0 78 -13.833 141 -41.5 189s-69.834 72 -126.501 72zM454 1384
l111 154h172v-17l-217 -240h-131l-216 239v18h169z" />
    <glyph glyph-name="Gcircumflex" unicode="&#x11c;" horiz-adv-x="1125" 
d="M1004 203c-33.333 -59.333 -84.167 -111.502 -152.5 -156.502s-159.166 -67.5 -272.499 -67.5c-148 0 -265 45.5 -351 136.5s-129 223.833 -129 398.5v432c0 172.667 41 304.334 123 395.001s194 136 336 136c144 0 252 -36.833 324 -110.5s112.333 -181.5 121 -323.5
h-197c-3.33301 92.667 -24.333 162.167 -63 208.5s-99.334 69.5 -182.001 69.5c-84 0 -148.667 -31.167 -194 -93.5s-68 -155.5 -68 -279.5v-434c0 -127.333 24.333 -222.666 73 -285.999s117.667 -95 207 -95c65.333 0 114.5 11.5 147.5 34.5s58.5 53.5 76.5 91.5v331h-225
v147h426v-534zM831.999 1642v-22h-154l-122 155l-120 -155h-153v23l214 232h118z" />
    <glyph glyph-name="gcircumflex" unicode="&#x11d;" horiz-adv-x="956" 
d="M78 584c0 158.667 29.502 284.664 88.502 377.997s143.833 140 254.5 140c52 0 97 -12.167 135 -36.5s70.333 -59.166 97 -104.499l3 1l14 120h173v-1077c0 -141.333 -34.333 -250.166 -103 -326.499s-166.667 -114.5 -294 -114.5c-46 0 -93.5 7.16699 -142.5 21.5
s-94.833 34.5 -137.5 60.5l42 141c36 -21.333 73 -38.333 111 -51s77.333 -19 118 -19c70.667 0 122.5 24.5 155.5 73.5s49.5 120.833 49.5 215.5v88l-3 1c-26.667 -38 -57.834 -66.667 -93.501 -86s-77.834 -29 -126.501 -29c-109.333 0 -193.5 42.333 -252.5 127
s-88.5 199.334 -88.5 344.001v133zM279.002 450.997c0 -97.333 15 -174.001 45 -230.001s78.667 -84 146 -84c41.333 0 75.833 10.667 103.5 32s50.5 52.666 68.5 93.999v546c-18 42.667 -41 75.834 -69 99.501s-61.667 35.5 -101 35.5c-67.333 0 -116.333 -32.667 -147 -98
s-46 -152.666 -46 -261.999v-133zM738.002 1299v-22h-154l-122 155l-120 -155h-153v23l214 232h118z" />
    <glyph glyph-name="Gbreve" unicode="&#x11e;" horiz-adv-x="1125" 
d="M1004 203c-33.333 -59.333 -84.167 -111.502 -152.5 -156.502s-159.166 -67.5 -272.499 -67.5c-148 0 -265 45.5 -351 136.5s-129 223.833 -129 398.5v432c0 172.667 41 304.334 123 395.001s194 136 336 136c144 0 252 -36.833 324 -110.5s112.333 -181.5 121 -323.5
h-197c-3.33301 92.667 -24.333 162.167 -63 208.5s-99.334 69.5 -182.001 69.5c-84 0 -148.667 -31.167 -194 -93.5s-68 -155.5 -68 -279.5v-434c0 -127.333 24.333 -222.666 73 -285.999s117.667 -95 207 -95c65.333 0 114.5 11.5 147.5 34.5s58.5 53.5 76.5 91.5v331h-225
v147h426v-534zM829.999 1893c0 -83.333 -24.332 -149.5 -72.999 -198.5s-115.334 -73.5 -200.001 -73.5s-151.167 24.5 -199.5 73.5s-72.5 115.167 -72.5 198.5h151c0 -46.667 9.5 -84 28.5 -112s49.833 -42 92.5 -42c42 0 72.667 14.167 92 42.5s29 65.5 29 111.5h152z" />
    <glyph glyph-name="gbreve" unicode="&#x11f;" horiz-adv-x="956" 
d="M78 584c0 158.667 29.502 284.664 88.502 377.997s143.833 140 254.5 140c52 0 97 -12.167 135 -36.5s70.333 -59.166 97 -104.499l3 1l14 120h173v-1077c0 -141.333 -34.333 -250.166 -103 -326.499s-166.667 -114.5 -294 -114.5c-46 0 -93.5 7.16699 -142.5 21.5
s-94.833 34.5 -137.5 60.5l42 141c36 -21.333 73 -38.333 111 -51s77.333 -19 118 -19c70.667 0 122.5 24.5 155.5 73.5s49.5 120.833 49.5 215.5v88l-3 1c-26.667 -38 -57.834 -66.667 -93.501 -86s-77.834 -29 -126.501 -29c-109.333 0 -193.5 42.333 -252.5 127
s-88.5 199.334 -88.5 344.001v133zM279.002 450.997c0 -97.333 15 -174.001 45 -230.001s78.667 -84 146 -84c41.333 0 75.833 10.667 103.5 32s50.5 52.666 68.5 93.999v546c-18 42.667 -41 75.834 -69 99.501s-61.667 35.5 -101 35.5c-67.333 0 -116.333 -32.667 -147 -98
s-46 -152.666 -46 -261.999v-133zM736.002 1550c0 -83.333 -24.332 -149.5 -72.999 -198.5s-115.334 -73.5 -200.001 -73.5s-151.167 24.5 -199.5 73.5s-72.5 115.167 -72.5 198.5h151c0 -46.667 9.5 -84 28.5 -112s49.833 -42 92.5 -42c42 0 72.667 14.167 92 42.5
s29 65.5 29 111.5h152z" />
    <glyph glyph-name="uni0120" unicode="&#x120;" horiz-adv-x="1125" 
d="M1004 203c-33.333 -59.333 -84.167 -111.502 -152.5 -156.502s-159.166 -67.5 -272.499 -67.5c-148 0 -265 45.5 -351 136.5s-129 223.833 -129 398.5v432c0 172.667 41 304.334 123 395.001s194 136 336 136c144 0 252 -36.833 324 -110.5s112.333 -181.5 121 -323.5
h-197c-3.33301 92.667 -24.333 162.167 -63 208.5s-99.334 69.5 -182.001 69.5c-84 0 -148.667 -31.167 -194 -93.5s-68 -155.5 -68 -279.5v-434c0 -127.333 24.333 -222.666 73 -285.999s117.667 -95 207 -95c65.333 0 114.5 11.5 147.5 34.5s58.5 53.5 76.5 91.5v331h-225
v147h426v-534zM661.999 1637h-213v200h213v-200z" />
    <glyph glyph-name="uni0121" unicode="&#x121;" horiz-adv-x="956" 
d="M78 584c0 158.667 29.502 284.664 88.502 377.997s143.833 140 254.5 140c52 0 97 -12.167 135 -36.5s70.333 -59.166 97 -104.499l3 1l14 120h173v-1077c0 -141.333 -34.333 -250.166 -103 -326.499s-166.667 -114.5 -294 -114.5c-46 0 -93.5 7.16699 -142.5 21.5
s-94.833 34.5 -137.5 60.5l42 141c36 -21.333 73 -38.333 111 -51s77.333 -19 118 -19c70.667 0 122.5 24.5 155.5 73.5s49.5 120.833 49.5 215.5v88l-3 1c-26.667 -38 -57.834 -66.667 -93.501 -86s-77.834 -29 -126.501 -29c-109.333 0 -193.5 42.333 -252.5 127
s-88.5 199.334 -88.5 344.001v133zM279.002 450.997c0 -97.333 15 -174.001 45 -230.001s78.667 -84 146 -84c41.333 0 75.833 10.667 103.5 32s50.5 52.666 68.5 93.999v546c-18 42.667 -41 75.834 -69 99.501s-61.667 35.5 -101 35.5c-67.333 0 -116.333 -32.667 -147 -98
s-46 -152.666 -46 -261.999v-133zM568.002 1294h-213v200h213v-200z" />
    <glyph glyph-name="Gcommaaccent" unicode="&#x122;" horiz-adv-x="1125" 
d="M1004 203c-33.333 -59.333 -84.167 -111.502 -152.5 -156.502s-159.166 -67.5 -272.499 -67.5c-148 0 -265 45.5 -351 136.5s-129 223.833 -129 398.5v432c0 172.667 41 304.334 123 395.001s194 136 336 136c144 0 252 -36.833 324 -110.5s112.333 -181.5 121 -323.5
h-197c-3.33301 92.667 -24.333 162.167 -63 208.5s-99.334 69.5 -182.001 69.5c-84 0 -148.667 -31.167 -194 -93.5s-68 -155.5 -68 -279.5v-434c0 -127.333 24.333 -222.666 73 -285.999s117.667 -95 207 -95c65.333 0 114.5 11.5 147.5 34.5s58.5 53.5 76.5 91.5v331h-225
v147h426v-534zM641.999 -202.002c0 -59.333 -10.5 -118.332 -31.5 -176.999s-49.833 -108.334 -86.5 -149.001l-104 67c20 41.333 35 81.333 45 120s15 83 15 133v111h162v-105z" />
    <glyph glyph-name="gcommaaccent" unicode="&#x123;" horiz-adv-x="956" 
d="M78 584c0 158.667 29.502 284.664 88.502 377.997s143.833 140 254.5 140c52 0 97 -12.167 135 -36.5s70.333 -59.166 97 -104.499l3 1l14 120h173v-1077c0 -141.333 -34.333 -250.166 -103 -326.499s-166.667 -114.5 -294 -114.5c-46 0 -93.5 7.16699 -142.5 21.5
s-94.833 34.5 -137.5 60.5l42 141c36 -21.333 73 -38.333 111 -51s77.333 -19 118 -19c70.667 0 122.5 24.5 155.5 73.5s49.5 120.833 49.5 215.5v88l-3 1c-26.667 -38 -57.834 -66.667 -93.501 -86s-77.834 -29 -126.501 -29c-109.333 0 -193.5 42.333 -252.5 127
s-88.5 199.334 -88.5 344.001v133zM279.002 450.997c0 -97.333 15 -174.001 45 -230.001s78.667 -84 146 -84c41.333 0 75.833 10.667 103.5 32s50.5 52.666 68.5 93.999v546c-18 42.667 -41 75.834 -69 99.501s-61.667 35.5 -101 35.5c-67.333 0 -116.333 -32.667 -147 -98
s-46 -152.666 -46 -261.999v-133zM369.002 1411l94 238h105l-23 -244v-146h-176v152z" />
    <glyph glyph-name="Hcircumflex" unicode="&#x124;" horiz-adv-x="1194" 
d="M1056 0h-201v642h-517v-642h-201v1456h201v-659h517v659h201v-1456zM868 1621v-22h-154l-122 155l-120 -155h-153v23l214 232h118z" />
    <glyph glyph-name="hcircumflex" unicode="&#x125;" 
d="M311 954l2.99902 -1c28 46.667 62.167 83.167 102.5 109.5s85.833 39.5 136.5 39.5c94 0 166.333 -35.167 217 -105.5s76 -181.833 76 -334.5v-662h-200v664c0 102 -13.167 174.167 -39.5 216.5s-67.166 63.5 -122.499 63.5c-37.333 0 -70.5 -11.167 -99.5 -33.5
s-53.5 -53.5 -73.5 -93.5v-817h-201v1560h201v-606zM703.999 1636v-22h-154l-122 155l-120 -155h-153v23l214 232h118z" />
    <glyph glyph-name="Hbar" unicode="&#x126;" horiz-adv-x="1185" 
d="M1055 1159h108v-133h-108v-1026h-201v642h-517v-642h-201v1026h-105v133h105v297h201v-297h517v297h201v-297zM337 797h517v229h-517v-229z" />
    <glyph glyph-name="hbar" unicode="&#x127;" horiz-adv-x="987" 
d="M543 1237h-202.001v-283l3 -1c28 46.667 62.167 83.167 102.5 109.5s85.833 39.5 136.5 39.5c94 0 166.333 -35.167 217 -105.5s76 -181.833 76 -334.5v-662h-200v664c0 102 -13.167 174.167 -39.5 216.5s-67.166 63.5 -122.499 63.5
c-37.333 0 -70.5 -11.167 -99.5 -33.5s-53.5 -53.5 -73.5 -93.5v-817h-201v1237h-126v141h126v182h201v-182h202v-141z" />
    <glyph glyph-name="Itilde" unicode="&#x128;" horiz-adv-x="499" 
d="M350 0h-201v1456h201v-1456zM540 1838c0 -62.667 -15.666 -114.667 -46.999 -156s-72 -62 -122 -62c-38.667 0 -79.834 16.333 -123.501 49s-79.5 49 -107.5 49c-21.333 0 -39 -11 -53 -33s-21 -49.667 -21 -83l-108 28c0 62 15.5 114.167 46.5 156.5
s71.5 63.5 121.5 63.5c30.667 0 69.834 -16.5 117.501 -49.5s85.5 -49.5 113.5 -49.5c21.333 0 39.166 11.167 53.499 33.5s21.5 50.5 21.5 84.5z" />
    <glyph glyph-name="itilde" unicode="&#x129;" horiz-adv-x="459" 
d="M326 0h-200v1082h200v-1082zM519 1495c0 -62.667 -15.666 -114.667 -46.999 -156s-72 -62 -122 -62c-38.667 0 -79.834 16.333 -123.501 49s-79.5 49 -107.5 49c-21.333 0 -39 -11 -53 -33s-21 -49.667 -21 -83l-108 28c0 62 15.5 114.167 46.5 156.5
s71.5 63.5 121.5 63.5c30.667 0 69.834 -16.5 117.501 -49.5s85.5 -49.5 113.5 -49.5c21.333 0 39.166 11.167 53.499 33.5s21.5 50.5 21.5 84.5z" />
    <glyph glyph-name="Imacron" unicode="&#x12a;" horiz-adv-x="499" 
d="M350 0h-201v1456h201v-1456zM555 1652h-607v132h607v-132z" />
    <glyph glyph-name="imacron" unicode="&#x12b;" horiz-adv-x="459" 
d="M326 0h-200v1082h200v-1082zM534 1310h-607v132h607v-132z" />
    <glyph glyph-name="Ibreve" unicode="&#x12c;" horiz-adv-x="499" 
d="M350 0h-201v1456h201v-1456zM523 1872c0 -83.333 -24.332 -149.5 -72.999 -198.5s-115.334 -73.5 -200.001 -73.5s-151.167 24.5 -199.5 73.5s-72.5 115.167 -72.5 198.5h151c0 -46.667 9.5 -84 28.5 -112s49.833 -42 92.5 -42c42 0 72.667 14.167 92 42.5
s29 65.5 29 111.5h152z" />
    <glyph glyph-name="ibreve" unicode="&#x12d;" horiz-adv-x="459" 
d="M326 0h-200v1082h200v-1082zM502 1529c0 -83.333 -24.332 -149.5 -72.999 -198.5s-115.334 -73.5 -200.001 -73.5s-151.167 24.5 -199.5 73.5s-72.5 115.167 -72.5 198.5h151c0 -46.667 9.5 -84 28.5 -112s49.833 -42 92.5 -42c42 0 72.667 14.167 92 42.5
s29 65.5 29 111.5h152z" />
    <glyph glyph-name="Iogonek" unicode="&#x12e;" horiz-adv-x="499" 
d="M350 0h-201v1456h201v-1456zM321 6c-42.667 -34.667 -74.668 -68.666 -96.001 -101.999s-32 -70.333 -32 -111c0 -24 4.16699 -42.667 12.5 -56s22.833 -20 43.5 -20c14 0 26.5 2.66699 37.5 8s21.833 12 32.5 20l19 -117c-17.333 -12.667 -36.5 -23.167 -57.5 -31.5
s-46.167 -12.5 -75.5 -12.5c-51.333 0 -92.666 16.167 -123.999 48.5s-47 78.833 -47 139.5c0 54.667 16.333 106.167 49 154.5s84 91.166 154 128.499z" />
    <glyph glyph-name="iogonek" unicode="&#x12f;" horiz-adv-x="453" 
d="M326 0h-200v1082h200v-1082zM326 1366h-200v194h200v-194zM296 0c-42.667 -34.667 -74.668 -68.666 -96.001 -101.999s-32 -70.333 -32 -111c0 -24 4.16699 -42.667 12.5 -56s22.833 -20 43.5 -20c14 0 26.5 2.66699 37.5 8s21.833 12 32.5 20l19 -117
c-17.333 -12.667 -36.5 -23.167 -57.5 -31.5s-46.167 -12.5 -75.5 -12.5c-51.333 0 -92.666 16.167 -123.999 48.5s-47 78.833 -47 139.5c0 54.667 16.333 106.167 49 154.5s84 91.166 154 128.499z" />
    <glyph glyph-name="Idotaccent" unicode="&#x130;" horiz-adv-x="499" 
d="M350 0h-201v1456h201v-1456zM354 1616h-213v200h213v-200z" />
    <glyph glyph-name="dotlessi" unicode="&#x131;" horiz-adv-x="459" 
d="M326 0h-200v1082h200v-1082z" />
    <glyph glyph-name="IJ" unicode="&#x132;" horiz-adv-x="1449" 
d="M350 0h-201v1456h201v-1456zM1118 1456l199.999 0.000976562v-1039c0 -136.667 -34.667 -243.834 -104 -321.501s-159.666 -116.5 -270.999 -116.5c-120.667 0 -215 35.5 -283 106.5s-102 178.5 -102 322.5h200c0 -94.667 15.5 -164.167 46.5 -208.5
s77.167 -66.5 138.5 -66.5c54 0 96.667 24.833 128 74.5s47 119.5 47 209.5v1039z" />
    <glyph glyph-name="ij" unicode="&#x133;" horiz-adv-x="909" 
d="M326 0h-200v1082h200v-1082zM326 1366h-200v194h200v-194zM787 1082l-0.00292969 -1156c0 -118 -24.667 -208 -74 -270s-119.666 -93 -210.999 -93c-20 0 -37.5 1.5 -52.5 4.5s-31.833 7.5 -50.5 13.5l11 155c10.667 -4 22.334 -7.33301 35.001 -10s25 -4 37 -4
c32.667 0 58.334 16.5 77.001 49.5s28 84.5 28 154.5v1156h200zM781.997 1369h-200v191h200v-191z" />
    <glyph glyph-name="Jcircumflex" unicode="&#x134;" horiz-adv-x="950" 
d="M619 1456l199.999 0.000976562v-1039c0 -136.667 -34.667 -243.834 -104 -321.501s-159.666 -116.5 -270.999 -116.5c-120.667 0 -215 35.5 -283 106.5s-102 178.5 -102 322.5h200c0 -94.667 15.5 -164.167 46.5 -208.5s77.167 -66.5 138.5 -66.5
c54 0 96.667 24.833 128 74.5s47 119.5 47 209.5v1039zM983.999 1607v-22h-154l-122 155l-120 -155h-153v23l214 232h118z" />
    <glyph glyph-name="jcircumflex" unicode="&#x135;" horiz-adv-x="469" 
d="M340 1082v-1156c0 -118 -24.833 -208 -74.5 -270s-120.167 -93 -211.5 -93c-20 0 -37.5 1.5 -52.5 4.5s-31.5 7.5 -49.5 13.5l11 151c10 -3.33301 22.333 -6.33301 37 -9s28 -4 40 -4c32 0 56.667 17.833 74 53.5s26 86.834 26 153.501v1156h200zM508 1263v-22h-154
l-122 155l-120 -155h-153v23l214 232h118z" />
    <glyph glyph-name="Kcommaaccent" unicode="&#x136;" horiz-adv-x="1086" 
d="M466 653h-128v-653h-201v1456h201v-640h111l359 640h239l-430 -693l462 -763h-245zM607 -190c0 -59.333 -10.5 -118.332 -31.5 -176.999s-49.833 -108.334 -86.5 -149.001l-104 67c20 41.333 35 81.333 45 120s15 83 15 133v111h162v-105z" />
    <glyph glyph-name="kcommaaccent" unicode="&#x137;" horiz-adv-x="889" 
d="M396 496h-82v-496h-200v1560h200v-909h81l215 431h234l-291 -488l328 -594h-233zM535 -188c0 -59.333 -10.5 -118.332 -31.5 -176.999s-49.833 -108.334 -86.5 -149.001l-104 67c20 41.333 35 81.333 45 120s15 83 15 133v111h162v-105z" />
    <glyph glyph-name="kgreenlandic" unicode="&#x138;" horiz-adv-x="973" 
d="M407 457h-82v-457h-200v1082h200v-453h69l263 453h250l-343 -504l361 -578h-254z" />
    <glyph glyph-name="Lacute" unicode="&#x139;" horiz-adv-x="928" 
d="M338 154h535v-154h-736v1456h201v-1302zM299 1773h230l-234 -266h-158z" />
    <glyph glyph-name="lacute" unicode="&#x13a;" horiz-adv-x="453" 
d="M326 0h-200v1560h200v-1560zM288 1885h230l-234 -266h-158z" />
    <glyph glyph-name="Lcommaaccent" unicode="&#x13b;" horiz-adv-x="928" 
d="M338 154h535v-154h-736v1456h201v-1302zM588 -188c0 -59.333 -10.5 -118.332 -31.5 -176.999s-49.833 -108.334 -86.5 -149.001l-104 67c20 41.333 35 81.333 45 120s15 83 15 133v111h162v-105z" />
    <glyph glyph-name="lcommaaccent" unicode="&#x13c;" horiz-adv-x="453" 
d="M326 0h-200v1560h200v-1560zM306 -188c0 -59.333 -10.5 -118.332 -31.5 -176.999s-49.833 -108.334 -86.5 -149.001l-104 67c20 41.333 35 81.333 45 120s15 83 15 133v111h162v-105z" />
    <glyph glyph-name="Lcaron" unicode="&#x13d;" horiz-adv-x="928" 
d="M338 154h535v-154h-736v1456h201v-1302zM707 1351c0 -59.333 -10.5 -118.332 -31.5 -176.999s-49.833 -108.334 -86.5 -149.001l-104 67c20 41.333 35 81.333 45 120s15 83 15 133v111h162v-105z" />
    <glyph glyph-name="lcaron" unicode="&#x13e;" horiz-adv-x="603" 
d="M326 0h-200v1560h200v-1560zM613 1454c0 -59.333 -10.5 -118.332 -31.5 -176.999s-49.833 -108.334 -86.5 -149.001l-104 67c20 41.333 35 81.333 45 120s15 83 15 133v111h162v-105z" />
    <glyph glyph-name="Ldot" unicode="&#x13f;" horiz-adv-x="928" 
d="M338 154h535v-154h-736v1456h201v-1302zM703 684h-213v200h213v-200z" />
    <glyph glyph-name="ldot" unicode="&#x140;" horiz-adv-x="673" 
d="M326 0h-200v1560h200v-1560zM629 668h-213v200h213v-200z" />
    <glyph glyph-name="Lslash" unicode="&#x141;" horiz-adv-x="874" 
d="M327 854l206 77v-151l-206 -77v-549h535v-154h-736v628l-93 -35v151l93 35v677h201v-602z" />
    <glyph glyph-name="lslash" unicode="&#x142;" horiz-adv-x="489" 
d="M343 885l117 52v-151l-117 -52v-734h-200v647l-110 -48v151l110 48v762h200v-675z" />
    <glyph glyph-name="Nacute" unicode="&#x143;" horiz-adv-x="1195" 
d="M1056 0h-200l-515 1074l-3 -1v-1073h-201v1456h201l515 -1072l3 1v1071h200v-1456zM657 1824h230l-234 -266h-158z" />
    <glyph glyph-name="nacute" unicode="&#x144;" 
d="M295 1082l11.001 -146h3c27.333 52.667 62.166 93.5 104.499 122.5s90.833 43.5 145.5 43.5c92 0 162.833 -33.833 212.5 -101.5s74.5 -175.834 74.5 -324.501v-676h-201v674c0 100.667 -12.833 170.834 -38.5 210.501s-66.5 59.5 -122.5 59.5
c-38 0 -71.333 -12 -100 -36s-52.667 -57.333 -72 -100v-808h-201v1082h184zM538.001 1502h230l-234 -266h-158z" />
    <glyph glyph-name="Ncommaaccent" unicode="&#x145;" horiz-adv-x="1195" 
d="M1056 0h-200l-515 1074l-3 -1v-1073h-201v1456h201l515 -1072l3 1v1071h200v-1456zM675 -188c0 -59.333 -10.5 -118.332 -31.5 -176.999s-49.833 -108.334 -86.5 -149.001l-104 67c20 41.333 35 81.333 45 120s15 83 15 133v111h162v-105z" />
    <glyph glyph-name="ncommaaccent" unicode="&#x146;" 
d="M295 1082l11.001 -146h3c27.333 52.667 62.166 93.5 104.499 122.5s90.833 43.5 145.5 43.5c92 0 162.833 -33.833 212.5 -101.5s74.5 -175.834 74.5 -324.501v-676h-201v674c0 100.667 -12.833 170.834 -38.5 210.501s-66.5 59.5 -122.5 59.5
c-38 0 -71.333 -12 -100 -36s-52.667 -57.333 -72 -100v-808h-201v1082h184zM556.001 -188c0 -59.333 -10.5 -118.332 -31.5 -176.999s-49.833 -108.334 -86.5 -149.001l-104 67c20 41.333 35 81.333 45 120s15 83 15 133v111h162v-105z" />
    <glyph glyph-name="Ncaron" unicode="&#x147;" horiz-adv-x="1195" 
d="M1056 0h-200l-515 1074l-3 -1v-1073h-201v1456h201l515 -1072l3 1v1071h200v-1456zM595 1705l111 154h172v-17l-217 -240h-131l-216 239v18h169z" />
    <glyph glyph-name="ncaron" unicode="&#x148;" 
d="M295 1082l11.001 -146h3c27.333 52.667 62.166 93.5 104.499 122.5s90.833 43.5 145.5 43.5c92 0 162.833 -33.833 212.5 -101.5s74.5 -175.834 74.5 -324.501v-676h-201v674c0 100.667 -12.833 170.834 -38.5 210.501s-66.5 59.5 -122.5 59.5
c-38 0 -71.333 -12 -100 -36s-52.667 -57.333 -72 -100v-808h-201v1082h184zM476.001 1383l111 154h172v-17l-217 -240h-131l-216 239v18h169z" />
    <glyph glyph-name="napostrophe" unicode="&#x149;" 
d="M295 1082l11.001 -146h3c27.333 52.667 62.166 93.5 104.499 122.5s90.833 43.5 145.5 43.5c92 0 162.833 -33.833 212.5 -101.5s74.5 -175.834 74.5 -324.501v-676h-201v674c0 100.667 -12.833 170.834 -38.5 210.501s-66.5 59.5 -122.5 59.5
c-38 0 -71.333 -12 -100 -36s-52.667 -57.333 -72 -100v-808h-201v1082h184zM201.001 1453c0 -59.333 -10.5 -118.332 -31.5 -176.999s-49.833 -108.334 -86.5 -149.001l-104 67c20 41.333 35 81.333 45 120s15 83 15 133v111h162v-105z" />
    <glyph glyph-name="Eng" unicode="&#x14a;" horiz-adv-x="1173" 
d="M1047 1456l0.000976562 -1530c0 -118 -24.833 -208 -74.5 -270s-120.167 -93 -211.5 -93c-20 0 -37.833 1.5 -53.5 4.5s-32.834 7.5 -51.501 13.5l12 151c10 -3.33301 22.5 -6.33301 37.5 -9s28.833 -4 41.5 -4c32 0 56.667 17.833 74 53.5s26 86.834 26 153.501v74
l-515 1060l-3 -1v-1059h-200v1456h200l515 -1061l3 1v1060h200z" />
    <glyph glyph-name="eng" unicode="&#x14b;" 
d="M295 1082l10.002 -147l3 -1c28 53.333 62.833 94.666 104.5 123.999s89.5 44 143.5 44c91.333 0 161.833 -34.667 211.5 -104s74.5 -180 74.5 -332v-740c0 -118 -24.833 -208 -74.5 -270s-120.167 -93 -211.5 -93c-20 0 -38 1.5 -54 4.5s-33 7.5 -51 13.5l11 157
c10 -4 22.833 -7.33301 38.5 -10s29.5 -4 41.5 -4c32 0 56.5 17.167 73.5 51.5s25.5 84.5 25.5 150.5v739c0 104 -12.5 176.5 -37.5 217.5s-64.167 61.5 -117.5 61.5c-40.667 0 -75.334 -10.667 -104.001 -32s-52.334 -51.666 -71.001 -90.999v-821h-200v1082h184z" />
    <glyph glyph-name="Omacron" unicode="&#x14c;" horiz-adv-x="1164" 
d="M1048 527c0 -176 -42 -311.333 -126 -406s-199 -142 -345 -142c-144 0 -256.833 47.333 -338.5 142s-122.5 230 -122.5 406v400c0 175.333 40.833 310.833 122.5 406.5s194.167 143.5 337.5 143.5c146 0 261.167 -47.833 345.5 -143.5s126.5 -231.167 126.5 -406.5v-400z
M847 930c0 128.667 -23.001 225.334 -69.001 290.001s-113.333 97 -202 97c-85.333 0 -149.833 -32.333 -193.5 -97s-65.5 -161.334 -65.5 -290.001v-403c0 -130.667 21.833 -228.334 65.5 -293.001s108.5 -97 194.5 -97c88.667 0 155.834 32.333 201.501 97
s68.5 162.334 68.5 293.001v403zM888.999 1673h-607v132h607v-132z" />
    <glyph glyph-name="omacron" unicode="&#x14d;" 
d="M77 609c0 146.667 35.001 265.5 105.001 356.5s168.333 136.5 295 136.5c127.333 0 226 -45.5 296 -136.5s105 -209.833 105 -356.5v-138c0 -148 -34.833 -266.833 -104.5 -356.5s-167.834 -134.5 -294.501 -134.5c-128 0 -227 45 -297 135s-105 208.667 -105 356v138z
M278.001 471c0 -101.333 16.001 -183 48.001 -245s83 -93 153 -93c68 0 118.167 31.167 150.5 93.5s48.5 143.833 48.5 244.5v138c0 100 -16.333 181.167 -49 243.5s-83.334 93.5 -152.001 93.5c-69.333 0 -119.833 -31.167 -151.5 -93.5s-47.5 -143.5 -47.5 -243.5v-138z
M784.002 1330h-607v132h607v-132z" />
    <glyph glyph-name="Obreve" unicode="&#x14e;" horiz-adv-x="1164" 
d="M1048 527c0 -176 -42 -311.333 -126 -406s-199 -142 -345 -142c-144 0 -256.833 47.333 -338.5 142s-122.5 230 -122.5 406v400c0 175.333 40.833 310.833 122.5 406.5s194.167 143.5 337.5 143.5c146 0 261.167 -47.833 345.5 -143.5s126.5 -231.167 126.5 -406.5v-400z
M847 930c0 128.667 -23.001 225.334 -69.001 290.001s-113.333 97 -202 97c-85.333 0 -149.833 -32.333 -193.5 -97s-65.5 -161.334 -65.5 -290.001v-403c0 -130.667 21.833 -228.334 65.5 -293.001s108.5 -97 194.5 -97c88.667 0 155.834 32.333 201.501 97
s68.5 162.334 68.5 293.001v403zM856.999 1893c0 -83.333 -24.332 -149.5 -72.999 -198.5s-115.334 -73.5 -200.001 -73.5s-151.167 24.5 -199.5 73.5s-72.5 115.167 -72.5 198.5h151c0 -46.667 9.5 -84 28.5 -112s49.833 -42 92.5 -42c42 0 72.667 14.167 92 42.5
s29 65.5 29 111.5h152z" />
    <glyph glyph-name="obreve" unicode="&#x14f;" 
d="M77 609c0 146.667 35.001 265.5 105.001 356.5s168.333 136.5 295 136.5c127.333 0 226 -45.5 296 -136.5s105 -209.833 105 -356.5v-138c0 -148 -34.833 -266.833 -104.5 -356.5s-167.834 -134.5 -294.501 -134.5c-128 0 -227 45 -297 135s-105 208.667 -105 356v138z
M278.001 471c0 -101.333 16.001 -183 48.001 -245s83 -93 153 -93c68 0 118.167 31.167 150.5 93.5s48.5 143.833 48.5 244.5v138c0 100 -16.333 181.167 -49 243.5s-83.334 93.5 -152.001 93.5c-69.333 0 -119.833 -31.167 -151.5 -93.5s-47.5 -143.5 -47.5 -243.5v-138z
M752.002 1550c0 -83.333 -24.332 -149.5 -72.999 -198.5s-115.334 -73.5 -200.001 -73.5s-151.167 24.5 -199.5 73.5s-72.5 115.167 -72.5 198.5h151c0 -46.667 9.5 -84 28.5 -112s49.833 -42 92.5 -42c42 0 72.667 14.167 92 42.5s29 65.5 29 111.5h152z" />
    <glyph glyph-name="Ohungarumlaut" unicode="&#x150;" horiz-adv-x="1164" 
d="M1048 527c0 -176 -42 -311.333 -126 -406s-199 -142 -345 -142c-144 0 -256.833 47.333 -338.5 142s-122.5 230 -122.5 406v400c0 175.333 40.833 310.833 122.5 406.5s194.167 143.5 337.5 143.5c146 0 261.167 -47.833 345.5 -143.5s126.5 -231.167 126.5 -406.5v-400z
M847 930c0 128.667 -23.001 225.334 -69.001 290.001s-113.333 97 -202 97c-85.333 0 -149.833 -32.333 -193.5 -97s-65.5 -161.334 -65.5 -290.001v-403c0 -130.667 21.833 -228.334 65.5 -293.001s108.5 -97 194.5 -97c88.667 0 155.834 32.333 201.501 97
s68.5 162.334 68.5 293.001v403zM807.999 1888h206l-239 -266h-165zM517.999 1888h198l-197 -266h-155z" />
    <glyph glyph-name="ohungarumlaut" unicode="&#x151;" 
d="M77 609c0 146.667 35.001 265.5 105.001 356.5s168.333 136.5 295 136.5c127.333 0 226 -45.5 296 -136.5s105 -209.833 105 -356.5v-138c0 -148 -34.833 -266.833 -104.5 -356.5s-167.834 -134.5 -294.501 -134.5c-128 0 -227 45 -297 135s-105 208.667 -105 356v138z
M278.001 471c0 -101.333 16.001 -183 48.001 -245s83 -93 153 -93c68 0 118.167 31.167 150.5 93.5s48.5 143.833 48.5 244.5v138c0 100 -16.333 181.167 -49 243.5s-83.334 93.5 -152.001 93.5c-69.333 0 -119.833 -31.167 -151.5 -93.5s-47.5 -143.5 -47.5 -243.5v-138z
M703.002 1545h206l-239 -266h-165zM413.002 1545h198l-197 -266h-155z" />
    <glyph glyph-name="OE" unicode="&#x152;" horiz-adv-x="1611" 
d="M1525 0h-728.999c-51.333 -6.66699 -93.666 -11.834 -126.999 -15.501s-68.333 -5.5 -105 -5.5c-142.667 0 -256.834 54.333 -342.501 163s-128.5 253.334 -128.5 434.001v304c0 180 42.5 324.5 127.5 433.5s198.833 163.5 341.5 163.5c38 0 75.667 -2 113 -6
s77.666 -9 120.999 -15h724v-156h-585v-469h508v-155h-508v-522h590v-154zM564.001 134c28.667 0 56.833 1 84.5 3s56.167 5.33301 85.5 10v1161c-28 4 -56.167 7.33301 -84.5 10s-57.5 4 -87.5 4c-85.333 0 -151.333 -37.667 -198 -113s-70 -184.333 -70 -327v-306
c0 -142.667 23.5 -252 70.5 -328s113.5 -114 199.5 -114z" />
    <glyph glyph-name="oe" unicode="&#x153;" horiz-adv-x="1512" 
d="M84 553c0 164 35.002 296.5 105.002 397.5s168.333 151.5 295 151.5c66.667 0 125.334 -14.667 176.001 -44s94 -71.666 130 -126.999c35.333 55.333 77.166 97.666 125.499 126.999s102.166 44 161.499 44c120 0 210.833 -42.333 272.5 -127
s92.5 -201.334 92.5 -350.001v-126h-547c1.33301 -110 20.166 -198.5 56.499 -265.5s90.166 -100.5 161.499 -100.5c54.667 0 100.167 8.66699 136.5 26s72.166 43.333 107.499 78l63 -126c-33.333 -39.333 -76.666 -71.166 -129.999 -95.499s-116.666 -36.5 -189.999 -36.5
c-67.333 0 -126.833 14.333 -178.5 43s-95.5 70.667 -131.5 126c-36 -55.333 -79.333 -97.333 -130 -126s-109 -43 -175 -43c-127.333 0 -226 50 -296 150s-105 232.333 -105 397v27zM284.002 526c0 -117.333 16.167 -212.166 48.5 -284.499s83.166 -108.5 152.499 -108.5
c68.667 0 119.167 36.167 151.5 108.5s48.5 167.166 48.5 284.499v27c0 116 -16.167 210.5 -48.5 283.5s-83.166 109.5 -152.499 109.5s-120 -36.5 -152 -109.5s-48 -167.5 -48 -283.5v-27zM1077 946c-50.667 0 -91.333 -27.5 -122 -82.5s-49.667 -128.167 -57 -219.5h345
v28c0 82 -13.667 148.167 -41 198.5s-69 75.5 -125 75.5z" />
    <glyph glyph-name="Racute" unicode="&#x154;" horiz-adv-x="1107" 
d="M338 627l-0.000976562 -627.001h-201v1455h443c133.333 0 234 -34.667 302 -104s102 -172.333 102 -309c0 -78.667 -17.667 -145.834 -53 -201.501s-86.333 -99.5 -153 -131.5c70.667 -25.333 120.834 -66.666 150.501 -123.999s44.5 -130.666 44.5 -219.999v-127
c0 -45.333 4.16699 -86.5 12.5 -123.5s22.833 -66.833 43.5 -89.5v-25h-206c-22 22.667 -36 55.834 -42 99.501s-9 90.5 -9 140.5v123c0 83.333 -16.167 148.166 -48.5 194.499s-78.833 69.5 -139.5 69.5h-246zM337.999 781.999l223.001 -0.000976562
c77.333 0 133.666 21.833 168.999 65.5s53 106.834 53 189.501c0 85.333 -16.667 150.5 -50 195.5s-86.333 67.5 -159 67.5h-236v-518zM577 1824h230l-234 -266h-158z" />
    <glyph glyph-name="racute" unicode="&#x155;" horiz-adv-x="613" 
d="M559 911l-93 5c-38 0 -69.333 -11.833 -94 -35.5s-44 -57.834 -58 -102.501v-778h-201v1082h184l13 -151h3c21.333 54 48.5 96 81.5 126s72.167 45 117.5 45c12.667 0 25.5 -1.16699 38.5 -3.5s23.833 -5.16602 32.5 -8.49902zM405 1502h230l-234 -266h-158z" />
    <glyph glyph-name="Rcommaaccent" unicode="&#x156;" horiz-adv-x="1107" 
d="M338 627l-0.000976562 -627.001h-201v1455h443c133.333 0 234 -34.667 302 -104s102 -172.333 102 -309c0 -78.667 -17.667 -145.834 -53 -201.501s-86.333 -99.5 -153 -131.5c70.667 -25.333 120.834 -66.666 150.501 -123.999s44.5 -130.666 44.5 -219.999v-127
c0 -45.333 4.16699 -86.5 12.5 -123.5s22.833 -66.833 43.5 -89.5v-25h-206c-22 22.667 -36 55.834 -42 99.501s-9 90.5 -9 140.5v123c0 83.333 -16.167 148.166 -48.5 194.499s-78.833 69.5 -139.5 69.5h-246zM337.999 781.999l223.001 -0.000976562
c77.333 0 133.666 21.833 168.999 65.5s53 106.834 53 189.501c0 85.333 -16.667 150.5 -50 195.5s-86.333 67.5 -159 67.5h-236v-518zM595 -188.002c0 -59.333 -10.5 -118.332 -31.5 -176.999s-49.833 -108.334 -86.5 -149.001l-104 67c20 41.333 35 81.333 45 120
s15 83 15 133v111h162v-105z" />
    <glyph glyph-name="rcommaaccent" unicode="&#x157;" horiz-adv-x="613" 
d="M559 911l-93 5c-38 0 -69.333 -11.833 -94 -35.5s-44 -57.834 -58 -102.501v-778h-201v1082h184l13 -151h3c21.333 54 48.5 96 81.5 126s72.167 45 117.5 45c12.667 0 25.5 -1.16699 38.5 -3.5s23.833 -5.16602 32.5 -8.49902zM304 -187
c0 -59.333 -10.5 -118.332 -31.5 -176.999s-49.833 -108.334 -86.5 -149.001l-104 67c20 41.333 35 81.333 45 120s15 83 15 133v111h162v-105z" />
    <glyph glyph-name="Rcaron" unicode="&#x158;" horiz-adv-x="1107" 
d="M338 627l-0.000976562 -627.001h-201v1455h443c133.333 0 234 -34.667 302 -104s102 -172.333 102 -309c0 -78.667 -17.667 -145.834 -53 -201.501s-86.333 -99.5 -153 -131.5c70.667 -25.333 120.834 -66.666 150.501 -123.999s44.5 -130.666 44.5 -219.999v-127
c0 -45.333 4.16699 -86.5 12.5 -123.5s22.833 -66.833 43.5 -89.5v-25h-206c-22 22.667 -36 55.834 -42 99.501s-9 90.5 -9 140.5v123c0 83.333 -16.167 148.166 -48.5 194.499s-78.833 69.5 -139.5 69.5h-246zM337.999 781.999l223.001 -0.000976562
c77.333 0 133.666 21.833 168.999 65.5s53 106.834 53 189.501c0 85.333 -16.667 150.5 -50 195.5s-86.333 67.5 -159 67.5h-236v-518zM515 1705l111 154h172v-17l-217 -240h-131l-216 239v18h169z" />
    <glyph glyph-name="rcaron" unicode="&#x159;" horiz-adv-x="613" 
d="M559 911l-93 5c-38 0 -69.333 -11.833 -94 -35.5s-44 -57.834 -58 -102.501v-778h-201v1082h184l13 -151h3c21.333 54 48.5 96 81.5 126s72.167 45 117.5 45c12.667 0 25.5 -1.16699 38.5 -3.5s23.833 -5.16602 32.5 -8.49902zM344 1383l111 154h172v-17l-217 -240h-131
l-216 239v18h169z" />
    <glyph glyph-name="Sacute" unicode="&#x15a;" horiz-adv-x="1044" 
d="M766 366c0 70 -17.5029 126.503 -52.5029 169.503s-98.167 81.5 -189.5 115.5c-134.667 42.667 -236.667 97.167 -306 163.5s-104 156.166 -104 269.499c0 117.333 38.667 212.166 116 284.499s179.333 108.5 306 108.5c130.667 0 235 -42 313 -126s117 -189 117 -315
h-201c0 86.667 -19.667 156 -59 208s-96.666 78 -171.999 78c-71.333 0 -125.666 -21.833 -162.999 -65.5s-56 -100.5 -56 -170.5c0 -63.333 20.167 -115.666 60.5 -156.999s108.5 -79.666 204.5 -114.999c129.333 -42 226 -97.833 290 -167.5s96 -162.5 96 -278.5
c0 -122 -38.333 -217.333 -115 -286s-180 -103 -310 -103c-126.667 0 -235.667 38.167 -327 114.5s-137 187.166 -137 332.499h201c0 -102.667 23.667 -177.334 71 -224.001s111.333 -70 192 -70c72.667 0 128.334 20.667 167.001 62s58 98.666 58 171.999zM576.997 1845
h230l-234 -266h-158z" />
    <glyph glyph-name="sacute" unicode="&#x15b;" horiz-adv-x="859" 
d="M590 271c0 42.667 -12.5 78.1641 -37.5 106.497s-73.833 60.166 -146.5 95.499c-108 44 -187.167 89.833 -237.5 137.5s-75.5 111.5 -75.5 191.5c0 84.667 31 155.834 93 213.501s145 86.5 249 86.5c108 0 193.333 -31.333 256 -94s94 -143.334 94 -242.001h-200
c0 52.667 -13 97.167 -39 133.5s-63 54.5 -111 54.5c-47.333 0 -83.666 -14.167 -108.999 -42.5s-38 -62.166 -38 -101.499c0 -42 10.833 -74.667 32.5 -98s70.5 -54.666 146.5 -93.999c110 -41.333 190.667 -87.166 242 -137.499s77 -116.833 77 -199.5
c0 -91.333 -31.833 -164.333 -95.5 -219s-149.5 -82 -257.5 -82c-116.667 0 -207.334 33.5 -272.001 100.5s-97 148.167 -97 243.5h194c2 -71.333 19.5 -122.166 52.5 -152.499s74.833 -45.5 125.5 -45.5c49.333 0 87.333 13.333 114 40s40 61.667 40 105zM497 1502h230
l-234 -266h-158z" />
    <glyph glyph-name="Scircumflex" unicode="&#x15c;" horiz-adv-x="1044" 
d="M766 366c0 70 -17.5029 126.503 -52.5029 169.503s-98.167 81.5 -189.5 115.5c-134.667 42.667 -236.667 97.167 -306 163.5s-104 156.166 -104 269.499c0 117.333 38.667 212.166 116 284.499s179.333 108.5 306 108.5c130.667 0 235 -42 313 -126s117 -189 117 -315
h-201c0 86.667 -19.667 156 -59 208s-96.666 78 -171.999 78c-71.333 0 -125.666 -21.833 -162.999 -65.5s-56 -100.5 -56 -170.5c0 -63.333 20.167 -115.666 60.5 -156.999s108.5 -79.666 204.5 -114.999c129.333 -42 226 -97.833 290 -167.5s96 -162.5 96 -278.5
c0 -122 -38.333 -217.333 -115 -286s-180 -103 -310 -103c-126.667 0 -235.667 38.167 -327 114.5s-137 187.166 -137 332.499h201c0 -102.667 23.667 -177.334 71 -224.001s111.333 -70 192 -70c72.667 0 128.334 20.667 167.001 62s58 98.666 58 171.999zM790.997 1642
v-22h-154l-122 155l-120 -155h-153v23l214 232h118z" />
    <glyph glyph-name="scircumflex" unicode="&#x15d;" horiz-adv-x="859" 
d="M590 271c0 42.667 -12.5 78.1641 -37.5 106.497s-73.833 60.166 -146.5 95.499c-108 44 -187.167 89.833 -237.5 137.5s-75.5 111.5 -75.5 191.5c0 84.667 31 155.834 93 213.501s145 86.5 249 86.5c108 0 193.333 -31.333 256 -94s94 -143.334 94 -242.001h-200
c0 52.667 -13 97.167 -39 133.5s-63 54.5 -111 54.5c-47.333 0 -83.666 -14.167 -108.999 -42.5s-38 -62.166 -38 -101.499c0 -42 10.833 -74.667 32.5 -98s70.5 -54.666 146.5 -93.999c110 -41.333 190.667 -87.166 242 -137.499s77 -116.833 77 -199.5
c0 -91.333 -31.833 -164.333 -95.5 -219s-149.5 -82 -257.5 -82c-116.667 0 -207.334 33.5 -272.001 100.5s-97 148.167 -97 243.5h194c2 -71.333 19.5 -122.166 52.5 -152.499s74.833 -45.5 125.5 -45.5c49.333 0 87.333 13.333 114 40s40 61.667 40 105zM711 1299v-22
h-154l-122 155l-120 -155h-153v23l214 232h118z" />
    <glyph glyph-name="Scedilla" unicode="&#x15e;" horiz-adv-x="1044" 
d="M766 366c0 70 -17.5029 126.503 -52.5029 169.503s-98.167 81.5 -189.5 115.5c-134.667 42.667 -236.667 97.167 -306 163.5s-104 156.166 -104 269.499c0 117.333 38.667 212.166 116 284.499s179.333 108.5 306 108.5c130.667 0 235 -42 313 -126s117 -189 117 -315
h-201c0 86.667 -19.667 156 -59 208s-96.666 78 -171.999 78c-71.333 0 -125.666 -21.833 -162.999 -65.5s-56 -100.5 -56 -170.5c0 -63.333 20.167 -115.666 60.5 -156.999s108.5 -79.666 204.5 -114.999c129.333 -42 226 -97.833 290 -167.5s96 -162.5 96 -278.5
c0 -122 -38.333 -217.333 -115 -286s-180 -103 -310 -103c-126.667 0 -235.667 38.167 -327 114.5s-137 187.166 -137 332.499h201c0 -102.667 23.667 -177.334 71 -224.001s111.333 -70 192 -70c72.667 0 128.334 20.667 167.001 62s58 98.666 58 171.999z
M599.997 -6.99707l-9 -57.999c34.667 -6.66699 63.5 -23.334 86.5 -50.001s34.5 -67.334 34.5 -122.001c0 -66.667 -22.667 -119 -68 -157s-111.333 -57 -198 -57l-6 113c32.667 0 58.834 8.16699 78.501 24.5s29.5 41.833 29.5 76.5c0 34 -8.83301 57.333 -26.5 70
s-48.834 21.334 -93.501 26.001l25 134h147z" />
    <glyph glyph-name="scedilla" unicode="&#x15f;" horiz-adv-x="859" 
d="M590 271c0 42.667 -12.5 78.1641 -37.5 106.497s-73.833 60.166 -146.5 95.499c-108 44 -187.167 89.833 -237.5 137.5s-75.5 111.5 -75.5 191.5c0 84.667 31 155.834 93 213.501s145 86.5 249 86.5c108 0 193.333 -31.333 256 -94s94 -143.334 94 -242.001h-200
c0 52.667 -13 97.167 -39 133.5s-63 54.5 -111 54.5c-47.333 0 -83.666 -14.167 -108.999 -42.5s-38 -62.166 -38 -101.499c0 -42 10.833 -74.667 32.5 -98s70.5 -54.666 146.5 -93.999c110 -41.333 190.667 -87.166 242 -137.499s77 -116.833 77 -199.5
c0 -91.333 -31.833 -164.333 -95.5 -219s-149.5 -82 -257.5 -82c-116.667 0 -207.334 33.5 -272.001 100.5s-97 148.167 -97 243.5h194c2 -71.333 19.5 -122.166 52.5 -152.499s74.833 -45.5 125.5 -45.5c49.333 0 87.333 13.333 114 40s40 61.667 40 105zM513 -5.00293
l-9 -57.999c34.667 -6.66699 63.5 -23.334 86.5 -50.001s34.5 -67.334 34.5 -122.001c0 -66.667 -22.667 -119 -68 -157s-111.333 -57 -198 -57l-6 113c32.667 0 58.834 8.16699 78.501 24.5s29.5 41.833 29.5 76.5c0 34 -8.83301 57.333 -26.5 70
s-48.834 21.334 -93.501 26.001l25 134h147z" />
    <glyph glyph-name="Scaron" unicode="&#x160;" horiz-adv-x="1044" 
d="M766 366c0 70 -17.5029 126.503 -52.5029 169.503s-98.167 81.5 -189.5 115.5c-134.667 42.667 -236.667 97.167 -306 163.5s-104 156.166 -104 269.499c0 117.333 38.667 212.166 116 284.499s179.333 108.5 306 108.5c130.667 0 235 -42 313 -126s117 -189 117 -315
h-201c0 86.667 -19.667 156 -59 208s-96.666 78 -171.999 78c-71.333 0 -125.666 -21.833 -162.999 -65.5s-56 -100.5 -56 -170.5c0 -63.333 20.167 -115.666 60.5 -156.999s108.5 -79.666 204.5 -114.999c129.333 -42 226 -97.833 290 -167.5s96 -162.5 96 -278.5
c0 -122 -38.333 -217.333 -115 -286s-180 -103 -310 -103c-126.667 0 -235.667 38.167 -327 114.5s-137 187.166 -137 332.499h201c0 -102.667 23.667 -177.334 71 -224.001s111.333 -70 192 -70c72.667 0 128.334 20.667 167.001 62s58 98.666 58 171.999zM514.997 1726
l111 154h172v-17l-217 -240h-131l-216 239v18h169z" />
    <glyph glyph-name="scaron" unicode="&#x161;" horiz-adv-x="859" 
d="M590 271c0 42.667 -12.5 78.1641 -37.5 106.497s-73.833 60.166 -146.5 95.499c-108 44 -187.167 89.833 -237.5 137.5s-75.5 111.5 -75.5 191.5c0 84.667 31 155.834 93 213.501s145 86.5 249 86.5c108 0 193.333 -31.333 256 -94s94 -143.334 94 -242.001h-200
c0 52.667 -13 97.167 -39 133.5s-63 54.5 -111 54.5c-47.333 0 -83.666 -14.167 -108.999 -42.5s-38 -62.166 -38 -101.499c0 -42 10.833 -74.667 32.5 -98s70.5 -54.666 146.5 -93.999c110 -41.333 190.667 -87.166 242 -137.499s77 -116.833 77 -199.5
c0 -91.333 -31.833 -164.333 -95.5 -219s-149.5 -82 -257.5 -82c-116.667 0 -207.334 33.5 -272.001 100.5s-97 148.167 -97 243.5h194c2 -71.333 19.5 -122.166 52.5 -152.499s74.833 -45.5 125.5 -45.5c49.333 0 87.333 13.333 114 40s40 61.667 40 105zM435 1383l111 154
h172v-17l-217 -240h-131l-216 239v18h169z" />
    <glyph glyph-name="uni0162" unicode="&#x162;" horiz-adv-x="1010" 
d="M958 1300h-354v-1300h-199v1300h-353v156h906v-156zM584 8l-9 -57.999c34.667 -6.66699 63.5 -23.334 86.5 -50.001s34.5 -67.334 34.5 -122.001c0 -66.667 -22.667 -119 -68 -157s-111.333 -57 -198 -57l-6 113c32.667 0 58.834 8.16699 78.501 24.5
s29.5 41.833 29.5 76.5c0 34 -8.83301 57.333 -26.5 70s-48.834 21.334 -93.501 26.001l25 134h147z" />
    <glyph glyph-name="uni0163" unicode="&#x163;" horiz-adv-x="564" 
d="M352 1351l0.00292969 -269h156v-145h-156v-644c0 -57.333 6.66699 -97.333 20 -120s31.333 -34 54 -34c13.333 0 25.666 1 36.999 3s22.666 4.66699 33.999 8l21 -139c-18 -9.33301 -39.5 -16.833 -64.5 -22.5s-50.833 -8.5 -77.5 -8.5
c-72.667 0 -128.334 24.5 -167.001 73.5s-58 128.833 -58 239.5v644h-119v145h119v269h201zM437.003 2l-9 -57.999c34.667 -6.66699 63.5 -23.334 86.5 -50.001s34.5 -67.334 34.5 -122.001c0 -66.667 -22.667 -119 -68 -157s-111.333 -57 -198 -57l-6 113
c32.667 0 58.834 8.16699 78.501 24.5s29.5 41.833 29.5 76.5c0 34 -8.83301 57.333 -26.5 70s-48.834 21.334 -93.501 26.001l25 134h147z" />
    <glyph glyph-name="Tcaron" unicode="&#x164;" horiz-adv-x="1010" 
d="M958 1300h-354v-1300h-199v1300h-353v156h906v-156zM507 1702l111 154h172v-17l-217 -240h-131l-216 239v18h169z" />
    <glyph glyph-name="tcaron" unicode="&#x165;" horiz-adv-x="604" 
d="M352 1351l0.00292969 -269h156v-145h-156v-644c0 -57.333 6.66699 -97.333 20 -120s31.333 -34 54 -34c13.333 0 25.666 1 36.999 3s22.666 4.66699 33.999 8l21 -139c-18 -9.33301 -39.5 -16.833 -64.5 -22.5s-50.833 -8.5 -77.5 -8.5
c-72.667 0 -128.334 24.5 -167.001 73.5s-58 128.833 -58 239.5v644h-119v145h119v269h201zM671.003 1472c0 -59.333 -10.5 -118.332 -31.5 -176.999s-49.833 -108.334 -86.5 -149.001l-104 67c20 41.333 35 81.333 45 120s15 83 15 133v111h162v-105z" />
    <glyph glyph-name="Tbar" unicode="&#x166;" horiz-adv-x="1010" 
d="M770 805h-166v-805h-199v805h-164v141h164v354h-353v156h906v-156h-354v-354h166v-141z" />
    <glyph glyph-name="tbar" unicode="&#x167;" horiz-adv-x="564" 
d="M352 1351l0.00292969 -269h156v-145h-156v-209h170v-141h-170v-294c0 -57.333 6.66699 -97.333 20 -120s31.333 -34 54 -34c13.333 0 25.666 1 36.999 3s22.666 4.66699 33.999 8l21 -139c-18 -9.33301 -39.5 -16.833 -64.5 -22.5s-50.833 -8.5 -77.5 -8.5
c-72.667 0 -128.334 24.5 -167.001 73.5s-58 128.833 -58 239.5v294h-158v141h158v209h-119v145h119v269h201z" />
    <glyph glyph-name="Utilde" unicode="&#x168;" horiz-adv-x="1113" 
d="M1002 1456v-1009c0 -154 -40.667 -270.5 -122 -349.5s-190 -118.5 -326 -118.5c-134 0 -240.833 39.5 -320.5 118.5s-119.5 195.5 -119.5 349.5v1009h198v-1009c0 -106 21.5 -184.833 64.5 -236.5s102.167 -77.5 177.5 -77.5c78.667 0 139.667 24.833 183 74.5
s65 129.5 65 239.5v1009h200zM848 1838c0 -62.667 -15.666 -114.667 -46.999 -156s-72 -62 -122 -62c-38.667 0 -79.834 16.333 -123.501 49s-79.5 49 -107.5 49c-21.333 0 -39 -11 -53 -33s-21 -49.667 -21 -83l-108 28c0 62 15.5 114.167 46.5 156.5s71.5 63.5 121.5 63.5
c30.667 0 69.834 -16.5 117.501 -49.5s85.5 -49.5 113.5 -49.5c21.333 0 39.166 11.167 53.499 33.5s21.5 50.5 21.5 84.5z" />
    <glyph glyph-name="utilde" unicode="&#x169;" 
d="M654 138h-2.00293c-27.333 -51.333 -61.666 -90.5 -102.999 -117.5s-89.333 -40.5 -144 -40.5c-94.667 0 -167.667 36.833 -219 110.5s-77 191.167 -77 352.5v639h200v-641c0 -113.333 11.667 -192.333 35 -237s60 -67 110 -67c46.667 0 85.334 11.167 116.001 33.5
s55.334 54.833 74.001 97.5v814h200v-1082h-177zM766.997 1495c0 -62.667 -15.666 -114.667 -46.999 -156s-72 -62 -122 -62c-38.667 0 -79.834 16.333 -123.501 49s-79.5 49 -107.5 49c-21.333 0 -39 -11 -53 -33s-21 -49.667 -21 -83l-108 28
c0 62 15.5 114.167 46.5 156.5s71.5 63.5 121.5 63.5c30.667 0 69.834 -16.5 117.501 -49.5s85.5 -49.5 113.5 -49.5c21.333 0 39.166 11.167 53.499 33.5s21.5 50.5 21.5 84.5z" />
    <glyph glyph-name="Umacron" unicode="&#x16a;" horiz-adv-x="1113" 
d="M1002 1456v-1009c0 -154 -40.667 -270.5 -122 -349.5s-190 -118.5 -326 -118.5c-134 0 -240.833 39.5 -320.5 118.5s-119.5 195.5 -119.5 349.5v1009h198v-1009c0 -106 21.5 -184.833 64.5 -236.5s102.167 -77.5 177.5 -77.5c78.667 0 139.667 24.833 183 74.5
s65 129.5 65 239.5v1009h200zM863 1652h-607v132h607v-132z" />
    <glyph glyph-name="umacron" unicode="&#x16b;" 
d="M654 138h-2.00293c-27.333 -51.333 -61.666 -90.5 -102.999 -117.5s-89.333 -40.5 -144 -40.5c-94.667 0 -167.667 36.833 -219 110.5s-77 191.167 -77 352.5v639h200v-641c0 -113.333 11.667 -192.333 35 -237s60 -67 110 -67c46.667 0 85.334 11.167 116.001 33.5
s55.334 54.833 74.001 97.5v814h200v-1082h-177zM781.997 1310h-607v132h607v-132z" />
    <glyph glyph-name="Ubreve" unicode="&#x16c;" horiz-adv-x="1113" 
d="M1002 1456v-1009c0 -154 -40.667 -270.5 -122 -349.5s-190 -118.5 -326 -118.5c-134 0 -240.833 39.5 -320.5 118.5s-119.5 195.5 -119.5 349.5v1009h198v-1009c0 -106 21.5 -184.833 64.5 -236.5s102.167 -77.5 177.5 -77.5c78.667 0 139.667 24.833 183 74.5
s65 129.5 65 239.5v1009h200zM831 1872c0 -83.333 -24.332 -149.5 -72.999 -198.5s-115.334 -73.5 -200.001 -73.5s-151.167 24.5 -199.5 73.5s-72.5 115.167 -72.5 198.5h151c0 -46.667 9.5 -84 28.5 -112s49.833 -42 92.5 -42c42 0 72.667 14.167 92 42.5
s29 65.5 29 111.5h152z" />
    <glyph glyph-name="ubreve" unicode="&#x16d;" 
d="M654 138h-2.00293c-27.333 -51.333 -61.666 -90.5 -102.999 -117.5s-89.333 -40.5 -144 -40.5c-94.667 0 -167.667 36.833 -219 110.5s-77 191.167 -77 352.5v639h200v-641c0 -113.333 11.667 -192.333 35 -237s60 -67 110 -67c46.667 0 85.334 11.167 116.001 33.5
s55.334 54.833 74.001 97.5v814h200v-1082h-177zM749.997 1529c0 -83.333 -24.332 -149.5 -72.999 -198.5s-115.334 -73.5 -200.001 -73.5s-151.167 24.5 -199.5 73.5s-72.5 115.167 -72.5 198.5h151c0 -46.667 9.5 -84 28.5 -112s49.833 -42 92.5 -42
c42 0 72.667 14.167 92 42.5s29 65.5 29 111.5h152z" />
    <glyph glyph-name="Uring" unicode="&#x16e;" horiz-adv-x="1113" 
d="M1002 1456v-1009c0 -154 -40.667 -270.5 -122 -349.5s-190 -118.5 -326 -118.5c-134 0 -240.833 39.5 -320.5 118.5s-119.5 195.5 -119.5 349.5v1009h198v-1009c0 -106 21.5 -184.833 64.5 -236.5s102.167 -77.5 177.5 -77.5c78.667 0 139.667 24.833 183 74.5
s65 129.5 65 239.5v1009h200zM383 1734c0 52.667 16.667 96.5 50 131.5s75 52.5 125 52.5c48.667 0 89.334 -17.5 122.001 -52.5s49 -78.833 49 -131.5c0 -54 -16.333 -97.667 -49 -131s-73.334 -50 -122.001 -50c-50 0 -91.667 16.667 -125 50s-50 77 -50 131zM474 1734
c0 -28 8 -50.999 24 -68.999s36 -27 60 -27s43.5 8.83301 58.5 26.5s22.5 40.834 22.5 69.501c0 29.333 -7.5 53.166 -22.5 71.499s-34.5 27.5 -58.5 27.5s-44 -9.33301 -60 -28s-24 -42.334 -24 -71.001z" />
    <glyph glyph-name="uring" unicode="&#x16f;" 
d="M654 138h-2.00293c-27.333 -51.333 -61.666 -90.5 -102.999 -117.5s-89.333 -40.5 -144 -40.5c-94.667 0 -167.667 36.833 -219 110.5s-77 191.167 -77 352.5v639h200v-641c0 -113.333 11.667 -192.333 35 -237s60 -67 110 -67c46.667 0 85.334 11.167 116.001 33.5
s55.334 54.833 74.001 97.5v814h200v-1082h-177zM301.997 1391c0 52.667 16.667 96.5 50 131.5s75 52.5 125 52.5c48.667 0 89.334 -17.5 122.001 -52.5s49 -78.833 49 -131.5c0 -54 -16.333 -97.667 -49 -131s-73.334 -50 -122.001 -50c-50 0 -91.667 16.667 -125 50
s-50 77 -50 131zM392.997 1391c0 -28 8 -50.999 24 -68.999s36 -27 60 -27s43.5 8.83301 58.5 26.5s22.5 40.834 22.5 69.501c0 29.333 -7.5 53.166 -22.5 71.499s-34.5 27.5 -58.5 27.5s-44 -9.33301 -60 -28s-24 -42.334 -24 -71.001z" />
    <glyph glyph-name="Uhungarumlaut" unicode="&#x170;" horiz-adv-x="1113" 
d="M1002 1456v-1009c0 -154 -40.667 -270.5 -122 -349.5s-190 -118.5 -326 -118.5c-134 0 -240.833 39.5 -320.5 118.5s-119.5 195.5 -119.5 349.5v1009h198v-1009c0 -106 21.5 -184.833 64.5 -236.5s102.167 -77.5 177.5 -77.5c78.667 0 139.667 24.833 183 74.5
s65 129.5 65 239.5v1009h200zM782 1867h206l-239 -266h-165zM492 1867h198l-197 -266h-155z" />
    <glyph glyph-name="uhungarumlaut" unicode="&#x171;" 
d="M654 138h-2.00293c-27.333 -51.333 -61.666 -90.5 -102.999 -117.5s-89.333 -40.5 -144 -40.5c-94.667 0 -167.667 36.833 -219 110.5s-77 191.167 -77 352.5v639h200v-641c0 -113.333 11.667 -192.333 35 -237s60 -67 110 -67c46.667 0 85.334 11.167 116.001 33.5
s55.334 54.833 74.001 97.5v814h200v-1082h-177zM700.997 1524h206l-239 -266h-165zM410.997 1524h198l-197 -266h-155z" />
    <glyph glyph-name="Uogonek" unicode="&#x172;" horiz-adv-x="1113" 
d="M1002 1456l-0.000976562 -1009c0 -101.333 -18.5 -186.166 -55.5 -254.499s-89.167 -121.166 -156.5 -158.499l3 -1c-42.667 -34.667 -74.667 -68.667 -96 -102s-32 -70.333 -32 -111c0 -24 4.16699 -42.667 12.5 -56s22.833 -20 43.5 -20c14 0 26.5 2.66699 37.5 8
s21.833 12 32.5 20l19 -117c-17.333 -12.667 -36.5 -23.167 -57.5 -31.5s-46.167 -12.5 -75.5 -12.5c-51.333 0 -92.666 16.167 -123.999 48.5s-47 78.833 -47 139.5c0 32.667 5.66699 64 17 94s29.333 59 54 87c-4 0 -7.66699 -0.166992 -11 -0.5s-7.33301 -0.5 -12 -0.5
c-134 0 -240.833 39.5 -320.5 118.5s-119.5 195.5 -119.5 349.5v1009h198v-1009c0 -106 21.5 -184.833 64.5 -236.5s102.167 -77.5 177.5 -77.5c78.667 0 139.667 24.833 183 74.5s65 129.5 65 239.5v1009h200z" />
    <glyph glyph-name="uogonek" unicode="&#x173;" 
d="M654 138h-2.00391c-27.333 -51.333 -61.666 -90.5 -102.999 -117.5s-89.333 -40.5 -144 -40.5c-94.667 0 -167.667 36.833 -219 110.5s-77 191.167 -77 352.5v639h200v-641c0 -113.333 11.667 -192.333 35 -237s60 -67 110 -67c46.667 0 85.334 11.167 116.001 33.5
s55.334 54.833 74.001 97.5v814h200v-1082h-14c-42.667 -34.667 -74.667 -68.667 -96 -102s-32 -70.333 -32 -111c0 -24 4.16699 -42.667 12.5 -56s22.833 -20 43.5 -20c14 0 26.5 2.66699 37.5 8s21.833 12 32.5 20l19 -117c-17.333 -12.667 -36.5 -23.167 -57.5 -31.5
s-46.167 -12.5 -75.5 -12.5c-51.333 0 -92.666 16.167 -123.999 48.5s-47 78.833 -47 139.5c0 43.333 10.167 84.833 30.5 124.5s52.5 76.167 96.5 109.5h-3z" />
    <glyph glyph-name="Wcircumflex" unicode="&#x174;" horiz-adv-x="1419" 
d="M1000 433h3l155 1023h194l-248 -1456h-180l-214 1021h-3l-214 -1021h-180l-248 1456h194l157 -1026h3l212 1026h155zM984 1621v-22h-154l-122 155l-120 -155h-153v23l214 232h118z" />
    <glyph glyph-name="wcircumflex" unicode="&#x175;" horiz-adv-x="1252" 
d="M364 363l6 -52h3l7 51l172 720h143l172 -719l9 -69h3l10 73l125 715h192l-234 -1082h-166l-167 699l-14 79h-4l-14 -79l-165 -699h-166l-235 1082h191zM899 1278v-22h-154l-122 155l-120 -155h-153v23l214 232h118z" />
    <glyph glyph-name="Ycircumflex" unicode="&#x176;" horiz-adv-x="1026" 
d="M513 761l266 695h222l-392 -931v-525h-198v540l-386 916h222zM791 1617v-22h-154l-122 155l-120 -155h-153v23l214 232h118z" />
    <glyph glyph-name="ycircumflex" unicode="&#x177;" horiz-adv-x="860" 
d="M405 373l14 -65h3l193 774h220l-360 -1250c-22.667 -74 -54.5 -137.333 -95.5 -190s-101.5 -79 -181.5 -79c-17.333 0 -34.5 1.66699 -51.5 5s-35.5 7.66602 -55.5 12.999l22 150c7.33301 -1.33301 16.833 -2.66602 28.5 -3.99902s20.834 -2 27.501 -2
c38 0 65.667 12.5 83 37.5s35.666 69.167 54.999 132.5l33 110l-316 1077h218zM704 1278v-22h-154l-122 155l-120 -155h-153v23l214 232h118z" />
    <glyph glyph-name="Ydieresis" unicode="&#x178;" horiz-adv-x="1026" 
d="M513 761l266 695h222l-392 -931v-525h-198v540l-386 916h222zM820 1613h-202v185h202v-185zM412 1613h-201v185h201v-185z" />
    <glyph glyph-name="Zacute" unicode="&#x179;" horiz-adv-x="970" 
d="M290 154h608v-154h-819v125l587 1176h-583v155h796v-121zM544 1824h230l-234 -266h-158z" />
    <glyph glyph-name="zacute" unicode="&#x17a;" horiz-adv-x="835" 
d="M294 154h470v-154h-686v128l448 797h-440v157h660v-126zM482 1481h230l-234 -266h-158z" />
    <glyph glyph-name="Zdotaccent" unicode="&#x17b;" horiz-adv-x="970" 
d="M290 154h608v-154h-819v125l587 1176h-583v155h796v-121zM588 1616h-213v200h213v-200z" />
    <glyph glyph-name="zdotaccent" unicode="&#x17c;" horiz-adv-x="835" 
d="M294 154h470v-154h-686v128l448 797h-440v157h660v-126zM526 1273h-213v200h213v-200z" />
    <glyph glyph-name="Zcaron" unicode="&#x17d;" horiz-adv-x="970" 
d="M290 154h608v-154h-819v125l587 1176h-583v155h796v-121zM482 1705l111 154h172v-17l-217 -240h-131l-216 239v18h169z" />
    <glyph glyph-name="zcaron" unicode="&#x17e;" horiz-adv-x="835" 
d="M294 154h470v-154h-686v128l448 797h-440v157h660v-126zM420 1362l111 154h172v-17l-217 -240h-131l-216 239v18h169z" />
    <glyph glyph-name="longs" unicode="&#x17f;" horiz-adv-x="446" 
d="M120 0l0.000976562 1221c0 116.667 26.167 205.834 78.5 267.501s126.833 92.5 223.5 92.5c19.333 0 38.666 -1.83301 57.999 -5.5s41 -8.83398 65 -15.501l-20 -146c-12 3.33301 -23.833 6 -35.5 8s-24.5 3 -38.5 3c-42.667 0 -75 -17.5 -97 -52.5s-33 -85.5 -33 -151.5
v-1221h-201z" />
    <glyph glyph-name="florin" unicode="&#x192;" horiz-adv-x="605" 
d="M534 937l-161.999 0.000976562l-1 -1011c0 -118 -24.833 -208 -74.5 -270s-120.167 -93 -211.5 -93c-20 0 -37.833 1.5 -53.5 4.5s-31.834 7.5 -48.501 13.5l12 151c8.66699 -3.33301 20.5 -6.33301 35.5 -9s28.833 -4 41.5 -4c32 0 56.5 17.833 73.5 53.5
s25.5 86.834 25.5 153.501v1011h-132v145h132v139c0 117.333 26 206.666 78 267.999s126.333 92 223 92c19.333 0 38.666 -1.83301 57.999 -5.5s41.333 -8.83398 66 -15.501l-20 -149c-11.333 3.33301 -23.333 6 -36 8s-26.667 3 -42 3c-43.333 0 -75.166 -17 -95.499 -51
s-30.5 -84 -30.5 -150v-139h162v-145z" />
    <glyph glyph-name="Ohorn" unicode="&#x1a0;" horiz-adv-x="1167" 
d="M1038 527c0 -176 -42.001 -311.332 -126.001 -405.999s-199 -142 -345 -142c-144 0 -256.833 47.333 -338.5 142s-122.5 230 -122.5 406v400c0 175.333 40.833 310.833 122.5 406.5s194.167 143.5 337.5 143.5c79.333 0 149.5 -14.667 210.5 -44
s112.833 -72.666 155.5 -129.999c36.667 13.333 62.834 42.166 78.501 86.499s23.5 106.166 23.5 185.499h151c0 -106.667 -15.667 -192.167 -47 -256.5s-79.333 -108.166 -144 -131.499c14 -38.667 24.833 -79.334 32.5 -122.001s11.5 -88.667 11.5 -138v-400z
M836.999 930.001c0 128.667 -23.001 225.334 -69.001 290.001s-113.333 97 -202 97c-85.333 0 -149.833 -32.333 -193.5 -97s-65.5 -161.334 -65.5 -290.001v-403c0 -130.667 21.833 -228.334 65.5 -293.001s108.5 -97 194.5 -97c88.667 0 155.834 32.333 201.501 97
s68.5 162.334 68.5 293.001v403z" />
    <glyph glyph-name="ohorn" unicode="&#x1a1;" horiz-adv-x="976" 
d="M76 609c0 146.667 35.002 265.5 105.002 356.5s168.333 136.5 295 136.5c63.333 0 119.5 -12.167 168.5 -36.5s91.5 -59.166 127.5 -104.499c30.667 14 51.5 39.667 62.5 77s16.5 89.666 16.5 156.999h135c0 -90 -12.333 -162.333 -37 -217s-64.667 -93 -120 -115
c15.333 -38 27.166 -78 35.499 -120s12.5 -86.667 12.5 -134v-138c0 -148 -34.833 -266.833 -104.5 -356.5s-167.834 -134.5 -294.501 -134.5c-128 0 -227 45 -297 135s-105 208.667 -105 356v138zM277.002 471c0 -101.333 16.001 -183 48.001 -245s83 -93 153 -93
c68 0 118.167 31.167 150.5 93.5s48.5 143.833 48.5 244.5v138c0 100 -16.333 181.167 -49 243.5s-83.334 93.5 -152.001 93.5c-69.333 0 -119.833 -31.167 -151.5 -93.5s-47.5 -143.5 -47.5 -243.5v-138z" />
    <glyph glyph-name="Uhorn" unicode="&#x1af;" horiz-adv-x="1188" 
d="M1002 1456l-0.000976562 -211c63.333 8 105.5 36 126.5 84s31.5 122 31.5 222h151c0 -138.667 -23.667 -243.5 -71 -314.5s-126.666 -110.167 -237.999 -117.5v-672c0 -154 -40.667 -270.5 -122 -349.5s-190 -118.5 -326 -118.5c-134 0 -240.833 39.5 -320.5 118.5
s-119.5 195.5 -119.5 349.5v1009h198v-1009c0 -106 21.5 -184.833 64.5 -236.5s102.167 -77.5 177.5 -77.5c78.667 0 139.667 24.833 183 74.5s65 129.5 65 239.5v1009h200z" />
    <glyph glyph-name="uhorn" unicode="&#x1b0;" horiz-adv-x="1040" 
d="M1076 1175c0 -107.333 -17.0029 -187.5 -51.0029 -240.5s-94.333 -84.167 -181 -93.5v-841h-177l-13 138h-2c-27.333 -51.333 -61.666 -90.5 -102.999 -117.5s-89.333 -40.5 -144 -40.5c-94.667 0 -167.667 36.833 -219 110.5s-77 191.167 -77 352.5v639h200v-641
c0 -113.333 11.667 -192.333 35 -237s60 -67 110 -67c46.667 0 85.334 11.167 116.001 33.5s55.334 54.833 74.001 97.5v814h200v-136c44.667 9.33301 73.5 31 86.5 65s19.5 88.667 19.5 164h126z" />
    <glyph glyph-name="uni01F0" unicode="&#x1f0;" horiz-adv-x="469" 
d="M340 1082v-1156c0 -118 -24.833 -208 -74.5 -270s-120.167 -93 -211.5 -93c-20 0 -37.5 1.5 -52.5 4.5s-31.5 7.5 -49.5 13.5l11 151c10 -3.33301 22.333 -6.33301 37 -9s28 -4 40 -4c32 0 56.667 17.833 74 53.5s26 86.834 26 153.501v1156h200zM232 1347l111 154h172
v-17l-217 -240h-131l-216 239v18h169z" />
    <glyph glyph-name="Aringacute" unicode="&#x1fa;" horiz-adv-x="1103" 
d="M769 374h-435l-99 -374h-204l426 1456h194l420 -1456h-203zM376 529h352l-174 657h-4zM638 1961h189l-200 -191h-123zM399 1555c0 48.667 14.5 88.834 43.5 120.501s65.5 47.5 109.5 47.5c42.667 0 78.167 -15.833 106.5 -47.5s42.5 -71.834 42.5 -120.501
c0 -48 -14.167 -87.167 -42.5 -117.5s-63.833 -45.5 -106.5 -45.5c-44 0 -80.5 15.167 -109.5 45.5s-43.5 69.5 -43.5 117.5zM480 1555c0 -25.333 6.83301 -46 20.5 -62s30.834 -24 51.501 -24c19.333 0 35.5 8 48.5 24s19.5 36.667 19.5 62c0 26 -6.5 47.5 -19.5 64.5
s-29.167 25.5 -48.5 25.5c-20.667 0 -37.834 -8.5 -51.501 -25.5s-20.5 -38.5 -20.5 -64.5z" />
    <glyph glyph-name="aringacute" unicode="&#x1fb;" horiz-adv-x="918" 
d="M635 0c-6.66699 24.667 -12.334 48.167 -17.001 70.5s-8 44.166 -10 65.499l-2 1c-28 -46 -62.667 -83.667 -104 -113s-87.666 -44 -138.999 -44c-89.333 0 -158.166 28.167 -206.499 84.5s-72.5 133.833 -72.5 232.5c0 105.333 32.833 187 98.5 245s160.167 87 283.5 87
h139v111c0 67.333 -13.167 119.166 -39.5 155.499s-64.5 54.5 -114.5 54.5c-46 0 -82 -16.167 -108 -48.5s-39 -74.5 -39 -126.5l-201 1c0 88.667 33 165.167 99 229.5s153.333 96.5 262 96.5c103.333 0 186.166 -30.833 248.499 -92.5s93.5 -152.167 93.5 -271.5v-502
c0 -41.333 2.5 -81.166 7.5 -119.499s12.833 -77.166 23.5 -116.499h-202zM409 136c44 0 83.333 13.167 118 39.5s60.667 60.166 78 101.499v226h-142c-58 0 -102.333 -19.667 -133 -59s-46 -88 -46 -146c0 -49.333 10.667 -88.666 32 -117.999s52.333 -44 93 -44zM541 1640
h189l-200 -191h-123zM302 1234c0 48.667 14.5 88.834 43.5 120.501s65.5 47.5 109.5 47.5c42.667 0 78.167 -15.833 106.5 -47.5s42.5 -71.834 42.5 -120.501c0 -48 -14.167 -87.167 -42.5 -117.5s-63.833 -45.5 -106.5 -45.5c-44 0 -80.5 15.167 -109.5 45.5
s-43.5 69.5 -43.5 117.5zM383 1234c0 -25.333 6.83301 -46 20.5 -62s30.834 -24 51.501 -24c19.333 0 35.5 8 48.5 24s19.5 36.667 19.5 62c0 26 -6.5 47.5 -19.5 64.5s-29.167 25.5 -48.5 25.5c-20.667 0 -37.834 -8.5 -51.501 -25.5s-20.5 -38.5 -20.5 -64.5z" />
    <glyph glyph-name="AEacute" unicode="&#x1fc;" horiz-adv-x="1571" 
d="M1520 0h-720l-12 361h-389l-155 -361h-239l666 1456h800v-157h-516l16 -467h434v-155h-429l17 -522h527v-155zM472 531h310l-23 661l-3 1zM826 1824h230l-234 -266h-158z" />
    <glyph glyph-name="aeacute" unicode="&#x1fd;" horiz-adv-x="1415" 
d="M1019 -21c-72.667 0 -135.835 14.5029 -189.502 43.5029s-98.834 71.833 -135.501 128.5c-32.667 -50.667 -76.667 -92 -132 -124s-123 -48 -203 -48c-99.333 0 -175.166 28.5 -227.499 85.5s-78.5 136.833 -78.5 239.5c0 107.333 32.167 189.833 96.5 247.5
s159.833 86.5 286.5 86.5h163v78c0 74 -12 130.833 -36 170.5s-59.333 59.5 -106 59.5c-50 0 -88.833 -17.833 -116.5 -53.5s-41.5 -80.834 -41.5 -135.501l-200 17c0 97.333 32.333 176.333 97 237s152 91 262 91c58.667 0 110.5 -10.5 155.5 -31.5
s82.833 -52.5 113.5 -94.5c34.667 41.333 73.834 72.666 117.501 93.999s92.834 32 147.501 32c116.667 0 206.167 -42 268.5 -126s93.5 -201.667 93.5 -353v-124h-551c0.666992 -112.667 19.334 -201.834 56.001 -267.501s94.667 -98.5 174 -98.5
c54 0 98.167 8.66699 132.5 26s71.5 43 111.5 77l59 -132c-31.333 -32.667 -73.833 -61.667 -127.5 -87s-116.834 -38 -189.501 -38zM397.999 127.003c36 0 73.002 12.666 111.002 37.999s68 55.333 90 90v246h-162c-58.667 0 -103.834 -19.167 -135.501 -57.5
s-47.5 -86.166 -47.5 -143.499c0 -54 11.667 -96.333 35 -127s59.666 -46 108.999 -46zM992.001 946.002c-57.333 0 -101.333 -27.5 -132 -82.5s-49 -129.833 -55 -224.5h351v30c0 84 -13.167 151.167 -39.5 201.5s-67.833 75.5 -124.5 75.5zM765.001 1503h230l-234 -266
h-158z" />
    <glyph glyph-name="Oslashacute" unicode="&#x1fe;" horiz-adv-x="1152" 
d="M1040 527c0 -176 -41.999 -311.333 -125.999 -406s-199 -142 -345 -142c-47.333 0 -90.833 5.16699 -130.5 15.5s-77.167 26.5 -112.5 48.5l-63 -133h-118l97 204c-44.667 48 -78.167 106.167 -100.5 174.5s-33.5 147.833 -33.5 238.5v400
c0 175.333 40.833 310.833 122.5 406.5s194.167 143.5 337.5 143.5c55.333 0 106.166 -7.33301 152.499 -22s89.166 -36.667 128.499 -66l58 123h118l-96 -202c36.667 -48.667 64.334 -104.5 83.001 -167.5s28 -134.833 28 -215.5v-400zM309.001 527
c0 -42.667 2.33301 -81.499 7 -116.499s12 -66.833 22 -95.5l430 904c-24 32.667 -52.5 57.167 -85.5 73.5s-71.167 24.5 -114.5 24.5c-85.333 0 -149.833 -32.333 -193.5 -97s-65.5 -161.334 -65.5 -290.001v-403zM839.001 930.001c0 30 -1.33105 57.833 -3.99805 83.5
s-6.33398 49.167 -11.001 70.5h-3l-419 -881c21.333 -22.667 45.666 -39.334 72.999 -50.001s58.666 -16 93.999 -16c88.667 0 155.834 32.333 201.501 97s68.5 162.334 68.5 293.001v403zM641.003 1886h230l-234 -266h-158z" />
    <glyph glyph-name="oslashacute" unicode="&#x1ff;" horiz-adv-x="958" 
d="M77 609c0 146.667 35.001 265.5 105.001 356.5s168.333 136.5 295 136.5c28.667 0 56 -2.83301 82 -8.5s51.333 -13.5 76 -23.5l57 143h118l-81 -205c48.667 -44.667 85.667 -101 111 -169s38 -144.667 38 -230v-138c0 -148 -34.833 -266.833 -104.5 -356.5
s-167.834 -134.5 -294.501 -134.5c-27.333 0 -52.833 2.16699 -76.5 6.5s-46.5 10.833 -68.5 19.5l-57 -145h-118l79 201c-53.333 44 -93.5 100.667 -120.5 170s-40.5 149 -40.5 239v138zM278.001 471c0 -42.667 2.83203 -82.167 8.49902 -118.5
s14.834 -68.833 27.501 -97.5l260 660c-14 10 -29 17.667 -45 23s-33.333 8 -52 8c-69.333 0 -119.833 -31.167 -151.5 -93.5s-47.5 -143.5 -47.5 -243.5v-138zM678 609c0 37.333 -2.5 72.333 -7.5 105s-12.167 63 -21.5 91l-256 -649c12 -8 25 -13.833 39 -17.5
s29.667 -5.5 47 -5.5c68 0 118.167 31.167 150.5 93.5s48.5 143.833 48.5 244.5v138zM508 1500h230l-234 -266h-158z" />
    <glyph glyph-name="uni0218" unicode="&#x218;" horiz-adv-x="1044" 
d="M766 366c0 70 -17.5029 126.503 -52.5029 169.503s-98.167 81.5 -189.5 115.5c-134.667 42.667 -236.667 97.167 -306 163.5s-104 156.166 -104 269.499c0 117.333 38.667 212.166 116 284.499s179.333 108.5 306 108.5c130.667 0 235 -42 313 -126s117 -189 117 -315
h-201c0 86.667 -19.667 156 -59 208s-96.666 78 -171.999 78c-71.333 0 -125.666 -21.833 -162.999 -65.5s-56 -100.5 -56 -170.5c0 -63.333 20.167 -115.666 60.5 -156.999s108.5 -79.666 204.5 -114.999c129.333 -42 226 -97.833 290 -167.5s96 -162.5 96 -278.5
c0 -122 -38.333 -217.333 -115 -286s-180 -103 -310 -103c-126.667 0 -235.667 38.167 -327 114.5s-137 187.166 -137 332.499h201c0 -102.667 23.667 -177.334 71 -224.001s111.333 -70 192 -70c72.667 0 128.334 20.667 167.001 62s58 98.666 58 171.999z
M601.997 -207.997c0 -59.333 -10.5 -118.332 -31.5 -176.999s-49.833 -108.334 -86.5 -149.001l-104 67c20 41.333 35 81.333 45 120s15 83 15 133v111h162v-105z" />
    <glyph glyph-name="uni0219" unicode="&#x219;" horiz-adv-x="859" 
d="M590 271c0 42.667 -12.5 78.1641 -37.5 106.497s-73.833 60.166 -146.5 95.499c-108 44 -187.167 89.833 -237.5 137.5s-75.5 111.5 -75.5 191.5c0 84.667 31 155.834 93 213.501s145 86.5 249 86.5c108 0 193.333 -31.333 256 -94s94 -143.334 94 -242.001h-200
c0 52.667 -13 97.167 -39 133.5s-63 54.5 -111 54.5c-47.333 0 -83.666 -14.167 -108.999 -42.5s-38 -62.166 -38 -101.499c0 -42 10.833 -74.667 32.5 -98s70.5 -54.666 146.5 -93.999c110 -41.333 190.667 -87.166 242 -137.499s77 -116.833 77 -199.5
c0 -91.333 -31.833 -164.333 -95.5 -219s-149.5 -82 -257.5 -82c-116.667 0 -207.334 33.5 -272.001 100.5s-97 148.167 -97 243.5h194c2 -71.333 19.5 -122.166 52.5 -152.499s74.833 -45.5 125.5 -45.5c49.333 0 87.333 13.333 114 40s40 61.667 40 105zM515 -206.003
c0 -59.333 -10.5 -118.332 -31.5 -176.999s-49.833 -108.334 -86.5 -149.001l-104 67c20 41.333 35 81.333 45 120s15 83 15 133v111h162v-105z" />
    <glyph glyph-name="uni021A" unicode="&#x21a;" horiz-adv-x="1010" 
d="M958 1300h-354v-1300h-199v1300h-353v156h906v-156zM586 -192c0 -59.333 -10.5 -118.332 -31.5 -176.999s-49.833 -108.334 -86.5 -149.001l-104 67c20 41.333 35 81.333 45 120s15 83 15 133v111h162v-105z" />
    <glyph glyph-name="uni021B" unicode="&#x21b;" horiz-adv-x="564" 
d="M352 1351l0.00292969 -269h156v-145h-156v-644c0 -57.333 6.66699 -97.333 20 -120s31.333 -34 54 -34c13.333 0 25.666 1 36.999 3s22.666 4.66699 33.999 8l21 -139c-18 -9.33301 -39.5 -16.833 -64.5 -22.5s-50.833 -8.5 -77.5 -8.5
c-72.667 0 -128.334 24.5 -167.001 73.5s-58 128.833 -58 239.5v644h-119v145h119v269h201zM439.003 -198c0 -59.333 -10.5 -118.332 -31.5 -176.999s-49.833 -108.334 -86.5 -149.001l-104 67c20 41.333 35 81.333 45 120s15 83 15 133v111h162v-105z" />
    <glyph glyph-name="uni0237" unicode="&#x237;" horiz-adv-x="469" 
d="M340 1082v-1156c0 -118 -24.833 -208 -74.5 -270s-120.167 -93 -211.5 -93c-20 0 -37.5 1.5 -52.5 4.5s-31.5 7.5 -49.5 13.5l11 151c10 -3.33301 22.333 -6.33301 37 -9s28 -4 40 -4c32 0 56.667 17.833 74 53.5s26 86.834 26 153.501v1156h200z" />
    <glyph glyph-name="schwa" unicode="&#x259;" horiz-adv-x="896" 
d="M424 1103c125.333 0 224.167 -49.168 296.5 -147.501s108.5 -227.166 108.5 -386.499v-47c0 -161.333 -35.667 -292 -107 -392s-163.333 -149.667 -276 -149c-120.667 0 -211.5 41.833 -272.5 125.5s-91.5 200.167 -91.5 349.5v125h548c-2 108.667 -21.5 197 -58.5 265
s-90.833 102 -161.5 102c-54.667 0 -100.334 -8.83301 -137.001 -26.5s-72 -43.5 -106 -77.5l-64 126c32.667 38.667 75.834 70.5 129.501 95.5s117.5 37.5 191.5 37.5zM446.001 133.999c50 0 90.5 27.499 121.5 82.499s50.5 128.5 58.5 220.5h-346v-27
c0 -83.333 13.333 -150.166 40 -200.499s68.667 -75.5 126 -75.5z" />
    <glyph glyph-name="uni02BC" unicode="&#x2bc;" horiz-adv-x="384" 
d="M305 1377c0 -65.333 -13.5 -131.167 -40.5 -197.5s-62.5 -121.833 -106.5 -166.5l-104 67c23.333 46 41 92.167 53 138.5s18 98.5 18 156.5v185h180v-183z" />
    <glyph glyph-name="circumflex" unicode="&#x2c6;" horiz-adv-x="829" 
d="M683 1274v-22h-154l-122 155l-120 -155h-153v23l214 232h118z" />
    <glyph glyph-name="caron" unicode="&#x2c7;" horiz-adv-x="785" 
d="M388 1355l111 154h172v-17l-217 -240h-131l-216 239v18h169z" />
    <glyph glyph-name="breve" unicode="&#x2d8;" horiz-adv-x="774" 
d="M655 1456c0 -83.333 -24.332 -149.5 -72.999 -198.5s-115.334 -73.5 -200.001 -73.5s-151.167 24.5 -199.5 73.5s-72.5 115.167 -72.5 198.5h151c0 -46.667 9.5 -84 28.5 -112s49.833 -42 92.5 -42c42 0 72.667 14.167 92 42.5s29 65.5 29 111.5h152z" />
    <glyph glyph-name="dotaccent" unicode="&#x2d9;" horiz-adv-x="503" 
d="M348 1259h-213v200h213v-200z" />
    <glyph glyph-name="ring" unicode="&#x2da;" horiz-adv-x="601" 
d="M124 1311c0 52.667 16.667 96.5 50 131.5s75 52.5 125 52.5c48.667 0 89.334 -17.5 122.001 -52.5s49 -78.833 49 -131.5c0 -54 -16.333 -97.667 -49 -131s-73.334 -50 -122.001 -50c-50 0 -91.667 16.667 -125 50s-50 77 -50 131zM215 1311c0 -28 8 -50.999 24 -68.999
s36 -27 60 -27s43.5 8.83301 58.5 26.5s22.5 40.834 22.5 69.501c0 29.333 -7.5 53.166 -22.5 71.499s-34.5 27.5 -58.5 27.5s-44 -9.33301 -60 -28s-24 -42.334 -24 -71.001z" />
    <glyph glyph-name="ogonek" unicode="&#x2db;" horiz-adv-x="501" 
d="M331 0c-42.667 -34.667 -74.668 -68.666 -96.001 -101.999s-32 -70.333 -32 -111c0 -24 4.16699 -42.667 12.5 -56s22.833 -20 43.5 -20c14 0 26.5 2.66699 37.5 8s21.833 12 32.5 20l19 -117c-17.333 -12.667 -36.5 -23.167 -57.5 -31.5s-46.167 -12.5 -75.5 -12.5
c-51.333 0 -92.666 16.167 -123.999 48.5s-47 78.833 -47 139.5c0 54.667 16.333 106.167 49 154.5s84 91.166 154 128.499z" />
    <glyph glyph-name="tilde" unicode="&#x2dc;" horiz-adv-x="814" 
d="M696 1484c0 -62.667 -15.666 -114.667 -46.999 -156s-72 -62 -122 -62c-38.667 0 -79.834 16.333 -123.501 49s-79.5 49 -107.5 49c-21.333 0 -39 -11 -53 -33s-21 -49.667 -21 -83l-108 28c0 62 15.5 114.167 46.5 156.5s71.5 63.5 121.5 63.5
c30.667 0 69.834 -16.5 117.501 -49.5s85.5 -49.5 113.5 -49.5c21.333 0 39.166 11.167 53.499 33.5s21.5 50.5 21.5 84.5z" />
    <glyph glyph-name="hungarumlaut" unicode="&#x2dd;" horiz-adv-x="687" 
d="M557 1518h206l-239 -266h-165zM267 1518h198l-197 -266h-155z" />
    <glyph glyph-name="uni02F3" unicode="&#x2f3;" horiz-adv-x="561" 
d="M148 -228c0 42.667 13.168 78 39.501 106s59.166 42 98.499 42c38 0 69.833 -13.833 95.5 -41.5s38.5 -63.167 38.5 -106.5c0 -42.667 -12.667 -77.334 -38 -104.001s-57.333 -40 -96 -40c-40 0 -73 13.333 -99 40s-39 61.334 -39 104.001zM230.001 -228
c0 -18.667 5.33301 -34.167 16 -46.5s24 -18.5 40 -18.5c15.333 0 27.833 6.16699 37.5 18.5s14.5 27.833 14.5 46.5c0 20 -5 36.333 -15 49s-22.333 19 -37 19c-16 0 -29.333 -6.33301 -40 -19s-16 -29 -16 -49z" />
    <glyph glyph-name="gravecomb" unicode="&#x300;" horiz-adv-x="25" 
d="M-359 1207h-126l-147 325h170z" />
    <glyph glyph-name="acutecomb" unicode="&#x301;" horiz-adv-x="25" 
d="M-463 1535h168l-153 -325h-120z" />
    <glyph glyph-name="tildecomb" unicode="&#x303;" horiz-adv-x="25" 
d="M-134 1484c0 -62.667 -15.666 -114.667 -46.999 -156s-72 -62 -122 -62c-38.667 0 -79.834 16.333 -123.501 49s-79.5 49 -107.5 49c-21.333 0 -39 -11 -53 -33s-21 -49.667 -21 -83l-108 28c0 62 15.5 114.167 46.5 156.5s71.5 63.5 121.5 63.5
c30.667 0 69.834 -16.5 117.501 -49.5s85.5 -49.5 113.5 -49.5c21.333 0 39.166 11.167 53.499 33.5s21.5 50.5 21.5 84.5z" />
    <glyph glyph-name="hook" unicode="&#x309;" horiz-adv-x="25" 
d="M-543 1245l-7 137.002c42 3.33301 71.333 10.666 88 21.999s25 30.333 25 57c0 29.333 -10.5 50.333 -31.5 63s-50.833 19 -89.5 19l5 103c92 0 161.5 -16.167 208.5 -48.5s70.5 -77.5 70.5 -135.5c0 -46.667 -11.5 -82.334 -34.5 -107.001s-51.833 -39.667 -86.5 -45
v-65h-148z" />
    <glyph glyph-name="uni030F" unicode="&#x30f;" horiz-adv-x="25" 
d="M-394 1252h-170l-240 266h213zM-147 1252h-161l-197 266h203z" />
    <glyph glyph-name="dotbelow" unicode="&#x323;" horiz-adv-x="25" 
d="M-356 -333h-224v200h224v-200z" />
    <glyph glyph-name="tonos" unicode="&#x384;" horiz-adv-x="522" 
d="M244 1633h197l-156 -356h-97z" />
    <glyph glyph-name="dieresistonos" unicode="&#x385;" horiz-adv-x="900" 
d="M748 1274h-177v182h177v-182zM315 1274h-177v182h177v-182zM412 1684h203l-123 -278h-117z" />
    <glyph glyph-name="Alphatonos" unicode="&#x386;" horiz-adv-x="1103" 
d="M769 374h-435l-99 -374h-204l426 1456h194l420 -1456h-203zM376 529h352l-174 657h-4zM209 1633h197l-156 -356h-97z" />
    <glyph glyph-name="anoteleia" unicode="&#x387;" horiz-adv-x="494" 
d="M341 606h-200v214h200v-214z" />
    <glyph glyph-name="Epsilontonos" unicode="&#x388;" horiz-adv-x="1077" 
d="M946 676h-508v-522h590v-154h-791v1456h786v-156h-585v-469h508v-155zM16 1635h197l-156 -356h-97z" />
    <glyph glyph-name="Etatonos" unicode="&#x389;" horiz-adv-x="1294" 
d="M1156 0h-201v642h-517v-642h-201v1456h201v-659h517v659h201v-1456zM53 1633h197l-156 -356h-97z" />
    <glyph glyph-name="Iotatonos" unicode="&#x38a;" horiz-adv-x="599" 
d="M450 0h-201v1456h201v-1456zM57 1633h197l-156 -356h-97z" />
    <glyph glyph-name="Omicrontonos" unicode="&#x38c;" horiz-adv-x="1184" 
d="M1068 527c0 -176 -42 -311.333 -126 -406s-199 -142 -345 -142c-144 0 -256.833 47.333 -338.5 142s-122.5 230 -122.5 406v400c0 175.333 40.833 310.833 122.5 406.5s194.167 143.5 337.5 143.5c146 0 261.167 -47.833 345.5 -143.5s126.5 -231.167 126.5 -406.5v-400z
M867 930c0 128.667 -23.001 225.334 -69.001 290.001s-113.333 97 -202 97c-85.333 0 -149.833 -32.333 -193.5 -97s-65.5 -161.334 -65.5 -290.001v-403c0 -130.667 21.833 -228.334 65.5 -293.001s108.5 -97 194.5 -97c88.667 0 155.834 32.333 201.501 97
s68.5 162.334 68.5 293.001v403zM99.999 1633h197l-156 -356h-97z" />
    <glyph glyph-name="Upsilontonos" unicode="&#x38e;" horiz-adv-x="1126" 
d="M613 761l266 695h222l-392 -931v-525h-198v540l-386 916h222zM-36 1633h197l-156 -356h-97z" />
    <glyph glyph-name="Omegatonos" unicode="&#x38f;" horiz-adv-x="1147" 
d="M623 164c62.667 24 110.834 82.332 144.501 174.999s50.5 225.334 50.5 398.001v111c0 151.333 -21.333 267.833 -64 349.5s-102.667 122.5 -180 122.5c-76.667 0 -136.167 -40.833 -178.5 -122.5s-63.5 -198.167 -63.5 -349.5v-111
c0 -173.333 17.167 -306.333 51.5 -399s84.166 -150.667 149.499 -174v-164h-403v155h215c-70 62.667 -125.167 144.5 -165.5 245.5s-60.5 213.167 -60.5 336.5v109c0 190.667 41.333 343.5 124 458.5s193 172.5 331 172.5s248.833 -57.5 332.5 -172.5
s125.5 -267.833 125.5 -458.5v-109c0 -122.667 -20.167 -234.5 -60.5 -335.5s-94.833 -183.167 -163.5 -246.5h218v-155h-403v164zM83 1633h197l-156 -356h-97z" />
    <glyph glyph-name="iotadieresistonos" unicode="&#x390;" horiz-adv-x="568" 
d="M345 1081l0.000976562 -795.002c0 -57.333 6.33301 -96.666 19 -117.999s31.334 -32 56.001 -32c14.667 0 27.167 1.5 37.5 4.5s23.166 8.16699 38.499 15.5l30 -138c-25.333 -15.333 -49.333 -25.666 -72 -30.999s-49 -8 -79 -8c-76.667 0 -134.334 24.5 -173.001 73.5
s-58 129.167 -58 240.5v788h201zM554.001 1203h-177v182h177v-182zM121.001 1203h-177v182h177v-182zM218.001 1613h203l-123 -278h-117z" />
    <glyph glyph-name="Alpha" unicode="&#x391;" horiz-adv-x="1103" 
d="M769 374h-435l-99 -374h-204l426 1456h194l420 -1456h-203zM376 529h352l-174 657h-4z" />
    <glyph glyph-name="Beta" unicode="&#x392;" horiz-adv-x="1079" 
d="M137 0v1456h394c132.667 0 234.5 -32 305.5 -96s106.5 -162.667 106.5 -296c0 -70.667 -16.167 -132 -48.5 -184s-77.833 -90 -136.5 -114v-3c75.333 -16.667 132.5 -57 171.5 -121s58.5 -140.667 58.5 -230c0 -137.333 -34.833 -240.333 -104.5 -309
s-169.5 -103 -299.5 -103h-447zM338 679l-0.000976562 -525h246c66.667 0 117.334 22 152.001 66s52 107.667 52 191c0 84 -15 149.667 -45 197s-77 71 -141 71h-264zM337.999 825h220c59.333 2 105 22.833 137 62.5s48 97.167 48 172.5c0 82 -17.5 142.5 -52.5 181.5
s-88.167 58.5 -159.5 58.5h-193v-475z" />
    <glyph glyph-name="Gamma" unicode="&#x393;" horiz-adv-x="941" 
d="M880 1300h-542v-1300h-201v1456h743v-156z" />
    <glyph glyph-name="Delta" unicode="&#x394;" horiz-adv-x="1208" 
d="M514 1456h193l461 -1456h-1135zM289 154h625l-304 1000h-3z" />
    <glyph glyph-name="Delta" unicode="&#x2206;" horiz-adv-x="1208" 
d="M514 1456h193l461 -1456h-1135zM289 154h625l-304 1000h-3z" />
    <glyph glyph-name="Epsilon" unicode="&#x395;" horiz-adv-x="977" 
d="M846 676h-508v-522h590v-154h-791v1456h786v-156h-585v-469h508v-155z" />
    <glyph glyph-name="Zeta" unicode="&#x396;" horiz-adv-x="970" 
d="M290 154h608v-154h-819v125l587 1176h-583v155h796v-121z" />
    <glyph glyph-name="Eta" unicode="&#x397;" horiz-adv-x="1194" 
d="M1056 0h-201v642h-517v-642h-201v1456h201v-659h517v659h201v-1456z" />
    <glyph glyph-name="Theta" unicode="&#x398;" horiz-adv-x="1154" 
d="M758 652h-353v154h353v-154zM1037 527c0 -176 -42 -311.333 -126 -406s-199 -142 -345 -142c-144 0 -256.833 47.333 -338.5 142s-122.5 230 -122.5 406v400c0 175.333 40.833 310.833 122.5 406.5s194.167 143.5 337.5 143.5c146 0 261.167 -47.833 345.5 -143.5
s126.5 -231.167 126.5 -406.5v-400zM836 930c0 128.667 -23.001 225.334 -69.001 290.001s-113.333 97 -202 97c-85.333 0 -149.833 -32.333 -193.5 -97s-65.5 -161.334 -65.5 -290.001v-403c0 -130.667 21.833 -228.334 65.5 -293.001s108.5 -97 194.5 -97
c88.667 0 155.834 32.333 201.501 97s68.5 162.334 68.5 293.001v403z" />
    <glyph glyph-name="Iota" unicode="&#x399;" horiz-adv-x="499" 
d="M350 0h-201v1456h201v-1456z" />
    <glyph glyph-name="Kappa" unicode="&#x39a;" horiz-adv-x="1086" 
d="M466 653h-128v-653h-201v1456h201v-640h111l359 640h239l-430 -693l462 -763h-245z" />
    <glyph glyph-name="Lambda" unicode="&#x39b;" horiz-adv-x="1098" 
d="M549 1183h-4l-299 -1183h-207l411 1456h194l411 -1456h-207z" />
    <glyph glyph-name="Mu" unicode="&#x39c;" horiz-adv-x="1421" 
d="M390 1456l318 -1192h3l318 1192h259v-1456h-199v559l19 555l-3 1l-329 -1115h-133l-328 1115l-3 -1l19 -555v-559h-199v1456h258z" />
    <glyph glyph-name="Nu" unicode="&#x39d;" horiz-adv-x="1195" 
d="M1056 0h-200l-515 1074l-3 -1v-1073h-201v1456h201l515 -1072l3 1v1071h200v-1456z" />
    <glyph glyph-name="Xi" unicode="&#x39e;" horiz-adv-x="964" 
d="M100 154h772v-154h-772v154zM179 817h610v-152h-610v152zM110 1456h740v-155h-740v155z" />
    <glyph glyph-name="Omicron" unicode="&#x39f;" horiz-adv-x="1164" 
d="M1048 527c0 -176 -42 -311.333 -126 -406s-199 -142 -345 -142c-144 0 -256.833 47.333 -338.5 142s-122.5 230 -122.5 406v400c0 175.333 40.833 310.833 122.5 406.5s194.167 143.5 337.5 143.5c146 0 261.167 -47.833 345.5 -143.5s126.5 -231.167 126.5 -406.5v-400z
M847 930c0 128.667 -23.001 225.334 -69.001 290.001s-113.333 97 -202 97c-85.333 0 -149.833 -32.333 -193.5 -97s-65.5 -161.334 -65.5 -290.001v-403c0 -130.667 21.833 -228.334 65.5 -293.001s108.5 -97 194.5 -97c88.667 0 155.834 32.333 201.501 97
s68.5 162.334 68.5 293.001v403z" />
    <glyph glyph-name="Pi" unicode="&#x3a0;" horiz-adv-x="1195" 
d="M1056 0h-199v1300h-519v-1300h-201v1456h919v-1456z" />
    <glyph glyph-name="Rho" unicode="&#x3a1;" horiz-adv-x="1089" 
d="M338 574v-574h-201v1456h459c132 0 234.333 -39.833 307 -119.5s109 -186.834 109 -321.501c0 -135.333 -36.167 -242.666 -108.5 -321.999s-174.833 -119 -307.5 -119h-258zM338 730h258c72.667 0 126.667 26.333 162 79s53 120.667 53 204
c0 84 -17.667 152.833 -53 206.5s-89.333 80.5 -162 80.5h-258v-570z" />
    <glyph glyph-name="Sigma" unicode="&#x3a3;" horiz-adv-x="964" 
d="M650 729l-347 -575h594v-154h-828v126l369 615l-369 588v127h799v-155h-561l343 -545v-27z" />
    <glyph glyph-name="Tau" unicode="&#x3a4;" horiz-adv-x="1010" 
d="M958 1300h-354v-1300h-199v1300h-353v156h906v-156z" />
    <glyph glyph-name="Upsilon" unicode="&#x3a5;" horiz-adv-x="1026" 
d="M513 761l266 695h222l-392 -931v-525h-198v540l-386 916h222z" />
    <glyph glyph-name="Phi" unicode="&#x3a6;" horiz-adv-x="1249" 
d="M727 1273c133.333 -2.66699 242.166 -54.332 326.499 -154.999s126.5 -231.334 126.5 -392.001c0 -161.333 -42.167 -292.333 -126.5 -393s-193.166 -152 -326.499 -154v-179h-200v179c-134.667 1.33301 -244 52 -328 152s-126 231 -126 393
c0 161.333 42 292.5 126 393.5s193.333 152.833 328 155.5v183h200v-183zM270 724.002c0 -120 22.167 -214 66.5 -282s107.833 -102.667 190.5 -104v776c-82.667 -2.66699 -146.167 -38.5 -190.5 -107.5s-66.5 -163.167 -66.5 -282.5zM982 726.002
c0 118 -22.5 211.332 -67.5 279.999s-107.5 104.334 -187.5 107.001v-775c80 2 142.5 37.5 187.5 106.5s67.5 162.833 67.5 281.5z" />
    <glyph glyph-name="Chi" unicode="&#x3a7;" horiz-adv-x="1069" 
d="M531 881l244 575h236l-359 -721l374 -735h-241l-251 588l-251 -588h-237l367 735l-358 721h235z" />
    <glyph glyph-name="Psi" unicode="&#x3a8;" horiz-adv-x="1192" 
d="M689 538c72 16.667 127.167 59.334 165.5 128.001s57.5 161.667 57.5 279v511h201v-511c0 -167.333 -37.833 -299.333 -113.5 -396s-179.167 -153.334 -310.5 -170.001v-379h-200v379c-131.333 14.667 -234.5 70.5 -309.5 167.5s-112.5 229.833 -112.5 398.5v511h201
v-511c0 -114.667 19.167 -206.5 57.5 -275.5s92.833 -112.5 163.5 -130.5v917h200v-918z" />
    <glyph glyph-name="Omega" unicode="&#x3a9;" horiz-adv-x="1127" 
d="M603 164c62.667 24 110.834 82.332 144.501 174.999s50.5 225.334 50.5 398.001v111c0 151.333 -21.333 267.833 -64 349.5s-102.667 122.5 -180 122.5c-76.667 0 -136.167 -40.833 -178.5 -122.5s-63.5 -198.167 -63.5 -349.5v-111
c0 -173.333 17.167 -306.333 51.5 -399s84.166 -150.667 149.499 -174v-164h-403v155h215c-70 62.667 -125.167 144.5 -165.5 245.5s-60.5 213.167 -60.5 336.5v109c0 190.667 41.333 343.5 124 458.5s193 172.5 331 172.5s248.833 -57.5 332.5 -172.5
s125.5 -267.833 125.5 -458.5v-109c0 -122.667 -20.167 -234.5 -60.5 -335.5s-94.833 -183.167 -163.5 -246.5h218v-155h-403v164z" />
    <glyph glyph-name="Omega" unicode="&#x2126;" horiz-adv-x="1127" 
d="M603 164c62.667 24 110.834 82.332 144.501 174.999s50.5 225.334 50.5 398.001v111c0 151.333 -21.333 267.833 -64 349.5s-102.667 122.5 -180 122.5c-76.667 0 -136.167 -40.833 -178.5 -122.5s-63.5 -198.167 -63.5 -349.5v-111
c0 -173.333 17.167 -306.333 51.5 -399s84.166 -150.667 149.499 -174v-164h-403v155h215c-70 62.667 -125.167 144.5 -165.5 245.5s-60.5 213.167 -60.5 336.5v109c0 190.667 41.333 343.5 124 458.5s193 172.5 331 172.5s248.833 -57.5 332.5 -172.5
s125.5 -267.833 125.5 -458.5v-109c0 -122.667 -20.167 -234.5 -60.5 -335.5s-94.833 -183.167 -163.5 -246.5h218v-155h-403v164z" />
    <glyph glyph-name="Iotadieresis" unicode="&#x3aa;" horiz-adv-x="499" 
d="M350 0h-201v1456h201v-1456zM554 1617h-202v185h202v-185zM146 1617h-201v185h201v-185z" />
    <glyph glyph-name="Upsilondieresis" unicode="&#x3ab;" horiz-adv-x="1026" 
d="M513 761l266 695h222l-392 -931v-525h-198v540l-386 916h222zM820 1613h-202v185h202v-185zM412 1613h-201v185h201v-185z" />
    <glyph glyph-name="alphatonos" unicode="&#x3ac;" horiz-adv-x="954" 
d="M834 1081v-779.002c0 -60.667 5 -102.5 15 -125.5s24.667 -34.5 44 -34.5c4 0 7.66699 0.5 11 1.5s6.66602 2.5 9.99902 4.5l19 -142c-16.667 -10 -32.667 -17 -48 -21s-33 -6 -53 -6c-46 0 -83.667 11.833 -113 35.5s-51.333 61.834 -66 114.501
c-27.333 -50 -60 -87.5 -98 -112.5s-83.333 -37.5 -136 -37.5c-109.333 0 -193.166 47.333 -251.499 142s-87.5 223.334 -87.5 386.001v21c0 176.667 29.167 316.5 87.5 419.5s142.833 154.5 253.5 154.5c50 0 93.167 -11.833 129.5 -35.5s67.5 -58.167 93.5 -103.5l3 1
l14 117h173zM280 506.998c0 -116.667 14.6689 -208.167 44.002 -274.5s77.666 -99.5 144.999 -99.5c39.333 0 72.166 12 98.499 36s48.166 59 65.499 105v28v492c-18 48 -40.167 85.333 -66.5 112s-58.166 40 -95.499 40c-66.667 0 -115.167 -38 -145.5 -114
s-45.5 -177.333 -45.5 -304v-21zM498.002 1605h197l-156 -356h-97z" />
    <glyph glyph-name="epsilontonos" unicode="&#x3ad;" horiz-adv-x="927" 
d="M90 302c0 63.333 14.333 116.168 43 158.501s71 74.166 127 95.499c-50 23.333 -88.333 55.333 -115 96s-40 86.334 -40 137.001c0 100.667 33 177.667 99 231s156.667 80 272 80c102.667 0 188.334 -28.833 257.001 -86.5s103 -135.167 103 -232.5h-200
c0 50 -15.667 90.667 -47 122s-71.333 47 -120 47c-56 0 -97.333 -15.667 -124 -47s-40 -71.333 -40 -120c0 -51.333 13 -91 39 -119s66.333 -42 121 -42h158v-141h-158c-58.667 0 -102.5 -14 -131.5 -42s-43.5 -72 -43.5 -132c0 -52.667 15.5 -95.5 46.5 -128.5
s75.167 -49.5 132.5 -49.5c55.333 0 99.166 17.667 131.499 53s48.5 80 48.5 134h201c0 -110.667 -36.667 -194.167 -110 -250.5s-161.333 -84.5 -264 -84.5c-116 0 -209.333 28.167 -280 84.5s-106 135.166 -106 236.499zM456 1604h197l-156 -356h-97z" />
    <glyph glyph-name="etatonos" unicode="&#x3ae;" 
d="M295 1082l10.999 -147h3c27.333 52.667 61.833 93.667 103.5 123s89.5 44 143.5 44c92.667 0 163.5 -33.667 212.5 -101s73.5 -179 73.5 -335v-1081h-201v1080c0 104 -12.5 176.833 -37.5 218.5s-64.167 62.5 -117.5 62.5c-40 0 -74.167 -10.5 -102.5 -31.5
s-52.166 -51.167 -71.499 -90.5v-824h-201v1082h184zM461.999 1605h197l-156 -356h-97z" />
    <glyph glyph-name="iotatonos" unicode="&#x3af;" horiz-adv-x="568" 
d="M345 1081l0.000976562 -795.002c0 -57.333 6.33301 -96.666 19 -117.999s31.334 -32 56.001 -32c14.667 0 27.167 1.5 37.5 4.5s23.166 8.16699 38.499 15.5l30 -138c-25.333 -15.333 -49.333 -25.666 -72 -30.999s-49 -8 -79 -8c-76.667 0 -134.334 24.5 -173.001 73.5
s-58 129.167 -58 240.5v788h201zM240.001 1583h197l-156 -356h-97z" />
    <glyph glyph-name="upsilondieresistonos" unicode="&#x3b0;" horiz-adv-x="924" 
d="M313 1082l-0.000976562 -668.001c0 -99.333 11.167 -171 33.5 -215s52.833 -66 91.5 -66c63.333 0 113.166 41.833 149.499 125.5s54.5 182.167 54.5 295.5c-2 90 -10.667 177.833 -26 263.5s-36.666 173.834 -63.999 264.501h198c28 -74 50.333 -153.167 67 -237.5
s25 -180.833 25 -289.5c0 -172 -32.667 -311 -98 -417s-164.666 -159 -297.999 -159c-108 0 -190.5 35 -247.5 105s-85.5 180.667 -85.5 332v666h200zM766.999 1204h-177v182h177v-182zM333.999 1204h-177v182h177v-182zM430.999 1614h203l-123 -278h-117z" />
    <glyph glyph-name="alpha" unicode="&#x3b1;" horiz-adv-x="954" 
d="M834 1081v-779.002c0 -60.667 5 -102.5 15 -125.5s24.667 -34.5 44 -34.5c4 0 7.66699 0.5 11 1.5s6.66602 2.5 9.99902 4.5l19 -142c-16.667 -10 -32.667 -17 -48 -21s-33 -6 -53 -6c-46 0 -83.667 11.833 -113 35.5s-51.333 61.834 -66 114.501
c-27.333 -50 -60 -87.5 -98 -112.5s-83.333 -37.5 -136 -37.5c-109.333 0 -193.166 47.333 -251.499 142s-87.5 223.334 -87.5 386.001v21c0 176.667 29.167 316.5 87.5 419.5s142.833 154.5 253.5 154.5c50 0 93.167 -11.833 129.5 -35.5s67.5 -58.167 93.5 -103.5l3 1
l14 117h173zM280 506.998c0 -116.667 14.6689 -208.167 44.002 -274.5s77.666 -99.5 144.999 -99.5c39.333 0 72.166 12 98.499 36s48.166 59 65.499 105v28v492c-18 48 -40.167 85.333 -66.5 112s-58.166 40 -95.499 40c-66.667 0 -115.167 -38 -145.5 -114
s-45.5 -177.333 -45.5 -304v-21z" />
    <glyph glyph-name="beta" unicode="&#x3b2;" horiz-adv-x="1008" 
d="M509 1476c112 0 200.498 -35 265.498 -105s97.5 -165 97.5 -285c0 -66 -14 -125.5 -42 -178.5s-67.667 -95.167 -119 -126.5c68.667 -29.333 121.334 -75.833 158.001 -139.5s55 -139.834 55 -228.501c0 -139.333 -32.333 -246.333 -97 -321s-153 -112 -265 -112
c-42 0 -82.667 6.33301 -122 19s-75.333 32.334 -108 59.001v-453h-201v1452c0 121.333 36.333 221.5 109 300.5s162.334 118.5 269.001 118.5zM505.998 845c58 0 100.166 20.333 126.499 61s39.5 99.667 39.5 177c0 66 -14.167 122.167 -42.5 168.5s-68.5 69.5 -120.5 69.5
s-94.5 -24.5 -127.5 -73.5s-49.5 -112.5 -49.5 -190.5v-836c22 -28.667 49.167 -50.5 81.5 -65.5s69.5 -22.5 111.5 -22.5c62.667 0 111.334 25 146.001 75s52 117.667 52 203c0 83.333 -15.667 151.5 -47 204.5s-76 79.5 -134 79.5h-95v150h59z" />
    <glyph glyph-name="gamma" unicode="&#x3b3;" horiz-adv-x="860" 
d="M621 1082h207l-296 -1047v-451h-200v458l-296 1040h208l172 -757l16 -86h3l17 86z" />
    <glyph glyph-name="delta" unicode="&#x3b4;" 
d="M177 1271c0 92 28.499 164.167 85.499 216.5s137.167 78.5 240.5 78.5c42 0 83.167 -7 123.5 -21s81.833 -34.667 124.5 -62l-35 -131c-26.667 16 -58.667 30 -96 42s-75 18 -113 18c-43.333 0 -76.666 -12 -99.999 -36s-35 -57.667 -35 -101
c0 -37.333 10.167 -71 30.5 -101s59.833 -58 118.5 -84c120.667 -48 211 -118.5 271 -211.5s90 -207.167 90 -342.5v-26c0 -159.333 -35.167 -287.5 -105.5 -384.5s-168.833 -145.5 -295.5 -145.5c-127.333 0 -226.5 48.167 -297.5 144.5s-106.5 223.5 -106.5 381.5v26
c0 120.667 23.667 222.167 71 304.5s108 133.833 182 154.5l3 11c-50 29.333 -88.5 67 -115.5 113s-40.5 98 -40.5 156zM277.999 514c0 -113.333 16.668 -205.168 50.001 -275.501s84.333 -105.5 153 -105.5c67.333 0 117.833 35.333 151.5 106s50.5 162.334 50.5 275.001
v26c0 92.667 -18.333 174.5 -55 245.5s-85.334 114.833 -146.001 131.5c-68 0 -119 -35.667 -153 -107s-51 -161.333 -51 -270v-26z" />
    <glyph glyph-name="epsilon" unicode="&#x3b5;" horiz-adv-x="927" 
d="M90 302c0 63.333 14.333 116.168 43 158.501s71 74.166 127 95.499c-50 23.333 -88.333 55.333 -115 96s-40 86.334 -40 137.001c0 100.667 33 177.667 99 231s156.667 80 272 80c102.667 0 188.334 -28.833 257.001 -86.5s103 -135.167 103 -232.5h-200
c0 50 -15.667 90.667 -47 122s-71.333 47 -120 47c-56 0 -97.333 -15.667 -124 -47s-40 -71.333 -40 -120c0 -51.333 13 -91 39 -119s66.333 -42 121 -42h158v-141h-158c-58.667 0 -102.5 -14 -131.5 -42s-43.5 -72 -43.5 -132c0 -52.667 15.5 -95.5 46.5 -128.5
s75.167 -49.5 132.5 -49.5c55.333 0 99.166 17.667 131.499 53s48.5 80 48.5 134h201c0 -110.667 -36.667 -194.167 -110 -250.5s-161.333 -84.5 -264 -84.5c-116 0 -209.333 28.167 -280 84.5s-106 135.166 -106 236.499z" />
    <glyph glyph-name="zeta" unicode="&#x3b6;" horiz-adv-x="864" 
d="M791 1456l-0.000976562 -116.004l-283 -458c-64 -104 -109.333 -191 -136 -261s-40 -147.667 -40 -233c0 -65.333 9.33301 -114.166 28 -146.499s50 -56.833 94 -73.5l84 -32c82 -28 139.667 -55 173 -81s50 -73 50 -141c-0.666992 -54 -18.167 -109.5 -52.5 -166.5
s-72.5 -101.5 -114.5 -133.5l-103 81c25.333 31.333 44 62.333 56 93s18 62 18 94c0 26.667 -7.83301 48.334 -23.5 65.001s-42.5 31.334 -80.5 44.001l-65 21c-97.333 32.667 -165.666 75.667 -204.999 129s-59 130.666 -59 231.999c0 84.667 17.833 175.334 53.5 272.001
s92.167 203.334 169.5 320.001l222 336h-490v155h704z" />
    <glyph glyph-name="eta" unicode="&#x3b7;" 
d="M295 1082l10.999 -147h3c27.333 52.667 61.833 93.667 103.5 123s89.5 44 143.5 44c92.667 0 163.5 -33.667 212.5 -101s73.5 -179 73.5 -335v-1081h-201v1080c0 104 -12.5 176.833 -37.5 218.5s-64.167 62.5 -117.5 62.5c-40 0 -74.167 -10.5 -102.5 -31.5
s-52.166 -51.167 -71.499 -90.5v-824h-201v1082h184z" />
    <glyph glyph-name="theta" unicode="&#x3b8;" horiz-adv-x="981" 
d="M876 563c0 -192 -34 -337.333 -102 -436s-162.333 -148 -283 -148s-215.167 49.333 -283.5 148s-102.5 244 -102.5 436v329c0 191.333 33.833 336.666 101.5 435.999s161.834 149 282.501 149c121.333 0 216.166 -49.667 284.499 -149s102.5 -244.666 102.5 -435.999
v-329zM305 803h369.999v118c0 134.667 -15.667 235 -47 301s-77.666 99 -138.999 99c-60.667 0 -106.5 -33.167 -137.5 -99.5s-46.5 -166.5 -46.5 -300.5v-118zM674.999 651l-370.001 0.00195312v-116c0 -134.667 15.833 -235.334 47.5 -302.001s77.834 -100 138.501 -100
s106.5 33.167 137.5 99.5s46.5 167.166 46.5 302.499v116z" />
    <glyph glyph-name="iota" unicode="&#x3b9;" horiz-adv-x="568" 
d="M345 1081l0.000976562 -795.002c0 -57.333 6.33301 -96.666 19 -117.999s31.334 -32 56.001 -32c14.667 0 27.167 1.5 37.5 4.5s23.166 8.16699 38.499 15.5l30 -138c-25.333 -15.333 -49.333 -25.666 -72 -30.999s-49 -8 -79 -8c-76.667 0 -134.334 24.5 -173.001 73.5
s-58 129.167 -58 240.5v788h201z" />
    <glyph glyph-name="kappa" unicode="&#x3ba;" horiz-adv-x="973" 
d="M407 457h-82v-457h-200v1082h200v-453h69l263 453h250l-343 -504l361 -578h-254z" />
    <glyph glyph-name="lambda" unicode="&#x3bb;" horiz-adv-x="932" 
d="M245 0l-216.997 0.000976562l311 1043l-69 203c-11.333 40.667 -24.833 70.834 -40.5 90.501s-34.834 29.5 -57.501 29.5c-6.66699 0 -13.667 -0.333008 -21 -1l-22 -2l-3 144c14 4 32.667 7.5 56 10.5s44 4.5 62 4.5c52.667 0 94 -16.333 124 -49
s54 -78.334 72 -137.001l345 -1067c11.333 -42 23 -73.333 35 -94s27.333 -31 46 -31c4.66699 0 9.5 0.166992 14.5 0.5s9.5 1.16602 13.5 2.49902l3 -151c-10.667 -3.33301 -22.5 -6 -35.5 -8s-26.833 -3 -41.5 -3c-58.667 0 -104.334 17 -137.001 51
s-61.334 90.333 -86.001 169l-168 552h-3l-12 -55z" />
    <glyph glyph-name="uni03BC" unicode="&#x3bc;" horiz-adv-x="1004" 
d="M329 1082l-0.000976562 -626c0 -126 13 -211.167 39 -255.5s65 -66.5 117 -66.5c46.667 0 84.5 11.5 113.5 34.5s51.5 57.167 67.5 102.5v811h200v-1082h-184l-6 79l-3 1c-22.667 -33.333 -49.667 -58.5 -81 -75.5s-67 -25.5 -107 -25.5
c-33.333 0 -62.666 4.66699 -87.999 14s-48 25 -68 47v-456h-200v1498h200z" />
    <glyph glyph-name="nu" unicode="&#x3bd;" horiz-adv-x="860" 
d="M416 325l16 -86h3l17 86l169 757h207l-306 -1082h-178l-308 1082h208z" />
    <glyph glyph-name="xi" unicode="&#x3be;" horiz-adv-x="868" 
d="M738 1281c-41.333 13.333 -74.4971 23 -99.4971 29s-52.167 9 -81.5 9c-68.667 0 -119.667 -17.667 -153 -53s-50 -81.666 -50 -138.999c0 -66.667 17 -117.834 51 -153.501s88.667 -53.5 164 -53.5h118v-157h-115c-94 0 -164 -25.333 -210 -76
s-69 -130.334 -69 -239.001c0 -85.333 18.333 -151.833 55 -199.5s86 -82.5 148 -104.5l85 -21c78.667 -22 135.667 -47.167 171 -75.5s53 -76.5 53 -144.5c-0.666992 -52 -18.167 -105.5 -52.5 -160.5s-72.5 -98.833 -114.5 -131.5l-104 82
c27.333 32 46.666 61.167 57.999 87.5s17 57.833 17 94.5c0 28.667 -7.5 50.5 -22.5 65.5s-42.5 28.167 -82.5 39.5l-36 11c-128.667 34.667 -223.334 84.167 -284.001 148.5s-91 167.166 -91 308.499c0 100.667 22.167 183.834 66.5 249.501
s109.166 113.834 194.499 144.501c-64.667 26.667 -114.167 64 -148.5 112s-51.5 104.333 -51.5 169c0 113.333 34 200.333 102 261s163.333 91 286 91c44.667 0 85.167 -3.83301 121.5 -11.5s71.5 -18.5 105.5 -32.5z" />
    <glyph glyph-name="omicron" unicode="&#x3bf;" 
d="M77 609c0 146.667 35.001 265.5 105.001 356.5s168.333 136.5 295 136.5c127.333 0 226 -45.5 296 -136.5s105 -209.833 105 -356.5v-138c0 -148 -34.833 -266.833 -104.5 -356.5s-167.834 -134.5 -294.501 -134.5c-128 0 -227 45 -297 135s-105 208.667 -105 356v138z
M278.001 471c0 -101.333 16.001 -183 48.001 -245s83 -93 153 -93c68 0 118.167 31.167 150.5 93.5s48.5 143.833 48.5 244.5v138c0 100 -16.333 181.167 -49 243.5s-83.334 93.5 -152.001 93.5c-69.333 0 -119.833 -31.167 -151.5 -93.5s-47.5 -143.5 -47.5 -243.5v-138z
" />
    <glyph glyph-name="pi" unicode="&#x3c0;" horiz-adv-x="1054" 
d="M957 930l-110.999 -0.00195312v-644c0 -57.333 6.33301 -96.666 19 -117.999s31.334 -32 56.001 -32c14.667 0 27.167 1.5 37.5 4.5s23.166 8.16699 38.499 15.5l30 -138c-25.333 -15.333 -49.333 -25.666 -72 -30.999s-49 -8 -79 -8
c-76.667 0 -134.334 24.5 -173.001 73.5s-58 129.167 -58 240.5v637h-256v-930h-200v930h-113v152h881v-152z" />
    <glyph glyph-name="rho" unicode="&#x3c1;" 
d="M876 507c0 -163.333 -28.833 -292.002 -86.5 -386.002s-140.834 -141 -249.501 -141c-49.333 0 -92.333 8.83301 -129 26.5s-68 43.834 -94 78.501l-3 -1v-500h-201v1001h2l-2 4c0 162.667 34.333 288.834 103 378.501s161.334 134.5 278.001 134.5
c125.333 0 220.333 -51.167 285 -153.5s97 -242.5 97 -420.5v-21zM676 527.998c0 127.333 -14.833 228.833 -44.5 304.5s-77.5 113.5 -143.5 113.5c-58.667 0 -102.334 -36.5 -131.001 -109.5s-43 -159.5 -43 -259.5v-323c16.667 -39.333 38.834 -69.333 66.501 -90
s62.5 -31 104.5 -31c66.667 0 115.167 33.333 145.5 100s45.5 158 45.5 274v21z" />
    <glyph glyph-name="sigma1" unicode="&#x3c2;" horiz-adv-x="889" 
d="M469 1102c106 0 190.666 -34.666 253.999 -103.999s95 -167.666 95 -294.999h-189c0 76 -13.333 135.5 -40 178.5s-66.667 64.5 -120 64.5c-68 0 -117.167 -36.5 -147.5 -109.5s-45.5 -165.5 -45.5 -277.5v-38c0 -100.667 18.833 -180.334 56.5 -239.001
s97.834 -103 180.501 -133c86.667 -28.667 147.5 -57 182.5 -85s53.167 -77.333 54.5 -148c-0.666992 -49.333 -18.334 -102.333 -53.001 -159s-72.334 -100.334 -113.001 -131.001l-105 82c26.667 32 45.834 61.333 57.501 88s17.5 57.334 17.5 92.001
c0 31.333 -7.66699 54.5 -23 69.5s-41.666 28.833 -78.999 41.5c-129.333 35.333 -224.5 94.333 -285.5 177s-91.5 197.667 -91.5 345v38c0 159.333 34.167 289.666 102.5 390.999s165.5 152 291.5 152z" />
    <glyph glyph-name="sigma" unicode="&#x3c3;" horiz-adv-x="964" 
d="M935 925l-225.001 -0.000976562c50 -47.333 89.333 -105.333 118 -174s43 -145 43 -229v-26c0 -150 -34.667 -273.5 -104 -370.5s-165.666 -145.5 -288.999 -145.5c-128 0 -227 49.833 -297 149.5s-105 231.834 -105 396.501v27c0 158 35 285.667 105 383
s168.333 146 295 146h459v-157zM276.999 525.999c0 -118 16.001 -213 48.001 -285s83 -108 153 -108c66 0 114.667 36.167 146 108.5s47 167.166 47 284.499v27c0 110 -15.833 199.5 -47.5 268.5s-80.834 103.5 -147.501 103.5c-68.667 0 -119 -34.667 -151 -104
s-48 -158.666 -48 -267.999v-27z" />
    <glyph glyph-name="tau" unicode="&#x3c4;" horiz-adv-x="884" 
d="M823 929l-291.999 -0.00195312v-643c0 -57.333 6.33301 -96.666 19 -117.999s31.334 -32 56.001 -32c14.667 0 27.167 1.5 37.5 4.5s23.166 8.16699 38.499 15.5l30 -138c-25.333 -15.333 -49.333 -25.666 -72 -30.999s-49 -8 -79 -8
c-76.667 0 -134.334 24.5 -173.001 73.5s-58 129.167 -58 240.5v636h-268v153h761v-153z" />
    <glyph glyph-name="upsilon" unicode="&#x3c5;" horiz-adv-x="924" 
d="M313 1082l-0.000976562 -668.001c0 -99.333 11.167 -171 33.5 -215s52.833 -66 91.5 -66c63.333 0 113.166 41.833 149.499 125.5s54.5 182.167 54.5 295.5c-2 90 -10.667 177.833 -26 263.5s-36.666 173.834 -63.999 264.501h198c28 -74 50.333 -153.167 67 -237.5
s25 -180.833 25 -289.5c0 -172 -32.667 -311 -98 -417s-164.666 -159 -297.999 -159c-108 0 -190.5 35 -247.5 105s-85.5 180.667 -85.5 332v666h200z" />
    <glyph glyph-name="phi" unicode="&#x3c6;" horiz-adv-x="1225" 
d="M505 -14c-156 20 -268.335 81.834 -337.002 185.501s-103 235.834 -103 396.501c0 114.667 16.333 215.667 49 303s80.334 159 143.001 215l127 -121c-39.333 -48 -68.5 -106.5 -87.5 -175.5s-29.167 -142.833 -30.5 -221.5c0 -106.667 18.5 -197.834 55.5 -273.501
s98.167 -125.167 183.5 -148.5v702c0 72.667 21 130.5 63 173.5s97.333 64.5 166 64.5c128.667 0 230.834 -50.833 306.501 -152.5s113.5 -230.167 113.5 -385.5c0 -152.667 -35.333 -279.834 -106 -381.501s-184.667 -162.167 -342 -181.5v-463h-201v464zM705.998 144.001
c87.333 21.333 150.332 68.5 188.999 141.5s58 160.5 58 262.5c-1.33301 109.333 -19.666 200.333 -54.999 273s-85 109 -149 109c-17.333 0 -28.833 -6.83301 -34.5 -20.5s-8.5 -32.167 -8.5 -55.5v-710z" />
    <glyph glyph-name="chi" unicode="&#x3c7;" horiz-adv-x="860" 
d="M427 680l158 402h229l-271 -534l281 -548h-228l-166 415l-165 -415h-228l280 548l-272 534h227z" />
    <glyph glyph-name="psi" unicode="&#x3c8;" horiz-adv-x="1220" 
d="M701 1081v-934.999c86.667 23.333 149.5 74 188.5 152s58.5 171.667 58.5 281c-1.33301 84.667 -10 168 -26 250s-38.333 166.333 -67 253h194c30.667 -70.667 54.834 -146.167 72.501 -226.5s26.5 -172.5 26.5 -276.5c0 -166 -34.833 -301.833 -104.5 -407.5
s-183.834 -167.834 -342.501 -186.501v-447h-201v449c-138 20 -243.333 78.667 -316 176s-109 240.333 -109 429v490h200v-492c0 -132 19.5 -233.333 58.5 -304s94.5 -117 166.5 -139v934h201z" />
    <glyph glyph-name="omega" unicode="&#x3c9;" horiz-adv-x="1378" 
d="M404 1082c-34.667 -90.667 -61.6689 -179.168 -81.002 -265.501s-29.666 -175.166 -30.999 -266.499c0 -124.667 11.167 -225.334 33.5 -302.001s59.5 -115 111.5 -115c46 0 82.167 27.167 108.5 81.5s39.5 142.5 39.5 264.5v311h208v-311
c0 -122 13.167 -210.167 39.5 -264.5s62.166 -81.5 107.499 -81.5c51.333 0 88.333 38.167 111 114.5s34 177.166 34 302.499c-2 91.333 -12.5 180.333 -31.5 267s-45.833 175 -80.5 265h198c35.333 -75.333 63.333 -155.333 84 -240s31 -182 31 -292
c0 -175.333 -26.167 -314.333 -78.5 -417s-138.5 -154 -258.5 -154c-62.667 0 -115.667 17.5 -159 52.5s-76.666 87.5 -99.999 157.5h-3c-24 -70 -57.667 -122.5 -101 -157.5s-95.666 -52.5 -156.999 -52.5c-120.667 0 -207.167 51.5 -259.5 154.5
s-78.5 241.833 -78.5 416.5c0 110.667 10.167 208.334 30.5 293.001s48.833 164.334 85.5 239.001h197z" />
    <glyph glyph-name="iotadieresis" unicode="&#x3ca;" horiz-adv-x="568" 
d="M345 1081l0.000976562 -795.002c0 -57.333 6.33301 -96.666 19 -117.999s31.334 -32 56.001 -32c14.667 0 27.167 1.5 37.5 4.5s23.166 8.16699 38.499 15.5l30 -138c-25.333 -15.333 -49.333 -25.666 -72 -30.999s-49 -8 -79 -8c-76.667 0 -134.334 24.5 -173.001 73.5
s-58 129.167 -58 240.5v788h201zM559.001 1273h-202v185h202v-185zM151.001 1273h-201v185h201v-185z" />
    <glyph glyph-name="upsilondieresis" unicode="&#x3cb;" horiz-adv-x="924" 
d="M313 1082l-0.000976562 -668.001c0 -99.333 11.167 -171 33.5 -215s52.833 -66 91.5 -66c63.333 0 113.166 41.833 149.499 125.5s54.5 182.167 54.5 295.5c-2 90 -10.667 177.833 -26 263.5s-36.666 173.834 -63.999 264.501h198c28 -74 50.333 -153.167 67 -237.5
s25 -180.833 25 -289.5c0 -172 -32.667 -311 -98 -417s-164.666 -159 -297.999 -159c-108 0 -190.5 35 -247.5 105s-85.5 180.667 -85.5 332v666h200zM771.999 1274h-202v185h202v-185zM363.999 1274h-201v185h201v-185z" />
    <glyph glyph-name="omicrontonos" unicode="&#x3cc;" 
d="M77 609c0 146.667 35.001 265.5 105.001 356.5s168.333 136.5 295 136.5c127.333 0 226 -45.5 296 -136.5s105 -209.833 105 -356.5v-138c0 -148 -34.833 -266.833 -104.5 -356.5s-167.834 -134.5 -294.501 -134.5c-128 0 -227 45 -297 135s-105 208.667 -105 356v138z
M278.001 471c0 -101.333 16.001 -183 48.001 -245s83 -93 153 -93c68 0 118.167 31.167 150.5 93.5s48.5 143.833 48.5 244.5v138c0 100 -16.333 181.167 -49 243.5s-83.334 93.5 -152.001 93.5c-69.333 0 -119.833 -31.167 -151.5 -93.5s-47.5 -143.5 -47.5 -243.5v-138z
M464.002 1605h197l-156 -356h-97z" />
    <glyph glyph-name="upsilontonos" unicode="&#x3cd;" horiz-adv-x="924" 
d="M313 1082l-0.000976562 -668.001c0 -99.333 11.167 -171 33.5 -215s52.833 -66 91.5 -66c63.333 0 113.166 41.833 149.499 125.5s54.5 182.167 54.5 295.5c-2 90 -10.667 177.833 -26 263.5s-36.666 173.834 -63.999 264.501h198c28 -74 50.333 -153.167 67 -237.5
s25 -180.833 25 -289.5c0 -172 -32.667 -311 -98 -417s-164.666 -159 -297.999 -159c-108 0 -190.5 35 -247.5 105s-85.5 180.667 -85.5 332v666h200zM452.999 1584h197l-156 -356h-97z" />
    <glyph glyph-name="omegatonos" unicode="&#x3ce;" horiz-adv-x="1378" 
d="M404 1082c-34.667 -90.667 -61.6689 -179.168 -81.002 -265.501s-29.666 -175.166 -30.999 -266.499c0 -124.667 11.167 -225.334 33.5 -302.001s59.5 -115 111.5 -115c46 0 82.167 27.167 108.5 81.5s39.5 142.5 39.5 264.5v311h208v-311
c0 -122 13.167 -210.167 39.5 -264.5s62.166 -81.5 107.499 -81.5c51.333 0 88.333 38.167 111 114.5s34 177.166 34 302.499c-2 91.333 -12.5 180.333 -31.5 267s-45.833 175 -80.5 265h198c35.333 -75.333 63.333 -155.333 84 -240s31 -182 31 -292
c0 -175.333 -26.167 -314.333 -78.5 -417s-138.5 -154 -258.5 -154c-62.667 0 -115.667 17.5 -159 52.5s-76.666 87.5 -99.999 157.5h-3c-24 -70 -57.667 -122.5 -101 -157.5s-95.666 -52.5 -156.999 -52.5c-120.667 0 -207.167 51.5 -259.5 154.5
s-78.5 241.833 -78.5 416.5c0 110.667 10.167 208.334 30.5 293.001s48.833 164.334 85.5 239.001h197zM675.998 1581h197l-156 -356h-97z" />
    <glyph glyph-name="uni03D1" unicode="&#x3d1;" horiz-adv-x="1099" 
d="M563 139c80.667 0 143.002 36.499 187.002 109.499s66 177.833 66 314.5v9c-106 8.66699 -191.5 53.5 -256.5 134.5s-97.5 183.833 -97.5 308.5v78c0 118.667 25 212.167 75 280.5s116 102.5 198 102.5c90.667 0 161.167 -33.667 211.5 -101s75.5 -162.666 75.5 -285.999
v-526c0 -182 -41.333 -324.667 -124 -428s-194.334 -155 -335.001 -155c-138.667 0 -249.334 53.833 -332.001 161.5s-124 248.167 -124 421.5v689l207 2v-691c0 -128.667 22 -231.5 66 -308.5s105 -115.5 183 -115.5zM643.002 1013
c0 -78.667 14.832 -144.001 44.499 -196.001s72.5 -82.667 128.5 -92v373c0 72 -7.16699 125.5 -21.5 160.5s-36.166 52.5 -65.499 52.5c-26.667 0 -47.667 -17.667 -63 -53s-23 -88.666 -23 -159.999v-85z" />
    <glyph glyph-name="uni03D2" unicode="&#x3d2;" horiz-adv-x="950" 
d="M621 1227c30.667 90.667 64.1699 154 100.503 190s83.833 54 142.5 54c16 0 30.833 -1.83301 44.5 -5.5s27.167 -9.83398 40.5 -18.501l-19 -149c-2.66699 2 -7.83398 4.16699 -15.501 6.5s-14.834 3.5 -21.501 3.5c-20 0 -37.167 -8.16699 -51.5 -24.5
s-25.833 -44.5 -34.5 -84.5l-235 -644v-555h-200v563l-233 636c-9.33301 40.667 -21 69 -35 85s-31.333 24 -52 24c-6.66699 0 -13.834 -1.16699 -21.501 -3.5s-12.167 -4.5 -13.5 -6.5l-18 149c12 8.66699 24.667 14.834 38 18.501s28.333 5.5 45 5.5
c59.333 0 107 -17.5 143 -52.5s69.667 -98.167 101 -189.5l131 -407l15 -71h3l16 71z" />
    <glyph glyph-name="uni03D6" unicode="&#x3d6;" horiz-adv-x="1356" 
d="M1322 934l-115.002 0.000976562c18 -58.667 32 -118.834 42 -180.501s15 -129.5 15 -203.5c0 -174.667 -24.667 -313.5 -74 -416.5s-130.666 -154.5 -243.999 -154.5c-64 0 -118.167 17.667 -162.5 53s-78.5 89 -102.5 161h-3c-24.667 -72 -59.167 -125.667 -103.5 -161
s-98.166 -53 -161.499 -53c-113.333 0 -194.5 51.5 -243.5 154.5s-73.5 241.833 -73.5 416.5c0 74 4.66699 142 14 204s23.333 122 42 180h-104v148h1274v-148zM1064 550.001c-2 65.333 -8.16895 129.501 -18.502 192.501s-24.833 126.833 -43.5 191.5h-644
c-19.333 -64.667 -34.166 -128.334 -44.499 -191.001s-16.166 -127 -17.499 -193c0 -125.333 9.66699 -226.166 29 -302.499s51.666 -114.5 96.999 -114.5c47.333 0 84.833 27.167 112.5 81.5s41.5 142.5 41.5 264.5v244h208v-244c0 -122 13.667 -210.167 41 -264.5
s65 -81.5 113 -81.5c44.667 0 76.834 38.167 96.501 114.5s29.5 177.166 29.5 302.499z" />
    <glyph glyph-name="uni0400" unicode="&#x400;" horiz-adv-x="977" 
d="M846 676h-508v-522h590v-154h-791v1456h786v-156h-585v-469h508v-155zM604 1561h-165l-224 266h230z" />
    <glyph glyph-name="uni0401" unicode="&#x401;" horiz-adv-x="977" 
d="M846 676h-508v-522h590v-154h-791v1456h786v-156h-585v-469h508v-155zM811 1617h-202v185h202v-185zM403 1617h-201v185h201v-185z" />
    <glyph glyph-name="uni0402" unicode="&#x402;" horiz-adv-x="1258" 
d="M952 1300l-397.996 -0.000976562v-456c41.333 14 79.333 25.167 114 33.5s67.334 12.5 98.001 12.5c135.333 0 240.166 -38.5 314.499 -115.5s111.5 -191.5 111.5 -343.5c0 -135.333 -34.333 -243.166 -103 -323.499s-175.334 -120.5 -320.001 -120.5v147
c85.333 0 143.833 25.667 175.5 77s47.5 123.333 47.5 216c-0.666992 100.667 -19.834 176.167 -57.501 226.5s-93.834 75.5 -168.501 75.5c-34.667 0 -69.334 -3.5 -104.001 -10.5s-70.667 -16.833 -108 -29.5v-689h-201v1300h-312v156h911v-156z" />
    <glyph glyph-name="uni0403" unicode="&#x403;" horiz-adv-x="941" 
d="M880 1300h-542v-1300h-201v1456h743v-156zM570 1824h230l-234 -266h-158z" />
    <glyph glyph-name="uni0404" unicode="&#x404;" horiz-adv-x="1097" 
d="M983 436c-2.66699 -149.333 -41.3369 -262.668 -116.004 -340.001s-180.667 -116 -318 -116c-139.333 0 -247.666 46.833 -324.999 140.5s-116 228.834 -116 405.501v404c0 176 39 311.333 117 406s186 142 324 142c140 0 246.333 -38.167 319 -114.5
s111.334 -191.833 116.001 -346.5h-201c-1.33301 106.667 -20.166 184.167 -56.499 232.5s-95.5 72.5 -177.5 72.5c-79.333 0 -139.333 -32.667 -180 -98s-61 -162.333 -61 -291v-120h399v-155h-399v-132c0 -130.667 19.833 -228.667 59.5 -294s100.167 -98 181.5 -98
c80.667 0 139.334 23.167 176.001 69.5s56 123.833 58 232.5h200z" />
    <glyph glyph-name="uni0405" unicode="&#x405;" horiz-adv-x="1044" 
d="M766 366c0 70 -17.5029 126.503 -52.5029 169.503s-98.167 81.5 -189.5 115.5c-134.667 42.667 -236.667 97.167 -306 163.5s-104 156.166 -104 269.499c0 117.333 38.667 212.166 116 284.499s179.333 108.5 306 108.5c130.667 0 235 -42 313 -126s117 -189 117 -315
h-201c0 86.667 -19.667 156 -59 208s-96.666 78 -171.999 78c-71.333 0 -125.666 -21.833 -162.999 -65.5s-56 -100.5 -56 -170.5c0 -63.333 20.167 -115.666 60.5 -156.999s108.5 -79.666 204.5 -114.999c129.333 -42 226 -97.833 290 -167.5s96 -162.5 96 -278.5
c0 -122 -38.333 -217.333 -115 -286s-180 -103 -310 -103c-126.667 0 -235.667 38.167 -327 114.5s-137 187.166 -137 332.499h201c0 -102.667 23.667 -177.334 71 -224.001s111.333 -70 192 -70c72.667 0 128.334 20.667 167.001 62s58 98.666 58 171.999z" />
    <glyph glyph-name="uni0406" unicode="&#x406;" horiz-adv-x="499" 
d="M350 0h-201v1456h201v-1456z" />
    <glyph glyph-name="uni0407" unicode="&#x407;" horiz-adv-x="499" 
d="M350 0h-201v1456h201v-1456zM554 1617h-202v185h202v-185zM146 1617h-201v185h201v-185z" />
    <glyph glyph-name="uni0408" unicode="&#x408;" horiz-adv-x="950" 
d="M619 1456l199.999 0.000976562v-1039c0 -136.667 -34.667 -243.834 -104 -321.501s-159.666 -116.5 -270.999 -116.5c-120.667 0 -215 35.5 -283 106.5s-102 178.5 -102 322.5h200c0 -94.667 15.5 -164.167 46.5 -208.5s77.167 -66.5 138.5 -66.5
c54 0 96.667 24.833 128 74.5s47 119.5 47 209.5v1039z" />
    <glyph glyph-name="uni0409" unicode="&#x409;" horiz-adv-x="1780" 
d="M1052 1456l0.000976562 -567.001h240c132.667 0 235.667 -40.667 309 -122s110 -188.666 110 -321.999c0 -134.667 -36.833 -242.5 -110.5 -323.5s-176.5 -121.5 -308.5 -121.5h-441v1300h-353l-1 -512c0 -281.333 -32.333 -483 -97 -605s-169.334 -183 -314.001 -183
h-37v154h32c82 0 138.5 45 169.5 135s46.5 256.333 46.5 499v668h755zM1052 734.999v-580.999h240c72.667 0 127.334 27.833 164.001 83.5s55 125.5 55 209.5c0 81.333 -18.333 149.666 -55 204.999s-91.334 83 -164.001 83h-240z" />
    <glyph glyph-name="uni040A" unicode="&#x40a;" horiz-adv-x="1785" 
d="M338 814h519v642h200v-595h240c132.667 0 235.667 -38.833 309 -116.5s110 -181.5 110 -311.5c0 -130.667 -36.667 -235.5 -110 -314.5s-176.333 -118.5 -309 -118.5h-440v659h-519v-659h-201v1456h201v-642zM1057 706v-546h240c73.333 0 128.166 25.667 164.499 77
s54.5 117.333 54.5 198c0 78 -18.167 142.667 -54.5 194s-91.166 77 -164.499 77h-240z" />
    </font>
</defs>
</svg>
